<svg xmlns="http://www.w3.org/2000/svg" viewBox="0 0 74.25 74.25"><defs><style>.cls-1{fill:#e4dcda;}.cls-2{fill:#fff;}</style></defs><g id="Capa_2" data-name="Capa 2"><g id="Layer_1" data-name="Layer 1"><circle class="cls-1" cx="37.12" cy="37.12" r="37.12"/><path class="cls-2" d="M48.65,23.08a2.55,2.55,0,1,0,2.55,2.55A2.55,2.55,0,0,0,48.65,23.08Z"/><path class="cls-2" d="M37.3,26.35A10.72,10.72,0,1,0,48,37.07,10.73,10.73,0,0,0,37.3,26.35Zm0,17.59a6.87,6.87,0,1,1,6.87-6.87A6.87,6.87,0,0,1,37.3,43.94Z"/><path class="cls-2" d="M45.81,58.84H28.43A13.1,13.1,0,0,1,15.36,45.76V28.38A13.09,13.09,0,0,1,28.43,15.31H45.81A13.09,13.09,0,0,1,58.89,28.38V45.76A13.1,13.1,0,0,1,45.81,58.84ZM28.43,19.4a9,9,0,0,0-9,9V45.76a9,9,0,0,0,9,9H45.81a9,9,0,0,0,9-9V28.38a9,9,0,0,0-9-9Z"/></g></g></svg>