<svg xmlns="http://www.w3.org/2000/svg" viewBox="0 0 74.25 74.25"><defs><style>.cls-1{fill:#e4dcda;}.cls-2{fill:#fff;}</style></defs><g id="Capa_2" data-name="Capa 2"><g id="Layer_1" data-name="Layer 1"><path class="cls-1" d="M74.25,37.12A37.13,37.13,0,1,0,31.32,73.8V47.86H21.9V37.12h9.42V29c0-9.31,5.55-14.45,14-14.45a56.74,56.74,0,0,1,8.31.73v9.13H49c-4.61,0-6,2.86-6,5.8v7h10.3L51.57,47.86H42.92V73.8A37.15,37.15,0,0,0,74.25,37.12Z"/><path class="cls-2" d="M51.57,47.86l1.65-10.74H42.92v-7c0-2.94,1.44-5.8,6-5.8h4.69V15.23a56.74,56.74,0,0,0-8.31-.73c-8.48,0-14,5.14-14,14.45v8.17H21.9V47.86h9.42V73.8a37.6,37.6,0,0,0,11.6,0V47.86Z"/></g></g></svg>