<svg xmlns="http://www.w3.org/2000/svg" xmlns:xlink="http://www.w3.org/1999/xlink" width="28px" height="28px" viewBox="0 0 28 28">
<path fill-rule="evenodd"  fill="#8c8787"
 d="M26.933,19.248 C25.507,22.572 23.085,25.006 19.734,26.435 C18.060,27.150 16.305,27.515 14.472,27.515 C12.640,27.515 10.898,27.156 9.225,26.435 C5.903,25.009 3.470,22.579 2.042,19.248 C1.326,17.580 0.977,15.817 0.977,13.984 C0.977,12.150 1.326,10.403 2.042,8.733 C3.470,5.404 5.902,2.988 9.225,1.562 C10.898,0.842 12.640,0.481 14.472,0.481 C16.306,0.481 18.060,0.845 19.735,1.562 C23.085,2.991 25.507,5.409 26.933,8.733 C27.651,10.406 28.012,12.150 28.012,13.984 C28.012,15.817 27.650,17.574 26.933,19.248 ZM24.087,8.436 C23.094,6.740 21.740,5.390 20.031,4.392 C18.334,3.403 16.473,2.903 14.473,2.903 C12.474,2.903 10.625,3.400 8.929,4.392 C7.232,5.387 5.876,6.736 4.888,8.436 C3.903,10.131 3.412,11.983 3.412,13.985 C3.412,15.490 3.695,16.940 4.281,18.304 C4.868,19.674 5.653,20.865 6.639,21.851 C7.625,22.837 8.804,23.618 10.170,24.212 C11.536,24.805 12.970,25.094 14.474,25.094 C16.473,25.094 18.334,24.595 20.032,23.604 C21.741,22.607 23.097,21.258 24.087,19.560 C25.083,17.851 25.576,15.986 25.576,13.985 C25.576,11.983 25.080,10.135 24.087,8.436 ZM18.073,18.843 L13.949,14.715 C13.784,14.551 13.715,14.344 13.742,14.095 C13.742,14.054 13.715,13.999 13.715,13.985 L13.715,6.727 C13.715,6.298 14.073,5.952 14.473,5.952 C14.901,5.952 15.273,6.298 15.273,6.727 L15.273,13.874 L19.135,17.766 C19.432,18.065 19.453,18.525 19.135,18.843 C18.860,19.119 18.349,19.119 18.073,18.843 Z"/>
</svg>