<svg xmlns="http://www.w3.org/2000/svg" xmlns:xlink="http://www.w3.org/1999/xlink" width="32px" height="39px" viewBox="0 0 32 39">
<path fill-rule="evenodd"  fill="#fff"
 d="M19.396,32.424 L15.644,26.995 L13.956,29.439 L15.995,29.439 L15.995,32.424 L7.164,32.424 L13.326,23.638 L7.865,15.735 L12.420,15.735 L15.645,20.332 L18.868,15.735 L23.424,15.735 L17.964,23.638 L24.125,32.424 L19.396,32.424 ZM30.399,15.192 C31.238,15.192 31.919,15.861 31.919,16.684 L31.919,34.675 C31.919,37.062 29.940,39.006 27.507,39.006 L4.404,39.006 C1.971,39.006 -0.008,37.062 -0.008,34.675 L-0.008,4.375 C-0.008,1.987 1.971,0.041 4.404,0.041 L19.791,0.041 C19.988,0.041 20.186,0.081 20.372,0.157 C20.546,0.228 20.701,0.333 20.835,0.458 C20.844,0.467 20.856,0.469 20.865,0.479 L31.474,10.895 C31.483,10.903 31.485,10.915 31.494,10.924 C31.622,11.056 31.729,11.208 31.802,11.379 C31.955,11.744 31.955,12.155 31.802,12.520 C31.729,12.691 31.622,12.843 31.494,12.975 C31.485,12.983 31.483,12.996 31.474,13.004 C31.465,13.013 31.453,13.016 31.444,13.024 C31.309,13.150 31.155,13.255 30.981,13.326 C30.795,13.402 30.597,13.442 30.399,13.442 L21.721,13.442 C19.288,13.442 17.308,11.496 17.308,9.107 L17.308,3.025 L4.404,3.025 C3.646,3.025 3.029,3.631 3.029,4.375 L3.029,34.675 C3.029,35.418 3.646,36.023 4.404,36.023 L27.507,36.023 C28.265,36.023 28.880,35.418 28.880,34.675 L28.880,16.684 C28.880,15.861 29.561,15.192 30.399,15.192 ZM20.346,9.107 C20.346,9.853 20.962,10.458 21.721,10.458 L26.731,10.458 L20.346,4.189 L20.346,9.107 Z"/>
</svg>