<svg xmlns="http://www.w3.org/2000/svg" xmlns:xlink="http://www.w3.org/1999/xlink" width="56px" height="50px" viewBox="0 0 56 50">
<path fill-rule="evenodd"  fill="#e65550"
 d="M54.990,1.896 C54.906,1.692 54.786,1.511 54.636,1.358 C54.633,1.356 54.633,1.354 54.631,1.351 L54.631,1.351 C54.477,1.196 54.293,1.073 54.090,0.989 C53.886,0.904 53.670,0.859 53.453,0.859 L40.400,0.859 C39.482,0.859 38.736,1.611 38.736,2.539 C38.736,3.467 39.482,4.219 40.400,4.219 L49.435,4.219 L31.263,22.569 L24.608,15.849 C23.958,15.193 22.905,15.193 22.255,15.849 L4.211,34.069 L4.211,2.539 C4.211,1.611 3.466,0.859 2.546,0.859 C1.627,0.859 0.882,1.611 0.882,2.539 L0.882,47.353 C0.882,48.281 1.627,49.034 2.546,49.034 L52.148,49.034 C53.067,49.034 53.813,48.281 53.813,47.353 C53.813,46.424 53.067,45.671 52.148,45.671 L4.211,45.671 L4.211,38.418 C4.509,38.352 4.797,38.230 5.029,37.996 L23.431,19.414 L30.086,26.134 C30.736,26.791 31.790,26.791 32.440,26.134 L51.788,6.596 L51.788,14.402 C51.788,15.329 52.534,16.082 53.453,16.082 C54.373,16.082 55.118,15.329 55.118,14.402 L55.118,2.539 C55.118,2.319 55.074,2.102 54.990,1.896 Z"/>
</svg>