<svg xmlns="http://www.w3.org/2000/svg" width="490" height="490" viewBox="0 0 490 490">
<path fill="#fff" d="M245,478C116.5,478,12,373.5,12,245S116.5,12,245,12s233,104.5,233,233S373.5,478,245,478z M245,50
	C137.5,50,50,137.5,50,245s87.5,195,195,195s195-87.5,195-195S352.5,50,245,50z"/>
<path fill="#fff" d="M241.3,182.3c-12.7,0-23.1-10.4-23.1-23.1s10.4-23.1,23.1-23.1s23.1,10.4,23.1,23.1S254,182.3,241.3,182.3z"/>
<polygon fill="#fff" points="210.9,353.9 210.9,327 225.6,327 225.6,248.8 211.1,248.8 211.1,221.9 264.4,221.9 264.4,327 
	279.1,327 279.1,353.9 "/>
</svg>

