<svg xmlns="http://www.w3.org/2000/svg" width="86.88" height="86.88" viewBox="0 0 86.88 86.88">
	<path d="M43.45,33A10.47,10.47,0,1,0,53.89,43.43,10.46,10.46,0,0,0,43.45,33" style="fill:#fff"></path>
	<path d="M67.92,24.91A10.51,10.51,0,0,0,62,19a17.68,17.68,0,0,0-5.84-1.07c-3.3-.16-4.29-.2-12.67-.2s-9.38,0-12.69.2A17.43,17.43,0,0,0,24.93,19a9.62,9.62,0,0,0-3.6,2.35A9.84,9.84,0,0,0,19,24.91a17.57,17.57,0,0,0-1.08,5.85c-.15,3.29-.18,4.29-.18,12.67s0,9.36.18,12.69A17.15,17.15,0,0,0,19,61.93a9.68,9.68,0,0,0,2.36,3.62,9.34,9.34,0,0,0,3.6,2.33A16.66,16.66,0,0,0,30.76,69c3.31.14,4.29.18,12.69.18s9.37,0,12.67-.18A16.9,16.9,0,0,0,62,67.88a9.49,9.49,0,0,0,3.6-2.33,9.68,9.68,0,0,0,2.36-3.62A17.48,17.48,0,0,0,69,56.12c.16-3.33.18-4.31.18-12.69s0-9.38-.18-12.67a17.91,17.91,0,0,0-1.07-5.85M43.45,59.54A16.12,16.12,0,1,1,59.56,43.43,16.09,16.09,0,0,1,43.45,59.54M60.19,30.43A3.77,3.77,0,1,1,64,26.67a3.77,3.77,0,0,1-3.78,3.76" style="fill:#fff"></path>
	<path d="M82,0H4.87A4.85,4.85,0,0,0,0,4.85V82a4.87,4.87,0,0,0,4.87,4.87H82A4.87,4.87,0,0,0,86.88,82V4.85A4.85,4.85,0,0,0,82,0M74.65,56.37A23.39,23.39,0,0,1,73.18,64,16,16,0,0,1,64,73.18a22.82,22.82,0,0,1-7.62,1.45c-3.34.16-4.41.2-12.94.2s-9.59,0-12.94-.2a22.82,22.82,0,0,1-7.62-1.45,15.72,15.72,0,0,1-5.56-3.62A15.49,15.49,0,0,1,13.7,64a22.93,22.93,0,0,1-1.45-7.62c-.16-3.35-.19-4.42-.19-12.95s0-9.59.19-12.94a23,23,0,0,1,1.45-7.62,15.05,15.05,0,0,1,3.62-5.54,15.45,15.45,0,0,1,5.56-3.62,22.54,22.54,0,0,1,7.62-1.46c3.35-.15,4.42-.2,12.94-.2s9.6.05,12.94.2A22.54,22.54,0,0,1,64,13.7a15.37,15.37,0,0,1,5.56,3.62,15.18,15.18,0,0,1,3.62,5.54,23.5,23.5,0,0,1,1.47,7.62c.14,3.35.18,4.42.18,12.94s0,9.6-.18,12.95" style="fill:#fff"></path>
</svg>