<svg xmlns="http://www.w3.org/2000/svg" width="50" height="50" viewBox="0 0 50 50"><circle cx="25" cy="25" r="25" fill="#8c8787" class="svg-bg"/><path d="M25,20.19A4.82,4.82,0,1,0,29.81,25,4.81,4.81,0,0,0,25,20.19" fill="#8c8787" class="svg-bg"/><path d="M25,17.58A7.42,7.42,0,1,0,32.42,25,7.42,7.42,0,0,0,25,17.58Zm0,12.34A4.92,4.92,0,1,1,29.92,25,4.91,4.91,0,0,1,25,29.92Z" fill="#fff" class="svg-main"/><path d="M32.71,15.55a1.74,1.74,0,1,0,1.74,1.74A1.75,1.75,0,0,0,32.71,15.55Z" fill="#fff" class="svg-main"/><path d="M38.7,15.53a7.39,7.39,0,0,0-4.23-4.21A10.52,10.52,0,0,0,31,10.64c-1.54-.06-2-.09-6-.09s-4.41,0-5.95.09a10.41,10.41,0,0,0-3.51.68A7,7,0,0,0,13,13a7,7,0,0,0-1.67,2.55A10.43,10.43,0,0,0,10.65,19c-.08,1.54-.1,2-.1,6s0,4.42.1,6a10.32,10.32,0,0,0,.66,3.51A7,7,0,0,0,13,37a7.21,7.21,0,0,0,2.56,1.67,10.44,10.44,0,0,0,3.51.67c1.54.07,2,.09,5.95.09s4.42,0,6-.09a10.54,10.54,0,0,0,3.51-.67A7.21,7.21,0,0,0,37,37a7.12,7.12,0,0,0,1.67-2.56A10.8,10.8,0,0,0,39.37,31c.07-1.54.08-2,.08-6s0-4.42-.08-6A10.92,10.92,0,0,0,38.7,15.53ZM36.76,30.85a7.78,7.78,0,0,1-.49,2.67,4.46,4.46,0,0,1-1.08,1.67,4.36,4.36,0,0,1-1.66,1.07,7.86,7.86,0,0,1-2.69.51c-1.52.07-2,.08-5.83.08s-4.32,0-5.85-.08a7.78,7.78,0,0,1-2.68-.51,4.36,4.36,0,0,1-1.66-1.07,4.46,4.46,0,0,1-1.08-1.67,8,8,0,0,1-.5-2.67c-.07-1.54-.08-2-.08-5.85s0-4.31.08-5.83a8.12,8.12,0,0,1,.5-2.69,4.78,4.78,0,0,1,2.74-2.74,7.92,7.92,0,0,1,2.68-.49c1.53-.08,2-.1,5.85-.1s4.31,0,5.83.1a8,8,0,0,1,2.69.49,4.78,4.78,0,0,1,2.74,2.74,7.93,7.93,0,0,1,.49,2.69c.08,1.52.09,2,.09,5.83S36.84,29.31,36.76,30.85Z" fill="#fff" class="svg-main"/></svg>