<svg xmlns="http://www.w3.org/2000/svg" xmlns:xlink="http://www.w3.org/1999/xlink" width="46px" height="57px" viewBox="0 0 46 57">
<path fill-rule="evenodd"  fill="#4d4d4d" d="M21.663,33.252 L24.137,33.252 C24.957,33.252 25.621,33.924 25.621,34.751 C25.621,35.580 24.957,36.251 24.137,36.251 L21.663,36.251 C20.843,36.251 20.179,35.580 20.179,34.751 C20.179,33.924 20.843,33.252 21.663,33.252 ZM31.561,16.249 L21.663,16.249 C20.843,16.249 20.179,15.577 20.179,14.750 C20.179,13.921 20.843,13.250 21.663,13.250 L31.561,13.250 C32.381,13.250 33.044,13.921 33.044,14.750 C33.044,15.577 32.381,16.249 31.561,16.249 ZM31.561,26.249 L21.663,26.249 C20.843,26.249 20.179,25.578 20.179,24.750 C20.179,23.922 20.843,23.251 21.663,23.251 L31.561,23.251 C32.381,23.251 33.044,23.922 33.044,24.750 C33.044,25.578 32.381,26.249 31.561,26.249 ZM41.458,48.751 L11.765,48.751 C9.583,48.751 7.807,46.958 7.807,44.752 L7.807,4.750 C7.807,2.544 9.583,0.750 11.765,0.750 L41.458,0.750 C42.278,0.750 42.942,1.421 42.942,2.249 C42.942,3.077 42.278,3.748 41.458,3.748 L11.765,3.748 C11.219,3.748 10.775,4.197 10.775,4.750 L10.775,44.752 C10.775,45.304 11.219,45.753 11.765,45.753 L41.458,45.753 C42.005,45.753 42.448,45.304 42.448,44.752 L42.448,10.324 C42.448,9.497 43.112,8.825 43.932,8.825 C44.752,8.825 45.416,9.497 45.416,10.324 L45.416,44.752 C45.416,46.958 43.641,48.751 41.458,48.751 ZM26.858,54.752 C26.858,55.580 26.194,56.251 25.374,56.251 L4.219,56.251 C2.104,56.251 0.384,54.513 0.384,52.376 L0.384,23.500 C0.384,22.672 1.048,22.001 1.868,22.001 C2.687,22.001 3.351,22.672 3.351,23.500 L3.351,52.376 C3.351,52.860 3.741,53.252 4.219,53.252 L25.374,53.252 C26.194,53.252 26.858,53.923 26.858,54.752 Z"/>
</svg>