<svg xmlns="http://www.w3.org/2000/svg" xmlns:xlink="http://www.w3.org/1999/xlink" width="46px" height="34px" viewBox="0 0 46 34">
<path fill-rule="evenodd"  fill="#4d4d4d" d="M40.846,33.499 L5.153,33.499 C2.587,33.499 0.498,31.410 0.498,28.841 L0.498,5.157 C0.498,2.589 2.587,0.499 5.153,0.499 L45.501,0.499 L45.501,28.841 C45.501,31.410 43.412,33.499 40.846,33.499 ZM42.503,3.500 L5.694,3.500 L23.562,20.591 L36.016,8.405 L38.112,10.550 L23.586,24.763 L3.496,5.549 L3.496,28.841 C3.496,29.755 4.240,30.499 5.153,30.499 L40.846,30.499 C41.759,30.499 42.503,29.755 42.503,28.841 L42.503,3.500 ZM39.899,8.765 C39.606,9.057 39.223,9.203 38.839,9.203 C38.456,9.203 38.072,9.057 37.779,8.764 C37.194,8.178 37.194,7.228 37.779,6.642 L39.283,5.139 C39.868,4.553 40.817,4.553 41.402,5.139 C41.988,5.725 41.988,6.675 41.402,7.261 L39.899,8.765 Z"/>
</svg>