<svg xmlns="http://www.w3.org/2000/svg" xmlns:xlink="http://www.w3.org/1999/xlink" width="55px" height="46px" viewBox="0 0 55 46">
<path fill-rule="evenodd"  fill="#4d4d4d" d="M53.436,45.193 L2.482,45.193 C1.647,45.193 0.970,44.530 0.970,43.709 C0.970,42.889 1.647,42.225 2.482,42.225 L53.436,42.225 C54.271,42.225 54.947,42.889 54.947,43.709 C54.947,44.530 54.271,45.193 53.436,45.193 ZM51.120,37.235 C50.284,37.235 49.608,36.571 49.608,35.751 L49.608,3.130 L43.367,3.130 L43.367,35.751 C43.367,36.571 42.691,37.235 41.855,37.235 C41.020,37.235 40.344,36.571 40.344,35.751 L40.344,1.646 C40.344,0.826 41.020,0.162 41.855,0.162 L51.120,0.162 C51.955,0.162 52.631,0.826 52.631,1.646 L52.631,35.751 C52.631,36.571 51.955,37.235 51.120,37.235 ZM32.591,37.235 C31.756,37.235 31.080,36.571 31.080,35.751 L31.080,21.318 L24.839,21.318 L24.839,35.751 C24.839,36.571 24.162,37.235 23.327,37.235 C22.491,37.235 21.816,36.571 21.816,35.751 L21.816,19.835 C21.816,19.016 22.491,18.351 23.327,18.351 L32.591,18.351 C33.427,18.351 34.103,19.016 34.103,19.835 L34.103,35.751 C34.103,36.571 33.427,37.235 32.591,37.235 ZM14.063,37.235 C13.228,37.235 12.551,36.571 12.551,35.751 L12.551,13.361 L6.309,13.361 L6.309,35.751 C6.309,36.571 5.633,37.235 4.798,37.235 C3.963,37.235 3.286,36.571 3.286,35.751 L3.286,11.877 C3.286,11.058 3.963,10.393 4.798,10.393 L14.063,10.393 C14.898,10.393 15.574,11.058 15.574,11.877 L15.574,35.751 C15.574,36.571 14.898,37.235 14.063,37.235 Z"/>
</svg>