<svg xmlns="http://www.w3.org/2000/svg" xmlns:xlink="http://www.w3.org/1999/xlink" width="80" height="80" viewBox="0 0 80 80">
	<defs>
		<clipPath id="a" transform="translate(0 0)">
			<rect width="80" height="80" style="fill:none"/>
		</clipPath>
	</defs>
	<g style="clip-path:url(#a)">
		<path d="M48,30.18H46a.57.57,0,0,0-.56.57v7.54l-5.82-7.85-.05-.06h0l0,0h0l0,0,0,0,0,0h-.06l0,0H37.07a.57.57,0,0,0-.56.57V43.44a.56.56,0,0,0,.56.57h2a.56.56,0,0,0,.56-.57V35.9l5.83,7.87a.62.62,0,0,0,.14.14h0l0,0h0l0,0h.09L46,44h2a.56.56,0,0,0,.57-.57V30.75a.57.57,0,0,0-.57-.57" transform="translate(0 0)" style="fill:#fff"/>
		<path d="M29,40.83H23.48V30.75a.58.58,0,0,0-.57-.57H20.86a.57.57,0,0,0-.56.57V43.44h0a.55.55,0,0,0,.16.39h0a.55.55,0,0,0,.39.16H29a.57.57,0,0,0,.56-.57v-2a.56.56,0,0,0-.56-.57" transform="translate(0 0)" style="fill:#fff"/>
		<path d="M34,30.18h-2a.58.58,0,0,0-.57.57V43.44a.57.57,0,0,0,.57.57h2a.56.56,0,0,0,.57-.57V30.75a.57.57,0,0,0-.57-.57" transform="translate(0 0)" style="fill:#fff"/>
		<path d="M59.3,30.18H51.13a.6.6,0,0,0-.39.16h0a.55.55,0,0,0-.16.39h0V43.44h0a.55.55,0,0,0,.16.39h0a.55.55,0,0,0,.39.16H59.3a.57.57,0,0,0,.56-.57v-2a.56.56,0,0,0-.56-.57H53.75V38.69H59.3a.57.57,0,0,0,.56-.57v-2a.56.56,0,0,0-.56-.57H53.75V33.36H59.3a.56.56,0,0,0,.56-.57v-2a.57.57,0,0,0-.56-.57" transform="translate(0 0)" style="fill:#fff"/>
		<path d="M74,0H6A6,6,0,0,0,0,6V74a6,6,0,0,0,6,6H74a6,6,0,0,0,6-6V6a6,6,0,0,0-6-6M62.76,51c-6.12,7-19.78,15.6-22.89,16.91s-2.65-.84-2.52-1.57c.07-.44.41-2.5.41-2.5a6,6,0,0,0-.09-2.63c-.33-.81-1.62-1.23-2.57-1.44C21.11,58,10.74,48.17,10.74,36.48c0-13,13.07-23.63,29.13-23.63S69,23.45,69,36.48C69,41.7,67,46.4,62.75,51Z" transform="translate(0 0)" style="fill:#fff"/>
	</g>
</svg>