<svg xmlns="http://www.w3.org/2000/svg" width="86.88" height="86.88" viewBox="0 0 86.88 86.88">
	<path d="M80.44,0h-74A6.32,6.32,0,0,0,0,6.26V80.6a6.33,6.33,0,0,0,6.41,6.28h74a6.36,6.36,0,0,0,6.44-6.28V6.26A6.35,6.35,0,0,0,80.44,0M25.78,74H12.87V32.56H25.78ZM19.33,26.9a7.48,7.48,0,1,1,7.48-7.48,7.48,7.48,0,0,1-7.48,7.48M74,74H61.14V53.87c0-4.82-.09-11-6.69-11s-7.73,5.25-7.73,10.66V74H33.85V32.56H46.21v5.67h.18c1.7-3.24,5.92-6.7,12.18-6.7C71.62,31.53,74,40.13,74,51.28Z" style="fill:#fff"></path>
</svg>