<svg xmlns="http://www.w3.org/2000/svg" xmlns:xlink="http://www.w3.org/1999/xlink" width="19.24" height="24" viewBox="0 0 19.24 24">
	<defs>
		<clipPath id="a" transform="translate(0 0)">
			<rect width="19.25" height="24" style="fill:none"/>
		</clipPath>
	</defs>
	<g style="clip-path:url(#a)">
		<path d="M9.62,24a3.15,3.15,0,0,1-1.08-.19,3.22,3.22,0,0,1-2-2,.5.5,0,0,1,.3-.63.49.49,0,0,1,.62.3,2.26,2.26,0,0,0,4.26,0,.49.49,0,1,1,.92.33A3.24,3.24,0,0,1,9.62,24" transform="translate(0 0)" style="fill:#e65550"/>
		<path d="M18.76,18.94H.49A.49.49,0,0,1,0,18.45V15.82a4.37,4.37,0,0,1,1.08-2.31,3.64,3.64,0,0,0,.75-1.34V9.51a7.79,7.79,0,0,1,5-7.24,2.92,2.92,0,0,1,5.7,0,7.8,7.8,0,0,1,4.93,7.24.49.49,0,0,1-1,0A6.83,6.83,0,0,0,11.9,3.09a.5.5,0,0,1-.33-.4,1.94,1.94,0,0,0-3.86,0,.49.49,0,0,1-.33.4A6.83,6.83,0,0,0,2.8,9.52v2.65a3.81,3.81,0,0,1-.92,1.91A3.87,3.87,0,0,0,1,15.82V18H18.27V15.82a3.7,3.7,0,0,0-.86-1.65A7.81,7.81,0,0,1,16.66,13a.49.49,0,1,1,.89-.41,6.45,6.45,0,0,0,.66,1,4.16,4.16,0,0,1,1,2.22v2.63a.49.49,0,0,1-.49.49" transform="translate(0 0)" style="fill:#e65550"/>
	</g>
</svg>