<svg
 xmlns="http://www.w3.org/2000/svg"
 xmlns:xlink="http://www.w3.org/1999/xlink"
 width="24px" height="31px" viewBox="0 0 24 31">
<path fill-rule="evenodd"  fill="#666"
 d="M13.782,17.671 C14.133,17.971 14.581,18.221 15.015,18.450 C15.985,18.326 16.907,18.264 17.673,18.272 C18.804,18.286 19.548,18.446 19.883,18.748 C20.003,18.855 20.113,19.012 20.131,19.139 C20.190,19.564 20.146,19.981 19.927,20.283 C19.815,20.437 19.633,20.550 19.416,20.603 C19.275,20.637 19.102,20.654 18.901,20.654 C17.771,20.654 15.980,20.133 14.524,19.381 C12.614,19.643 10.434,20.117 8.519,20.690 C6.860,23.341 5.656,24.524 4.619,24.524 C4.426,24.524 4.237,24.481 4.058,24.400 L3.645,24.209 C3.386,24.074 3.348,23.781 3.399,23.551 C3.559,22.834 4.524,21.931 5.980,21.134 C6.151,21.039 6.883,20.685 6.914,20.670 L7.341,20.463 C7.755,19.815 8.211,19.050 8.713,18.148 L8.776,18.037 C9.253,17.179 9.795,16.208 10.227,15.242 L10.382,14.899 C9.778,12.786 9.445,11.156 9.768,10.066 C9.874,9.718 10.279,9.485 10.775,9.485 L10.782,9.485 L11.043,9.493 C11.488,9.476 11.772,9.799 11.917,10.105 L11.963,10.214 C12.001,10.314 12.013,10.351 12.032,10.480 C12.173,11.416 11.641,14.186 11.641,14.186 C11.616,14.289 11.588,14.390 11.556,14.505 C12.048,15.739 12.837,16.861 13.782,17.671 ZM18.979,19.835 C19.167,19.835 19.459,19.801 19.561,19.742 C19.664,19.684 19.656,19.401 19.060,19.262 C18.465,19.123 18.285,19.126 17.676,19.126 C17.343,19.126 16.972,19.140 16.568,19.167 C17.621,19.581 18.372,19.835 18.979,19.835 ZM6.439,21.562 C5.332,22.393 4.584,23.328 4.395,23.803 C4.904,23.591 5.680,22.917 6.837,21.226 C6.680,21.363 6.509,21.510 6.439,21.562 ZM10.950,9.975 C10.797,9.975 10.811,11.068 10.811,11.068 C10.811,11.640 10.902,12.514 11.091,13.069 C11.320,12.694 11.504,12.187 11.489,11.466 C11.473,10.745 11.283,9.975 10.950,9.975 ZM10.980,16.092 C10.697,16.763 10.317,17.578 9.715,18.620 C9.468,19.047 9.227,19.448 8.995,19.829 C10.270,19.380 11.718,19.010 13.394,18.707 C13.280,18.627 13.171,18.547 13.068,18.467 C12.244,17.827 11.543,17.030 10.980,16.092 ZM22.414,12.182 C23.032,12.182 23.534,12.682 23.534,13.301 L23.534,26.794 C23.534,28.586 22.074,30.042 20.280,30.042 L3.240,30.042 C1.446,30.042 -0.014,28.586 -0.014,26.794 L-0.014,4.068 C-0.014,2.276 1.446,0.817 3.240,0.817 L14.589,0.817 C14.735,0.817 14.880,0.847 15.017,0.903 C15.146,0.957 15.260,1.036 15.359,1.130 C15.366,1.137 15.375,1.138 15.381,1.145 L23.206,8.958 C23.213,8.965 23.214,8.974 23.221,8.979 C23.315,9.080 23.394,9.194 23.448,9.322 C23.561,9.595 23.561,9.904 23.448,10.177 C23.394,10.305 23.315,10.420 23.221,10.518 C23.214,10.525 23.213,10.534 23.206,10.541 C23.199,10.548 23.190,10.549 23.184,10.556 C23.085,10.650 22.971,10.728 22.842,10.782 C22.705,10.838 22.559,10.868 22.414,10.868 L16.012,10.868 C14.218,10.868 12.757,9.410 12.757,7.618 L12.757,3.056 L3.240,3.056 C2.681,3.056 2.226,3.509 2.226,4.068 L2.226,26.794 C2.226,27.352 2.681,27.806 3.240,27.806 L20.280,27.806 C20.839,27.806 21.293,27.352 21.293,26.794 L21.293,13.301 C21.293,12.682 21.795,12.182 22.414,12.182 ZM16.012,8.630 L19.707,8.630 L14.998,3.929 L14.998,7.618 C14.998,8.177 15.453,8.630 16.012,8.630 Z"/>
</svg>