<svg xmlns="http://www.w3.org/2000/svg" width="50" height="50" viewBox="0 0 50 50"><circle cx="25" cy="25" r="25" fill="#8c8787" class="svg-bg"/><path d="M20.36,35.15A14.48,14.48,0,0,0,35,20.56V19.9a10.09,10.09,0,0,0,2.55-2.66,10.07,10.07,0,0,1-3,.81,5.12,5.12,0,0,0,2.26-2.84,10.22,10.22,0,0,1-3.26,1.25c-1.73-1.84-4.81-2.41-7.65-.12a.78.78,0,0,0-.2.24,6.12,6.12,0,0,0-.89,4.55,14.51,14.51,0,0,1-10.56-5.35,5,5,0,0,0-.7,2.57,5.1,5.1,0,0,0,2.28,4.27A4.94,4.94,0,0,1,13.51,22a.2.2,0,0,0,0,.07,5.13,5.13,0,0,0,4.12,5,5.06,5.06,0,0,1-1.35.19,6.25,6.25,0,0,1-1-.09,5.14,5.14,0,0,0,4.8,3.55,10.29,10.29,0,0,1-6.38,2.2c-.41,0-.82,0-1.22-.07a14.54,14.54,0,0,0,7.86,2.3" fill="#fff" class="svg-main"/></svg>