<svg xmlns="http://www.w3.org/2000/svg" width="86.87" height="86.88" viewBox="0 0 86.87 86.88">
	<path d="M82,86.88H4.87A4.87,4.87,0,0,1,0,82V4.85A4.85,4.85,0,0,1,4.87,0H82a4.86,4.86,0,0,1,4.86,4.85V82A4.88,4.88,0,0,1,82,86.88M33.36,65.49c20.49,0,31.69-17,31.69-31.7,0-.47,0-1,0-1.43a22.39,22.39,0,0,0,5.55-5.77,22.72,22.72,0,0,1-6.41,1.76,11.2,11.2,0,0,0,4.91-6.18A22.25,22.25,0,0,1,62,24.89c-3.76-4-10.46-5.23-16.61-.26a1.52,1.52,0,0,0-.44.51A13.2,13.2,0,0,0,43,35a31.54,31.54,0,0,1-23-11.64,11.19,11.19,0,0,0,3.44,14.88,11,11,0,0,1-5-1.39.34.34,0,0,0,0,.14A11.16,11.16,0,0,0,27.4,48a11.44,11.44,0,0,1-2.93.4,12.15,12.15,0,0,1-2.1-.2,11.17,11.17,0,0,0,10.41,7.73,22.43,22.43,0,0,1-13.85,4.76,25.47,25.47,0,0,1-2.64-.15,31.55,31.55,0,0,0,17.07,5" style="fill:#fff"></path>
</svg>