<svg
 xmlns="http://www.w3.org/2000/svg"
 xmlns:xlink="http://www.w3.org/1999/xlink"
 width="28px" height="26568px" viewBox="0 0 28 26568">
<path fill-rule="evenodd"  stroke-width="1px" stroke="rgb(222, 222, 222)" fill="rgb(222, 222, 222)"
 d="M14.266,26042.198 C9.260,26067.838 4.083,26094.351 4.083,26146.498 C4.083,26198.643 9.260,26225.160 14.266,26250.797 C19.290,26276.532 24.486,26303.145 24.486,26355.501 C24.486,26407.855 19.290,26434.468 14.266,26460.201 C9.260,26485.842 4.083,26512.351 4.083,26564.494 L3.492,26564.494 C3.492,26512.144 8.688,26485.532 13.712,26459.797 C18.718,26434.159 23.894,26407.646 23.894,26355.501 C23.894,26303.357 18.718,26276.843 13.712,26251.202 C8.688,26225.467 3.492,26198.854 3.492,26146.498 C3.492,26146.387 3.492,26146.276 3.492,26146.165 L3.492,26146.165 C3.492,26093.812 8.688,26067.200 13.712,26041.465 C18.718,26015.827 23.894,25989.315 23.894,25937.170 C23.894,25885.023 18.718,25858.511 13.712,25832.873 C8.688,25807.135 3.492,25780.522 3.492,25728.165 C3.492,25728.054 3.492,25727.943 3.492,25727.832 L3.492,25727.832 C3.492,25675.480 8.688,25648.867 13.712,25623.132 C18.718,25597.495 23.894,25570.982 23.894,25518.836 C23.894,25466.694 18.718,25440.181 13.712,25414.540 C8.688,25388.802 3.492,25362.192 3.492,25309.835 C3.492,25309.724 3.492,25309.613 3.492,25309.502 L3.492,25309.502 C3.492,25257.150 8.688,25230.536 13.712,25204.802 C18.718,25179.164 23.894,25152.650 23.894,25100.506 C23.894,25048.361 18.718,25021.849 13.712,24996.208 C8.720,24970.634 3.558,24944.197 3.493,24892.496 L3.492,24892.496 C3.492,24892.330 3.492,24892.164 3.492,24891.998 C3.492,24891.833 3.492,24891.667 3.492,24891.500 C3.492,24839.146 8.688,24812.533 13.712,24786.797 C18.702,24761.241 23.861,24734.815 23.894,24682.999 C23.861,24631.187 18.702,24604.761 13.712,24579.203 C8.688,24553.467 3.492,24526.855 3.492,24474.496 C3.492,24474.386 3.492,24474.276 3.492,24474.166 L3.492,24474.166 C3.492,24421.812 8.688,24395.200 13.712,24369.465 C18.718,24343.828 23.894,24317.314 23.894,24265.171 C23.894,24213.024 18.718,24186.510 13.712,24160.872 C8.688,24135.134 3.492,24108.523 3.492,24056.166 C3.492,24056.055 3.492,24055.945 3.492,24055.834 L3.492,24055.834 C3.492,24003.479 8.688,23976.869 13.712,23951.133 C18.718,23925.495 23.894,23898.983 23.894,23846.838 C23.894,23794.692 18.718,23768.180 13.712,23742.539 C8.688,23716.804 3.492,23690.190 3.492,23637.835 C3.492,23637.724 3.492,23637.613 3.492,23637.502 L3.492,23637.502 C3.492,23585.149 8.688,23558.538 13.712,23532.802 C18.718,23507.164 23.894,23480.651 23.894,23428.508 C23.894,23376.361 18.718,23349.848 13.712,23324.209 C8.688,23298.471 3.492,23271.860 3.492,23219.502 C3.492,23219.166 3.492,23218.831 3.493,23218.496 L3.492,23218.496 C3.492,23166.143 8.688,23139.533 13.712,23113.798 C18.718,23088.157 23.894,23061.649 23.894,23009.503 C23.894,22957.357 18.718,22930.842 13.712,22905.201 C8.688,22879.467 3.492,22852.856 3.492,22800.499 C3.492,22800.388 3.492,22800.277 3.492,22800.166 L3.492,22800.166 C3.492,22747.811 8.688,22721.200 13.712,22695.465 C18.718,22669.826 23.894,22643.315 23.894,22591.170 C23.894,22539.024 18.718,22512.511 13.712,22486.871 C8.688,22461.136 3.492,22434.526 3.492,22382.167 C3.492,22382.055 3.492,22381.944 3.492,22381.833 L3.492,22381.833 C3.492,22329.479 8.688,22302.868 13.712,22277.134 C18.718,22251.496 23.894,22224.983 23.894,22172.838 C23.894,22120.693 18.718,22094.180 13.712,22068.539 C8.688,22042.803 3.492,22016.191 3.492,21963.834 C3.492,21963.723 3.492,21963.612 3.492,21963.501 L3.492,21963.501 C3.492,21911.150 8.688,21884.538 13.712,21858.802 C18.718,21833.163 23.894,21806.651 23.894,21754.506 C23.894,21702.360 18.718,21675.846 13.712,21650.207 C8.720,21624.636 3.558,21598.198 3.493,21546.498 L3.492,21546.498 C3.492,21546.332 3.492,21546.166 3.492,21546.000 C3.492,21545.834 3.492,21545.669 3.492,21545.502 C3.492,21493.147 8.688,21466.535 13.712,21440.797 C18.702,21415.240 23.861,21388.815 23.894,21337.000 C23.861,21285.187 18.702,21258.760 13.712,21233.202 C8.688,21207.467 3.492,21180.855 3.492,21128.498 C3.492,21128.387 3.492,21128.276 3.492,21128.165 L3.492,21128.165 C3.492,21075.812 8.688,21049.200 13.712,21023.464 C18.718,20997.828 23.894,20971.314 23.894,20919.169 C23.894,20867.023 18.718,20840.510 13.712,20814.870 C8.688,20789.135 3.492,20762.524 3.492,20710.168 C3.492,20710.056 3.492,20709.944 3.492,20709.832 L3.492,20709.832 C3.492,20657.481 8.688,20630.869 13.712,20605.133 C18.718,20579.494 23.894,20552.982 23.894,20500.837 C23.894,20448.694 18.718,20422.181 13.712,20396.540 C8.688,20370.803 3.492,20344.191 3.492,20291.833 C3.492,20291.722 3.492,20291.611 3.492,20291.500 L3.492,20291.500 C3.492,20239.148 8.688,20212.538 13.712,20186.800 C18.718,20161.163 23.894,20134.650 23.894,20082.507 C23.894,20030.361 18.718,20003.848 13.712,19978.208 C8.720,19952.635 3.558,19926.197 3.493,19874.497 L3.492,19874.497 C3.492,19874.331 3.492,19874.166 3.492,19874.000 C3.492,19873.835 3.492,19873.669 3.492,19873.503 C3.492,19821.148 8.688,19794.532 13.712,19768.797 C18.702,19743.241 23.861,19716.814 23.894,19665.000 C23.861,19613.186 18.702,19586.761 13.712,19561.203 C8.688,19535.466 3.492,19508.852 3.492,19456.497 C3.492,19456.387 3.492,19456.276 3.492,19456.166 L3.492,19456.166 C3.492,19403.811 8.688,19377.201 13.712,19351.463 C18.718,19325.826 23.894,19299.314 23.894,19247.170 C23.894,19195.025 18.718,19168.512 13.712,19142.871 C8.688,19117.134 3.492,19090.522 3.492,19038.166 C3.492,19038.055 3.492,19037.944 3.492,19037.834 L3.492,19037.834 C3.492,18985.482 8.688,18958.868 13.712,18933.133 C18.718,18907.493 23.894,18880.981 23.894,18828.839 C23.894,18776.693 18.718,18750.179 13.712,18724.539 C8.688,18698.803 3.492,18672.190 3.492,18619.833 C3.492,18619.722 3.492,18619.612 3.492,18619.502 L3.492,18619.502 C3.492,18567.149 8.688,18540.538 13.712,18514.800 C18.718,18489.163 23.894,18462.654 23.894,18410.508 C23.894,18358.361 18.718,18331.847 13.712,18306.209 C8.720,18280.636 3.558,18254.196 3.493,18202.498 L3.492,18202.498 C3.492,18202.332 3.492,18202.166 3.492,18202.000 C3.492,18201.834 3.492,18201.669 3.492,18201.502 C3.492,18149.148 8.688,18122.532 13.712,18096.796 C18.702,18071.240 23.861,18044.815 23.894,17993.000 C23.861,17941.186 18.702,17914.762 13.712,17889.203 C8.688,17863.467 3.492,17836.853 3.492,17784.495 C3.492,17784.385 3.492,17784.274 3.492,17784.164 L3.492,17784.164 C3.492,17731.812 8.688,17705.202 13.712,17679.465 C18.718,17653.825 23.894,17627.316 23.894,17575.170 C23.894,17523.024 18.718,17496.511 13.712,17470.873 C8.688,17445.135 3.492,17418.521 3.492,17366.168 C3.492,17366.056 3.492,17365.945 3.492,17365.833 L3.492,17365.833 C3.492,17313.479 8.688,17286.870 13.712,17261.135 C18.718,17235.492 23.894,17208.983 23.894,17156.840 C23.894,17104.694 18.718,17078.178 13.712,17052.541 C8.688,17026.803 3.492,17000.192 3.492,16947.836 C3.492,16947.724 3.492,16947.613 3.492,16947.501 L3.492,16947.501 C3.492,16895.148 8.688,16868.537 13.712,16842.802 C18.718,16817.162 23.894,16790.652 23.894,16738.507 C23.894,16686.361 18.718,16659.848 13.712,16634.208 C8.688,16608.470 3.492,16581.861 3.492,16529.504 C3.492,16529.167 3.492,16528.831 3.493,16528.495 L3.492,16528.495 C3.492,16476.145 8.688,16449.532 13.712,16423.797 C18.718,16398.157 23.894,16371.647 23.894,16319.502 C23.894,16267.356 18.718,16240.843 13.712,16215.202 C8.688,16189.468 3.492,16162.854 3.492,16110.498 C3.492,16110.386 3.492,16110.275 3.492,16110.164 L3.492,16110.164 C3.492,16057.812 8.688,16031.202 13.712,16005.466 C18.718,15979.827 23.894,15953.315 23.894,15901.170 C23.894,15849.027 18.718,15822.510 13.712,15796.871 C8.688,15771.135 3.492,15744.524 3.492,15692.166 C3.492,15692.055 3.492,15691.944 3.492,15691.833 L3.492,15691.833 C3.492,15639.481 8.688,15612.870 13.712,15587.135 C18.718,15561.496 23.894,15534.983 23.894,15482.840 C23.894,15430.694 18.718,15404.178 13.712,15378.540 C8.688,15352.802 3.492,15326.191 3.492,15273.835 C3.492,15273.723 3.492,15273.612 3.492,15273.500 L3.492,15273.500 C3.492,15221.148 8.688,15194.537 13.712,15168.800 C18.718,15143.165 23.894,15116.650 23.894,15064.506 C23.894,15012.362 18.718,14985.846 13.712,14960.208 C8.720,14934.635 3.558,14908.196 3.493,14856.496 L3.492,14856.496 C3.492,14856.330 3.492,14856.165 3.492,14856.000 C3.492,14855.835 3.492,14855.670 3.492,14855.504 C3.492,14803.148 8.688,14776.533 13.712,14750.798 C18.702,14725.239 23.861,14698.815 23.894,14647.000 C23.861,14595.187 18.702,14568.758 13.712,14543.204 C8.688,14517.467 3.492,14490.855 3.492,14438.499 C3.492,14438.387 3.492,14438.275 3.492,14438.163 L3.492,14438.163 C3.492,14385.811 8.688,14359.200 13.712,14333.466 C18.718,14307.826 23.894,14281.314 23.894,14229.171 C23.894,14177.026 18.718,14150.510 13.712,14124.871 C8.688,14099.134 3.492,14072.523 3.492,14020.166 C3.492,14020.055 3.492,14019.944 3.492,14019.834 L3.492,14019.834 C3.492,13967.481 8.688,13940.869 13.712,13915.131 C18.718,13889.496 23.894,13862.981 23.894,13810.839 C23.894,13758.692 18.718,13732.179 13.712,13706.540 C8.688,13680.801 3.492,13654.191 3.492,13601.835 C3.492,13601.724 3.492,13601.613 3.492,13601.502 L3.492,13601.502 C3.492,13549.149 8.688,13522.538 13.712,13496.800 C18.718,13471.163 23.894,13444.650 23.894,13392.506 C23.894,13340.361 18.718,13313.848 13.712,13288.207 C8.688,13262.471 3.492,13235.858 3.492,13183.504 C3.492,13131.148 8.688,13104.535 13.712,13078.797 C18.718,13053.156 23.894,13026.643 23.894,12974.498 L24.486,12974.498 C24.486,13026.854 19.290,13053.466 14.266,13079.203 C9.260,13104.843 4.083,13131.355 4.083,13183.504 C4.083,13235.648 9.260,13262.163 14.266,13287.802 C19.290,13313.538 24.486,13340.150 24.486,13392.506 C24.486,13392.614 24.486,13392.721 24.486,13392.829 L24.486,13392.829 C24.486,13445.185 19.290,13471.799 14.266,13497.534 C9.260,13523.176 4.083,13549.689 4.083,13601.835 C4.083,13653.980 9.260,13680.493 14.266,13706.133 C19.290,13731.871 24.486,13758.481 24.486,13810.839 C24.486,13810.947 24.486,13811.054 24.486,13811.162 L24.486,13811.162 C24.486,13863.518 19.290,13890.130 14.266,13915.868 C9.260,13941.506 4.083,13968.018 4.083,14020.166 C4.083,14072.313 9.260,14098.826 14.266,14124.465 C19.290,14150.202 24.486,14176.814 24.486,14229.171 C24.486,14229.278 24.486,14229.385 24.486,14229.492 L24.486,14229.492 C24.486,14281.848 19.290,14308.462 14.266,14334.199 C9.260,14359.840 4.083,14386.351 4.083,14438.499 C4.083,14490.644 9.260,14517.158 14.266,14542.798 C19.258,14568.368 24.419,14594.805 24.485,14646.499 L24.486,14646.499 C24.486,14646.666 24.486,14646.833 24.486,14647.000 C24.486,14647.167 24.486,14647.334 24.486,14647.501 C24.486,14699.856 19.290,14726.466 14.266,14752.204 C9.276,14777.759 4.116,14804.184 4.084,14856.000 C4.116,14907.817 9.276,14934.246 14.266,14959.803 C19.290,14985.540 24.486,15012.150 24.486,15064.506 C24.486,15064.614 24.486,15064.721 24.486,15064.829 L24.486,15064.829 C24.486,15117.185 19.290,15143.798 14.266,15169.535 C9.260,15195.177 4.083,15221.689 4.083,15273.835 C4.083,15325.981 9.260,15352.494 14.266,15378.134 C19.290,15403.871 24.486,15430.481 24.486,15482.840 C24.486,15482.948 24.486,15483.055 24.486,15483.162 L24.486,15483.162 C24.486,15535.518 19.290,15562.131 14.266,15587.868 C9.260,15613.507 4.083,15640.019 4.083,15692.166 C4.083,15744.311 9.260,15770.827 14.266,15796.465 C19.290,15822.203 24.486,15848.814 24.486,15901.170 C24.486,15901.278 24.486,15901.385 24.486,15901.493 L24.486,15901.493 C24.486,15953.849 19.290,15980.461 14.266,16006.197 C9.260,16031.840 4.083,16058.352 4.083,16110.498 C4.083,16162.644 9.260,16189.157 14.266,16214.797 C19.290,16240.532 24.486,16267.144 24.486,16319.502 C24.486,16319.836 24.486,16320.169 24.485,16320.500 L24.486,16320.500 C24.486,16372.854 19.290,16399.466 14.266,16425.203 C9.260,16450.842 4.083,16477.357 4.083,16529.504 C4.083,16581.650 9.260,16608.162 14.266,16633.803 C19.290,16659.540 24.486,16686.151 24.486,16738.507 C24.486,16738.615 24.486,16738.723 24.486,16738.831 L24.486,16738.831 C24.486,16791.187 19.290,16817.799 14.266,16843.534 C9.260,16869.174 4.083,16895.690 4.083,16947.836 C4.083,16999.982 9.260,17026.494 14.266,17052.135 C19.290,17077.870 24.486,17104.483 24.486,17156.840 C24.486,17156.948 24.486,17157.055 24.486,17157.162 L24.486,17157.162 C24.486,17209.517 19.290,17236.130 14.266,17261.868 C9.260,17287.507 4.083,17314.020 4.083,17366.168 C4.083,17418.312 9.260,17444.827 14.266,17470.464 C19.290,17496.200 24.486,17522.814 24.486,17575.170 C24.486,17575.278 24.486,17575.385 24.486,17575.493 L24.486,17575.493 C24.486,17627.847 19.290,17654.463 14.266,17680.198 C9.260,17705.839 4.083,17732.351 4.083,17784.495 C4.083,17836.643 9.260,17863.156 14.266,17888.797 C19.257,17914.367 24.419,17940.805 24.485,17992.498 L24.486,17992.498 C24.486,17992.666 24.486,17992.833 24.486,17993.000 C24.486,17993.167 24.486,17993.334 24.486,17993.502 C24.486,18045.855 19.290,18072.468 14.266,18098.203 C9.276,18123.758 4.116,18150.184 4.084,18202.000 C4.116,18253.817 9.276,18280.245 14.266,18305.801 C19.290,18331.539 24.486,18358.152 24.486,18410.508 C24.486,18410.615 24.486,18410.723 24.486,18410.830 L24.486,18410.830 C24.486,18463.186 19.290,18489.799 14.266,18515.535 C9.260,18541.176 4.083,18567.689 4.083,18619.833 C4.083,18671.980 9.260,18698.496 14.266,18724.132 C19.290,18749.869 24.486,18776.481 24.486,18828.839 C24.486,18828.947 24.486,18829.054 24.486,18829.162 L24.486,18829.162 C24.486,18881.516 19.290,18908.129 14.266,18933.868 C9.260,18959.508 4.083,18986.017 4.083,19038.166 C4.083,19090.311 9.260,19116.825 14.266,19142.466 C19.290,19168.201 24.486,19194.814 24.486,19247.170 C24.486,19247.278 24.486,19247.386 24.486,19247.494 L24.486,19247.494 C24.486,19299.849 19.290,19326.461 14.266,19352.196 C9.260,19377.840 4.083,19404.351 4.083,19456.497 C4.083,19508.644 9.260,19535.158 14.266,19560.796 C19.258,19586.369 24.419,19612.805 24.485,19664.498 L24.486,19664.498 C24.486,19664.665 24.486,19664.833 24.486,19665.000 C24.486,19665.167 24.486,19665.334 24.486,19665.501 C24.486,19717.856 19.290,19744.466 14.266,19770.202 C9.276,19795.760 4.116,19822.185 4.084,19874.000 C4.116,19925.816 9.276,19952.243 14.266,19977.802 C19.290,20003.537 24.486,20030.151 24.486,20082.507 C24.486,20082.615 24.486,20082.722 24.486,20082.829 L24.486,20082.829 C24.486,20135.187 19.290,20161.798 14.266,20187.535 C9.260,20213.176 4.083,20239.687 4.083,20291.833 C4.083,20343.980 9.260,20370.495 14.266,20396.132 C19.290,20421.870 24.486,20448.481 24.486,20500.837 C24.486,20500.945 24.486,20501.053 24.486,20501.161 L24.486,20501.161 C24.486,20553.517 19.290,20580.130 14.266,20605.865 C9.260,20631.507 4.083,20658.018 4.083,20710.168 C4.083,20762.311 9.260,20788.826 14.266,20814.467 C19.290,20840.202 24.486,20866.815 24.486,20919.169 C24.486,20919.278 24.486,20919.386 24.486,20919.494 L24.486,20919.494 C24.486,20971.849 19.290,20998.463 14.266,21024.197 C9.260,21049.839 4.083,21076.353 4.083,21128.498 C4.083,21180.644 9.260,21207.159 14.266,21232.797 C19.257,21258.370 24.419,21284.806 24.485,21336.497 L24.486,21336.497 C24.486,21336.665 24.486,21336.832 24.486,21337.000 C24.486,21337.167 24.486,21337.334 24.486,21337.502 C24.486,21389.855 19.290,21416.467 14.266,21442.201 C9.276,21467.761 4.116,21494.184 4.084,21546.000 C4.116,21597.817 9.276,21624.245 14.266,21649.801 C19.290,21675.536 24.486,21702.150 24.486,21754.506 C24.486,21754.615 24.486,21754.723 24.486,21754.832 L24.486,21754.832 C24.486,21807.183 19.290,21833.799 14.266,21859.535 C9.260,21885.174 4.083,21911.687 4.083,21963.834 C4.083,22015.979 9.260,22042.495 14.266,22068.134 C19.290,22093.871 24.486,22120.482 24.486,22172.838 C24.486,22172.946 24.486,22173.054 24.486,22173.162 L24.486,22173.162 C24.486,22225.516 19.290,22252.130 14.266,22277.866 C9.260,22303.507 4.083,22330.021 4.083,22382.167 C4.083,22434.313 9.260,22460.825 14.266,22486.467 C19.290,22512.201 24.486,22538.813 24.486,22591.170 C24.486,22591.278 24.486,22591.387 24.486,22591.495 L24.486,22591.495 C24.486,22643.848 19.290,22670.462 14.266,22696.199 C9.260,22721.838 4.083,22748.353 4.083,22800.499 C4.083,22852.644 9.260,22879.157 14.266,22904.798 C19.290,22930.534 24.486,22957.146 24.486,23009.503 C24.486,23009.836 24.486,23010.168 24.485,23010.500 L24.486,23010.500 C24.486,23062.853 19.290,23089.468 14.266,23115.202 C9.260,23140.844 4.083,23167.358 4.083,23219.502 C4.083,23271.648 9.260,23298.163 14.266,23323.801 C19.290,23349.538 24.486,23376.150 24.486,23428.508 C24.486,23428.616 24.486,23428.724 24.486,23428.831 L24.486,23428.831 C24.486,23481.186 19.290,23507.799 14.266,23533.535 C9.260,23559.175 4.083,23585.689 4.083,23637.835 C4.083,23689.982 9.260,23716.495 14.266,23742.133 C19.290,23767.871 24.486,23794.482 24.486,23846.838 C24.486,23846.946 24.486,23847.053 24.486,23847.161 L24.486,23847.161 C24.486,23899.516 19.290,23926.132 14.266,23951.866 C9.260,23977.508 4.083,24004.020 4.083,24056.166 C4.083,24108.312 9.260,24134.825 14.266,24160.465 C19.290,24186.203 24.486,24212.815 24.486,24265.171 C24.486,24265.279 24.486,24265.386 24.486,24265.494 L24.486,24265.494 C24.486,24317.849 19.290,24344.462 14.266,24370.197 C9.260,24395.840 4.083,24422.351 4.083,24474.496 C4.083,24526.644 9.260,24553.159 14.266,24578.796 C19.258,24604.368 24.419,24630.805 24.485,24682.498 L24.486,24682.498 C24.486,24682.665 24.486,24682.832 24.486,24682.999 C24.486,24683.166 24.486,24683.333 24.486,24683.500 C24.486,24735.855 19.290,24762.466 14.266,24788.203 C9.276,24813.759 4.116,24840.182 4.084,24891.998 C4.116,24943.815 9.276,24970.244 14.266,24995.802 C19.290,25021.538 24.486,25048.151 24.486,25100.506 C24.486,25100.614 24.486,25100.722 24.486,25100.831 L24.486,25100.831 C24.486,25153.185 19.290,25179.798 14.266,25205.533 C9.260,25231.176 4.083,25257.687 4.083,25309.835 C4.083,25361.980 9.260,25388.495 14.266,25414.134 C19.290,25439.871 24.486,25466.483 24.486,25518.836 C24.486,25518.945 24.486,25519.053 24.486,25519.161 L24.486,25519.161 C24.486,25571.517 19.290,25598.131 14.266,25623.865 C9.260,25649.509 4.083,25676.020 4.083,25728.165 C4.083,25780.311 9.260,25806.826 14.266,25832.465 C19.290,25858.203 24.486,25884.815 24.486,25937.170 C24.486,25937.279 24.486,25937.386 24.486,25937.494 L24.486,25937.494 C24.486,25989.850 19.290,26016.463 14.266,26042.198 Z"/>
<path fill-rule="evenodd"  stroke-width="1px" stroke="rgb(222, 222, 222)" fill="rgb(222, 222, 222)"
 d="M14.266,13071.200 C9.260,13096.837 4.083,13123.353 4.083,13175.499 C4.083,13227.643 9.260,13254.158 14.266,13279.797 C19.290,13305.534 24.486,13332.145 24.486,13384.503 C24.486,13436.857 19.290,13463.468 14.266,13489.202 C9.260,13514.841 4.083,13541.352 4.083,13593.496 L3.492,13593.496 C3.492,13541.143 8.688,13514.533 13.712,13488.797 C18.718,13463.156 23.894,13436.647 23.894,13384.503 C23.894,13332.356 18.718,13305.842 13.712,13280.204 C8.688,13254.466 3.492,13227.854 3.492,13175.499 C3.492,13175.387 3.492,13175.276 3.492,13175.165 L3.492,13175.165 C3.492,13122.812 8.688,13096.200 13.712,13070.464 C18.718,13044.825 23.894,13018.314 23.894,12966.171 C23.894,12914.023 18.718,12887.510 13.712,12861.872 C8.688,12836.135 3.492,12809.523 3.492,12757.167 C3.492,12757.055 3.492,12756.944 3.492,12756.832 L3.492,12756.832 C3.492,12704.479 8.688,12677.868 13.712,12652.133 C18.718,12626.496 23.894,12599.983 23.894,12547.838 C23.894,12495.693 18.718,12469.177 13.712,12443.539 C8.688,12417.804 3.492,12391.192 3.492,12338.835 C3.492,12338.723 3.492,12338.612 3.492,12338.501 L3.492,12338.501 C3.492,12286.149 8.688,12259.536 13.712,12233.804 C18.718,12208.164 23.894,12181.651 23.894,12129.506 C23.894,12077.361 18.718,12050.849 13.712,12025.209 C8.720,11999.635 3.558,11973.198 3.493,11921.496 L3.492,11921.496 C3.492,11921.330 3.492,11921.165 3.492,11920.999 C3.492,11920.834 3.492,11920.668 3.492,11920.502 C3.492,11868.146 8.688,11841.532 13.712,11815.798 C18.702,11790.240 23.861,11763.816 23.894,11712.000 C23.861,11660.187 18.702,11633.760 13.712,11608.202 C8.688,11582.466 3.492,11555.856 3.492,11503.498 C3.492,11503.387 3.492,11503.276 3.492,11503.165 L3.492,11503.165 C3.492,11450.812 8.688,11424.201 13.712,11398.464 C18.718,11372.829 23.894,11346.314 23.894,11294.170 C23.894,11242.023 18.718,11215.511 13.712,11189.871 C8.688,11164.135 3.492,11137.523 3.492,11085.168 C3.492,11085.056 3.492,11084.944 3.492,11084.833 L3.492,11084.833 C3.492,11032.480 8.688,11005.870 13.712,10980.133 C18.718,10954.495 23.894,10927.983 23.894,10875.837 C23.894,10823.692 18.718,10797.179 13.712,10771.538 C8.688,10745.804 3.492,10719.190 3.492,10666.834 C3.492,10666.723 3.492,10666.611 3.492,10666.500 L3.492,10666.500 C3.492,10614.149 8.688,10587.538 13.712,10561.803 C18.718,10536.165 23.894,10509.650 23.894,10457.507 C23.894,10405.361 18.718,10378.849 13.712,10353.208 C8.688,10327.471 3.492,10300.860 3.492,10248.503 C3.492,10248.166 3.492,10247.831 3.493,10247.496 L3.492,10247.496 C3.492,10195.143 8.688,10168.532 13.712,10142.795 C18.718,10117.158 23.894,10090.645 23.894,10038.502 C23.894,9986.356 18.718,9959.841 13.712,9934.202 C8.688,9908.464 3.492,9881.854 3.492,9829.499 C3.492,9829.388 3.492,9829.277 3.492,9829.166 L3.492,9829.166 C3.492,9776.813 8.688,9750.199 13.712,9724.464 C18.718,9698.827 23.894,9672.314 23.894,9620.170 C23.894,9568.024 18.718,9541.511 13.712,9515.871 C8.688,9490.135 3.492,9463.523 3.492,9411.166 C3.492,9411.055 3.492,9410.944 3.492,9410.833 L3.492,9410.833 C3.492,9358.480 8.688,9331.868 13.712,9306.133 C18.718,9280.494 23.894,9253.983 23.894,9201.838 C23.894,9149.694 18.718,9123.179 13.712,9097.540 C8.688,9071.803 3.492,9045.189 3.492,8992.835 C3.492,8992.723 3.492,8992.612 3.492,8992.501 L3.492,8992.501 C3.492,8940.149 8.688,8913.538 13.712,8887.803 C18.718,8862.162 23.894,8835.653 23.894,8783.507 C23.894,8731.361 18.718,8704.846 13.712,8679.209 C8.720,8653.636 3.558,8627.196 3.493,8575.498 L3.492,8575.498 C3.492,8575.332 3.492,8575.167 3.492,8575.001 C3.492,8574.836 3.492,8574.670 3.492,8574.504 C3.492,8522.147 8.688,8495.534 13.712,8469.796 C18.702,8444.239 23.861,8417.815 23.894,8365.999 C23.861,8314.185 18.702,8287.760 13.712,8262.204 C8.688,8236.466 3.492,8209.852 3.492,8157.497 C3.492,8157.386 3.492,8157.275 3.492,8157.164 L3.492,8157.164 C3.492,8104.812 8.688,8078.201 13.712,8052.466 C18.718,8026.826 23.894,8000.314 23.894,7948.171 C23.894,7896.023 18.718,7869.509 13.712,7843.872 C8.688,7818.137 3.492,7791.523 3.492,7739.168 C3.492,7739.056 3.492,7738.945 3.492,7738.834 L3.492,7738.834 C3.492,7686.478 8.688,7659.869 13.712,7634.134 C18.718,7608.493 23.894,7581.984 23.894,7529.838 C23.894,7477.694 18.718,7451.181 13.712,7425.539 C8.688,7399.805 3.492,7373.191 3.492,7320.835 C3.492,7320.723 3.492,7320.612 3.492,7320.501 L3.492,7320.501 C3.492,7268.149 8.688,7241.536 13.712,7215.802 C18.718,7190.164 23.894,7163.651 23.894,7111.509 C23.894,7059.361 18.718,7032.848 13.712,7007.207 C8.720,6981.635 3.558,6955.198 3.493,6903.498 L3.492,6903.498 C3.492,6903.332 3.492,6903.167 3.492,6903.001 C3.492,6902.836 3.492,6902.671 3.492,6902.505 C3.492,6850.148 8.688,6823.534 13.712,6797.797 C18.702,6772.238 23.861,6745.816 23.894,6694.001 C23.861,6642.185 18.702,6615.760 13.712,6590.203 C8.688,6564.468 3.492,6537.854 3.492,6485.498 C3.492,6485.386 3.492,6485.275 3.492,6485.163 L3.492,6485.163 C3.492,6432.813 8.688,6406.203 13.712,6380.465 C18.718,6354.827 23.894,6328.315 23.894,6276.170 C23.894,6224.025 18.718,6197.509 13.712,6171.871 C8.688,6146.136 3.492,6119.523 3.492,6067.167 C3.492,6067.056 3.492,6066.944 3.492,6066.833 L3.492,6066.833 C3.492,6014.480 8.688,5987.870 13.712,5962.135 C18.718,5936.495 23.894,5909.983 23.894,5857.838 C23.894,5805.692 18.718,5779.179 13.712,5753.538 C8.688,5727.804 3.492,5701.190 3.492,5648.834 C3.492,5648.723 3.492,5648.612 3.492,5648.501 L3.492,5648.501 C3.492,5596.148 8.688,5569.537 13.712,5543.800 C18.718,5518.164 23.894,5491.651 23.894,5439.507 C23.894,5387.360 18.718,5360.847 13.712,5335.208 C8.720,5309.634 3.558,5283.197 3.493,5231.496 L3.492,5231.496 C3.492,5231.330 3.492,5231.165 3.492,5231.000 C3.492,5230.835 3.492,5230.670 3.492,5230.504 C3.492,5178.147 8.688,5151.533 13.712,5125.798 C18.702,5100.238 23.861,5073.815 23.894,5022.001 C23.861,4970.188 18.702,4943.760 13.712,4918.205 C8.688,4892.467 3.492,4865.854 3.492,4813.497 C3.492,4813.385 3.492,4813.274 3.492,4813.163 L3.492,4813.163 C3.492,4760.811 8.688,4734.202 13.712,4708.464 C18.718,4682.826 23.894,4656.315 23.894,4604.169 C23.894,4552.026 18.718,4525.510 13.712,4499.870 C8.688,4474.134 3.492,4447.523 3.492,4395.165 C3.492,4395.054 3.492,4394.943 3.492,4394.832 L3.492,4394.832 C3.492,4342.479 8.688,4315.869 13.712,4290.134 C18.718,4264.494 23.894,4237.981 23.894,4185.836 C23.894,4133.691 18.718,4107.180 13.712,4081.540 C8.688,4055.802 3.492,4029.191 3.492,3976.834 C3.492,3976.723 3.492,3976.613 3.492,3976.503 L3.492,3976.503 C3.492,3924.149 8.688,3897.536 13.712,3871.799 C18.718,3846.164 23.894,3819.649 23.894,3767.507 C23.894,3715.361 18.718,3688.849 13.712,3663.208 C8.688,3637.471 3.492,3610.858 3.492,3558.502 C3.492,3558.166 3.492,3557.831 3.493,3557.497 L3.492,3557.497 C3.492,3505.144 8.688,3478.531 13.712,3452.797 C18.718,3427.158 23.894,3400.646 23.894,3348.501 C23.894,3296.355 18.718,3269.842 13.712,3244.202 C8.688,3218.468 3.492,3191.853 3.492,3139.499 C3.492,3139.387 3.492,3139.276 3.492,3139.165 L3.492,3139.165 C3.492,3086.811 8.688,3060.198 13.712,3034.466 C18.718,3008.826 23.894,2982.315 23.894,2930.171 C23.894,2878.026 18.718,2851.510 13.712,2825.871 C8.688,2800.135 3.492,2773.523 3.492,2721.167 C3.492,2721.056 3.492,2720.946 3.492,2720.835 L3.492,2720.835 C3.492,2668.482 8.688,2641.868 13.712,2616.134 C18.718,2590.496 23.894,2563.984 23.894,2511.839 C23.894,2459.692 18.718,2433.180 13.712,2407.540 C8.688,2381.804 3.492,2355.190 3.492,2302.835 C3.492,2302.724 3.492,2302.613 3.492,2302.502 L3.492,2302.502 C3.492,2250.149 8.688,2223.536 13.712,2197.802 C18.718,2172.162 23.894,2145.652 23.894,2093.507 C23.894,2041.361 18.718,2014.848 13.712,1989.208 C8.720,1963.635 3.558,1937.197 3.493,1885.496 L3.492,1885.496 C3.492,1885.331 3.492,1885.166 3.492,1885.001 C3.492,1884.835 3.492,1884.670 3.492,1884.505 C3.492,1832.146 8.688,1805.535 13.712,1779.800 C18.702,1754.238 23.861,1727.814 23.894,1676.002 C23.861,1624.186 18.702,1597.760 13.712,1572.203 C8.688,1546.469 3.492,1519.855 3.492,1467.499 C3.492,1467.387 3.492,1467.276 3.492,1467.165 L3.492,1467.165 C3.492,1414.810 8.688,1388.199 13.712,1362.465 C18.718,1336.827 23.894,1310.315 23.894,1258.170 C23.894,1206.024 18.718,1179.512 13.712,1153.870 C8.688,1128.135 3.492,1101.523 3.492,1049.167 C3.492,1049.056 3.492,1048.945 3.492,1048.834 L3.492,1048.834 C3.492,996.482 8.688,969.870 13.712,944.133 C18.718,918.495 23.894,891.983 23.894,839.840 C23.894,787.692 18.718,761.179 13.712,735.541 C8.688,709.803 3.492,683.192 3.492,630.834 C3.492,630.723 3.492,630.611 3.492,630.500 L3.492,630.500 C3.492,578.148 8.688,551.539 13.712,525.801 C18.718,500.163 23.894,473.651 23.894,421.507 C23.894,369.363 18.718,342.847 13.712,317.206 C8.688,291.471 3.492,264.860 3.492,212.504 C3.492,160.145 8.688,133.534 13.712,107.799 C18.718,82.157 23.894,55.644 23.894,3.499 L24.486,3.499 C24.486,55.853 19.290,82.467 14.266,108.204 C9.260,133.843 4.083,160.355 4.083,212.504 C4.083,264.649 9.260,291.163 14.266,316.801 C19.290,342.539 24.486,369.151 24.486,421.507 C24.486,421.615 24.486,421.722 24.486,421.830 L24.486,421.830 C24.486,474.185 19.290,500.799 14.266,526.534 C9.260,552.176 4.083,578.688 4.083,630.834 C4.083,682.980 9.260,709.494 14.266,735.135 C19.290,760.872 24.486,787.482 24.486,839.840 C24.486,839.948 24.486,840.056 24.486,840.164 L24.486,840.164 C24.486,892.519 19.290,919.132 14.266,944.866 C9.260,970.506 4.083,997.020 4.083,1049.167 C4.083,1101.315 9.260,1127.827 14.266,1153.466 C19.290,1179.201 24.486,1205.813 24.486,1258.170 C24.486,1258.278 24.486,1258.386 24.486,1258.494 L24.486,1258.494 C24.486,1310.848 19.290,1337.464 14.266,1363.199 C9.260,1388.839 4.083,1415.352 4.083,1467.499 C4.083,1519.645 9.260,1546.156 14.266,1571.798 C19.258,1597.367 24.419,1623.805 24.485,1675.501 L24.486,1675.501 C24.486,1675.668 24.486,1675.835 24.486,1676.002 C24.486,1676.169 24.486,1676.336 24.486,1676.503 C24.486,1728.856 19.290,1755.468 14.266,1781.203 C9.276,1806.760 4.116,1833.183 4.084,1885.000 C4.116,1936.816 9.276,1963.243 14.266,1988.804 C19.290,2014.539 24.486,2041.150 24.486,2093.507 C24.486,2093.615 24.486,2093.723 24.486,2093.831 L24.486,2093.831 C24.486,2146.186 19.290,2172.797 14.266,2198.535 C9.260,2224.176 4.083,2250.689 4.083,2302.835 C4.083,2354.983 9.260,2381.493 14.266,2407.133 C19.290,2432.870 24.486,2459.480 24.486,2511.839 C24.486,2511.947 24.486,2512.055 24.486,2512.163 L24.486,2512.163 C24.486,2564.517 19.290,2591.131 14.266,2616.868 C9.260,2642.506 4.083,2669.019 4.083,2721.167 C4.083,2773.313 9.260,2799.825 14.266,2825.466 C19.290,2851.201 24.486,2877.814 24.486,2930.171 C24.486,2930.278 24.486,2930.386 24.486,2930.493 L24.486,2930.493 C24.486,2982.848 19.290,3009.460 14.266,3035.197 C9.260,3060.841 4.083,3087.351 4.083,3139.499 C4.083,3191.645 9.260,3218.158 14.266,3243.797 C19.290,3269.533 24.486,3296.144 24.486,3348.501 C24.486,3348.835 24.486,3349.167 24.485,3349.498 L24.486,3349.498 C24.486,3401.854 19.290,3428.465 14.266,3454.202 C9.260,3479.844 4.083,3506.355 4.083,3558.502 C4.083,3610.648 9.260,3637.164 14.266,3662.802 C19.290,3688.540 24.486,3715.150 24.486,3767.507 C24.486,3767.615 24.486,3767.723 24.486,3767.831 L24.486,3767.831 C24.486,3820.186 19.290,3846.800 14.266,3872.532 C9.260,3898.176 4.083,3924.688 4.083,3976.834 C4.083,4028.981 9.260,4055.496 14.266,4081.134 C19.290,4106.870 24.486,4133.483 24.486,4185.836 C24.486,4185.945 24.486,4186.053 24.486,4186.162 L24.486,4186.162 C24.486,4238.517 19.290,4265.130 14.266,4290.867 C9.260,4316.508 4.083,4343.019 4.083,4395.165 C4.083,4447.312 9.260,4473.826 14.266,4499.466 C19.290,4525.202 24.486,4551.813 24.486,4604.169 C24.486,4604.278 24.486,4604.385 24.486,4604.493 L24.486,4604.493 C24.486,4656.849 19.290,4683.462 14.266,4709.197 C9.260,4734.839 4.083,4761.351 4.083,4813.497 C4.083,4865.643 9.260,4892.158 14.266,4917.797 C19.258,4943.369 24.419,4969.808 24.485,5021.500 L24.486,5021.500 C24.486,5021.667 24.486,5021.834 24.486,5022.001 C24.486,5022.167 24.486,5022.334 24.486,5022.501 C24.486,5074.857 19.290,5101.468 14.266,5127.202 C9.276,5152.759 4.116,5179.184 4.084,5231.000 C4.116,5282.817 9.276,5309.245 14.266,5334.803 C19.290,5360.541 24.486,5387.151 24.486,5439.507 C24.486,5439.615 24.486,5439.723 24.486,5439.832 L24.486,5439.832 C24.486,5492.186 19.290,5518.799 14.266,5544.534 C9.260,5570.175 4.083,5596.688 4.083,5648.834 C4.083,5700.982 9.260,5727.496 14.266,5753.133 C19.290,5778.868 24.486,5805.482 24.486,5857.838 C24.486,5857.946 24.486,5858.053 24.486,5858.161 L24.486,5858.161 C24.486,5910.518 19.290,5937.131 14.266,5962.867 C9.260,5988.506 4.083,6015.019 4.083,6067.167 C4.083,6119.312 9.260,6145.825 14.266,6171.466 C19.290,6197.201 24.486,6223.814 24.486,6276.170 C24.486,6276.278 24.486,6276.385 24.486,6276.493 L24.486,6276.493 C24.486,6328.848 19.290,6355.460 14.266,6381.198 C9.260,6406.839 4.083,6433.352 4.083,6485.498 C4.083,6537.644 9.260,6564.156 14.266,6589.795 C19.258,6615.368 24.419,6641.805 24.485,6693.499 L24.486,6693.499 C24.486,6693.667 24.486,6693.834 24.486,6694.001 C24.486,6694.168 24.486,6694.336 24.486,6694.503 C24.486,6746.858 19.290,6773.468 14.266,6799.203 C9.276,6824.760 4.116,6851.184 4.084,6903.001 C4.116,6954.818 9.276,6981.242 14.266,7006.804 C19.290,7032.537 24.486,7059.151 24.486,7111.509 C24.486,7111.616 24.486,7111.723 24.486,7111.830 L24.486,7111.830 C24.486,7164.186 19.290,7190.798 14.266,7216.535 C9.260,7242.175 4.083,7268.689 4.083,7320.835 C4.083,7372.981 9.260,7399.492 14.266,7425.134 C19.290,7450.869 24.486,7477.482 24.486,7529.838 C24.486,7529.946 24.486,7530.054 24.486,7530.162 L24.486,7530.162 C24.486,7582.516 19.290,7609.130 14.266,7634.867 C9.260,7660.508 4.083,7687.019 4.083,7739.168 C4.083,7791.313 9.260,7817.825 14.266,7843.466 C19.290,7869.200 24.486,7895.815 24.486,7948.171 C24.486,7948.279 24.486,7948.387 24.486,7948.495 L24.486,7948.495 C24.486,8000.848 19.290,8027.461 14.266,8053.198 C9.260,8078.839 4.083,8105.351 4.083,8157.497 C4.083,8209.645 9.260,8236.156 14.266,8261.797 C19.257,8287.369 24.419,8313.806 24.485,8365.498 L24.486,8365.498 C24.486,8365.665 24.486,8365.832 24.486,8365.999 C24.486,8366.166 24.486,8366.334 24.486,8366.501 C24.486,8418.856 19.290,8445.468 14.266,8471.202 C9.276,8496.759 4.116,8523.185 4.084,8575.001 C4.116,8626.819 9.276,8653.242 14.266,8678.802 C19.290,8704.537 24.486,8731.152 24.486,8783.507 C24.486,8783.614 24.486,8783.722 24.486,8783.829 L24.486,8783.829 C24.486,8836.184 19.290,8862.799 14.266,8888.536 C9.260,8914.175 4.083,8940.687 4.083,8992.835 C4.083,9044.979 9.260,9071.495 14.266,9097.132 C19.290,9122.870 24.486,9149.483 24.486,9201.838 C24.486,9201.946 24.486,9202.053 24.486,9202.161 L24.486,9202.161 C24.486,9254.516 19.290,9281.130 14.266,9306.866 C9.260,9332.508 4.083,9359.019 4.083,9411.166 C4.083,9463.311 9.260,9489.827 14.266,9515.466 C19.290,9541.200 24.486,9567.813 24.486,9620.170 C24.486,9620.278 24.486,9620.385 24.486,9620.493 L24.486,9620.493 C24.486,9672.849 19.290,9699.461 14.266,9725.198 C9.260,9750.840 4.083,9777.352 4.083,9829.499 C4.083,9881.643 9.260,9908.157 14.266,9933.797 C19.290,9959.533 24.486,9986.143 24.486,10038.502 C24.486,10038.835 24.486,10039.167 24.485,10039.499 L24.486,10039.499 C24.486,10091.853 19.290,10118.469 14.266,10144.201 C9.260,10169.846 4.083,10196.355 4.083,10248.503 C4.083,10300.649 9.260,10327.165 14.266,10352.802 C19.290,10378.538 24.486,10405.151 24.486,10457.507 C24.486,10457.614 24.486,10457.722 24.486,10457.829 L24.486,10457.829 C24.486,10510.185 19.290,10536.798 14.266,10562.534 C9.260,10588.175 4.083,10614.688 4.083,10666.834 C4.083,10718.979 9.260,10745.495 14.266,10771.135 C19.290,10796.869 24.486,10823.480 24.486,10875.837 C24.486,10875.946 24.486,10876.054 24.486,10876.162 L24.486,10876.162 C24.486,10928.518 19.290,10955.131 14.266,10980.865 C9.260,11006.506 4.083,11033.021 4.083,11085.168 C4.083,11137.311 9.260,11163.827 14.266,11189.466 C19.290,11215.202 24.486,11241.813 24.486,11294.170 C24.486,11294.279 24.486,11294.387 24.486,11294.495 L24.486,11294.495 C24.486,11346.851 19.290,11373.461 14.266,11399.198 C9.260,11424.837 4.083,11451.353 4.083,11503.498 C4.083,11555.645 9.260,11582.157 14.266,11607.797 C19.258,11633.368 24.419,11659.804 24.485,11711.498 L24.486,11711.498 C24.486,11711.666 24.486,11711.833 24.486,11712.000 C24.486,11712.167 24.486,11712.334 24.486,11712.502 C24.486,11764.855 19.290,11791.468 14.266,11817.202 C9.276,11842.760 4.116,11869.183 4.084,11920.999 C4.116,11972.817 9.276,11999.244 14.266,12024.802 C19.290,12050.538 24.486,12077.152 24.486,12129.506 C24.486,12129.615 24.486,12129.723 24.486,12129.831 L24.486,12129.831 C24.486,12182.186 19.290,12208.797 14.266,12234.535 C9.260,12260.175 4.083,12286.688 4.083,12338.835 C4.083,12390.980 9.260,12417.493 14.266,12443.135 C19.290,12468.871 24.486,12495.482 24.486,12547.838 C24.486,12547.946 24.486,12548.055 24.486,12548.163 L24.486,12548.163 C24.486,12600.518 19.290,12627.130 14.266,12652.865 C9.260,12678.506 4.083,12705.022 4.083,12757.167 C4.083,12809.313 9.260,12835.825 14.266,12861.467 C19.290,12887.202 24.486,12913.815 24.486,12966.171 C24.486,12966.279 24.486,12966.388 24.486,12966.496 L24.486,12966.496 C24.486,13018.851 19.290,13045.462 14.266,13071.200 Z"/>
</svg>