<svg xmlns="http://www.w3.org/2000/svg" width="40" height="40" viewBox="0 0 40 40">

	<defs>
		<clipPath id="a" transform="translate(0 0)">
			<rect width="40" height="40" style="fill:none"/>
		</clipPath>
	</defs>
	<g style="clip-path:url(#a)">
		<path d="M17.71,23.6a.7.7,0,0,0-.81.31.49.49,0,0,0,.21.72.7.7,0,0,0,.83-.3.49.49,0,0,0-.23-.73" transform="translate(0 0)" style="fill:#fff"/>
		<path d="M16.55,18.61c-4.81.48-8.45,3.42-8.14,6.58s4.46,5.32,9.27,4.85,8.45-3.42,8.14-6.58-4.46-5.32-9.27-4.85m4.22,7.45a5.19,5.19,0,0,1-6.2,2.62,3.56,3.56,0,0,1-2.28-5.08A5.25,5.25,0,0,1,18.16,21a3.59,3.59,0,0,1,2.61,5" transform="translate(0 0)" style="fill:#fff"/>
		<path d="M37.76,0H2.24A2.23,2.23,0,0,0,0,2.23V37.76A2.24,2.24,0,0,0,2.24,40H37.76A2.24,2.24,0,0,0,40,37.76V2.23A2.23,2.23,0,0,0,37.76,0M17.66,31.76c-6,0-12.18-2.92-12.18-7.72,0-2.51,1.59-5.41,4.33-8.15,3.66-3.66,7.92-5.33,9.53-3.72.7.71.77,1.93.32,3.39-.24.74.69.33.69.33,3-1.24,5.53-1.31,6.48,0a3,3,0,0,1,0,2.89c-.22.54.06.62.47.74,1.67.52,3.52,1.77,3.52,4,0,3.64-5.25,8.23-13.15,8.23M28.57,16.49a1.83,1.83,0,0,0-2.13-2.35h-.05A1,1,0,0,1,26,12.27a3.74,3.74,0,0,1,4.35,4.81,1,1,0,1,1-1.82-.59Zm5.58,1.8h0a1.11,1.11,0,0,1-1.4.71h0a1.11,1.11,0,0,1-.71-1.4h0a5.47,5.47,0,0,0-6.34-7,1.11,1.11,0,1,1-.47-2.17h0a7.69,7.69,0,0,1,8.93,9.88" transform="translate(0 0)" style="fill:#fff"/>
		<path d="M15.88,24.36a1.83,1.83,0,0,0-2.17.73A1.27,1.27,0,0,0,14.2,27a1.81,1.81,0,0,0,2.21-.72,1.28,1.28,0,0,0-.53-1.93" transform="translate(0 0)" style="fill:#fff"/>
	</g>
</svg>
