<svg xmlns="http://www.w3.org/2000/svg" xmlns:xlink="http://www.w3.org/1999/xlink" width="32px" height="39px" viewBox="0 0 32 39">
<path fill-rule="evenodd"  fill="#fff"
 d="M20.494,16.449 L26.414,16.449 L21.912,33.109 L18.428,33.109 L16.057,23.258 L13.408,33.109 L9.628,33.109 L5.700,16.449 L9.569,16.449 L11.577,26.800 L14.255,16.449 L17.955,16.449 L20.258,26.800 L22.030,19.438 L20.494,19.438 L20.494,16.449 ZM30.399,15.193 C31.238,15.193 31.919,15.860 31.919,16.684 L31.919,34.674 C31.919,37.063 29.940,39.005 27.507,39.005 L4.404,39.005 C1.971,39.005 -0.008,37.063 -0.008,34.674 L-0.008,4.375 C-0.008,1.987 1.971,0.041 4.404,0.041 L19.791,0.041 C19.988,0.041 20.186,0.081 20.372,0.156 C20.546,0.227 20.701,0.333 20.835,0.459 C20.844,0.468 20.856,0.469 20.865,0.478 L31.474,10.894 C31.483,10.903 31.485,10.915 31.494,10.924 C31.622,11.056 31.729,11.207 31.802,11.379 C31.955,11.743 31.955,12.155 31.802,12.520 C31.729,12.691 31.622,12.843 31.494,12.975 C31.485,12.984 31.483,12.995 31.474,13.004 C31.465,13.014 31.453,13.015 31.444,13.024 C31.309,13.150 31.155,13.255 30.980,13.326 C30.795,13.402 30.597,13.441 30.399,13.441 L21.720,13.441 C19.288,13.441 17.308,11.497 17.308,9.108 L17.308,3.025 L4.404,3.025 C3.646,3.025 3.029,3.630 3.029,4.375 L3.029,34.674 C3.029,35.418 3.646,36.023 4.404,36.023 L27.507,36.023 C28.265,36.023 28.880,35.418 28.880,34.674 L28.880,16.684 C28.880,15.860 29.561,15.193 30.399,15.193 ZM20.346,9.108 C20.346,9.852 20.962,10.459 21.720,10.459 L26.731,10.459 L20.346,4.188 L20.346,9.108 Z"/>
</svg>
