<svg
 xmlns="http://www.w3.org/2000/svg"
 xmlns:xlink="http://www.w3.org/1999/xlink"
 width="23px" height="20px" viewBox="0 0 23 20">
<path fill-rule="evenodd"  fill="#666"
 d="M22.130,20.000 L1.642,20.000 C1.218,20.000 0.873,19.651 0.873,19.222 L0.873,15.187 C0.873,14.757 1.218,14.408 1.642,14.408 C2.066,14.408 2.411,14.757 2.411,15.187 L2.411,18.443 L21.361,18.443 L21.361,15.187 C21.361,14.757 21.705,14.408 22.130,14.408 C22.554,14.408 22.899,14.757 22.899,15.187 L22.899,19.222 C22.899,19.651 22.554,20.000 22.130,20.000 ZM12.429,15.161 C12.280,15.313 12.083,15.389 11.886,15.389 C11.689,15.389 11.493,15.313 11.342,15.161 L5.083,8.821 C4.782,8.517 4.782,8.025 5.083,7.721 C5.383,7.417 5.870,7.417 6.170,7.721 L11.886,13.510 L17.602,7.721 C17.902,7.417 18.389,7.417 18.689,7.721 C18.990,8.025 18.990,8.517 18.689,8.821 L12.429,15.161 ZM11.886,9.626 C11.462,9.626 11.117,9.277 11.117,8.848 L11.117,0.779 C11.117,0.349 11.462,0.000 11.886,0.000 C12.310,0.000 12.655,0.349 12.655,0.779 L12.655,8.848 C12.655,9.277 12.310,9.626 11.886,9.626 Z"/>
</svg>