<svg xmlns="http://www.w3.org/2000/svg" viewBox="0 0 477.45 106.96"><defs><style>.cls-1{fill:#e65550;}</style></defs><g id="Capa_2" data-name="Capa 2"><g id="Layer_1" data-name="Layer 1"><path class="cls-1" d="M1.93.92H12.27A14.2,14.2,0,0,1,19.52,2.7a9.37,9.37,0,0,1,4.25,4.88,22.68,22.68,0,0,1,1.17,7.74V23a28.07,28.07,0,0,1-.28,4.3,13.89,13.89,0,0,1-.89,3.29,9.74,9.74,0,0,1-4.22,4.83,13.6,13.6,0,0,1-7,1.73H1.93a1.36,1.36,0,0,1-.84-.2,1.12,1.12,0,0,1-.22-.82V1.93a1.11,1.11,0,0,1,.22-.81A1.29,1.29,0,0,1,1.93.92Zm3,3.46V33.7h7.23q4.42,0,6.51-2.57c1.39-1.71,2.09-4.39,2.09-8V15c0-3.63-.7-6.31-2.09-8s-3.56-2.57-6.51-2.57Z"/><path class="cls-1" d="M33.45,5.75a2.67,2.67,0,0,1-1.86-.61,2.14,2.14,0,0,1-.69-1.68V2.65A2.07,2.07,0,0,1,31.59,1,2.67,2.67,0,0,1,33.45.41,2.86,2.86,0,0,1,35.38,1a2.06,2.06,0,0,1,.71,1.63v.81a2.12,2.12,0,0,1-.71,1.68A2.86,2.86,0,0,1,33.45,5.75Zm2,5.75V36.14a1.11,1.11,0,0,1-.23.82,1.32,1.32,0,0,1-.84.2H32.48a1.32,1.32,0,0,1-.84-.2,1.11,1.11,0,0,1-.23-.82V11.5a1.1,1.1,0,0,1,.23-.81,1.32,1.32,0,0,1,.84-.2h1.88a1.32,1.32,0,0,1,.84.2A1.1,1.1,0,0,1,35.43,11.5Z"/><path class="cls-1" d="M51.06,37.88c-3.7,0-6.43-.84-8.2-2.5a6,6,0,0,1-2-4.48,1,1,0,0,1,.23-.76,1.36,1.36,0,0,1,.89-.21h1.47a1.52,1.52,0,0,1,.84.16,1,1,0,0,1,.34.71,4.36,4.36,0,0,0,2,2.95,8.5,8.5,0,0,0,4.36.92q5.81,0,5.8-4.13a4.14,4.14,0,0,0-1.07-3,7.71,7.71,0,0,0-3.56-1.76L47.6,24.59Q41.48,23,41.49,17.66v-.25a6.77,6.77,0,0,1,2.57-5.57A10.76,10.76,0,0,1,51,9.77q5.34,0,7.74,2.55a5.91,5.91,0,0,1,1.83,4.33,1,1,0,0,1-.23.76,1.37,1.37,0,0,1-.89.2H58a1.79,1.79,0,0,1-.89-.15,1,1,0,0,1-.28-.71q-.62-3.83-6.16-3.82a6.12,6.12,0,0,0-3.94,1.12,3.8,3.8,0,0,0-1.4,3.16A3.18,3.18,0,0,0,46.4,19.8a11.09,11.09,0,0,0,4.1,1.68l4.17,1.07q6.12,1.53,6.11,7.43v.26Q60.78,37.88,51.06,37.88Z"/><path class="cls-1" d="M76.31.92h1.83a.89.89,0,0,1,.69.2,1.3,1.3,0,0,1,.18.81V3.31a1.26,1.26,0,0,1-.18.81.89.89,0,0,1-.69.21H76.67a4.5,4.5,0,0,0-3.24.94,4.31,4.31,0,0,0-.94,3.13v2.09h4.63a.93.93,0,0,1,.69.2,1.3,1.3,0,0,1,.18.81v1.33a1.26,1.26,0,0,1-.18.81.89.89,0,0,1-.69.21H72.49V36.14a1.11,1.11,0,0,1-.23.82,1.32,1.32,0,0,1-.84.2H69.54a1.32,1.32,0,0,1-.84-.2,1.11,1.11,0,0,1-.23-.82V13.85H65.21a.89.89,0,0,1-.69-.21,1.27,1.27,0,0,1-.17-.81V11.5a1.31,1.31,0,0,1,.17-.81.93.93,0,0,1,.69-.2h3.26V8.2a7,7,0,0,1,2-5.37A8.12,8.12,0,0,1,76.31.92Z"/><path class="cls-1" d="M86.8,11.5v3.87a8.3,8.3,0,0,1,2.92-3.53,7.61,7.61,0,0,1,4.41-1.35h.66c.37,0,.61.07.71.2a1.51,1.51,0,0,1,.15.81v1.84a1.49,1.49,0,0,1-.15.81c-.1.14-.34.21-.71.21H93.46a5.57,5.57,0,0,0-4.78,2.52,10.59,10.59,0,0,0-1.78,6.28v13a1.11,1.11,0,0,1-.23.82,1.32,1.32,0,0,1-.84.2H83.94a1.36,1.36,0,0,1-.84-.2,1.12,1.12,0,0,1-.22-.82V11.5a1.11,1.11,0,0,1,.22-.81,1.36,1.36,0,0,1,.84-.2h1.79a1.36,1.36,0,0,1,.84.2A1.1,1.1,0,0,1,86.8,11.5Z"/><path class="cls-1" d="M115.51,36.14V34.41a9.07,9.07,0,0,1-7.59,3.47,8.31,8.31,0,0,1-6.31-2.3c-1.46-1.52-2.19-3.75-2.19-6.66V11.5a1.1,1.1,0,0,1,.23-.81,1.32,1.32,0,0,1,.84-.2h1.88a1.32,1.32,0,0,1,.84.2,1.06,1.06,0,0,1,.23.81V28.05q0,3.25,1.35,4.76a5.38,5.38,0,0,0,4.2,1.5,5.93,5.93,0,0,0,4.66-2,7.51,7.51,0,0,0,1.75-5.22V11.5a1.1,1.1,0,0,1,.23-.81,1.36,1.36,0,0,1,.84-.2h1.89a1.34,1.34,0,0,1,.84.2,1.1,1.1,0,0,1,.23.81V36.14a1.11,1.11,0,0,1-.23.82,1.34,1.34,0,0,1-.84.2h-1.78a1.32,1.32,0,0,1-.84-.2A1.07,1.07,0,0,1,115.51,36.14Z"/><path class="cls-1" d="M137.55,37.16H134.8c-2.27,0-4-.54-5-1.63s-1.61-2.8-1.61-5.14V13.85h-3.31a.85.85,0,0,1-.68-.21,1.26,1.26,0,0,1-.18-.81V11.5a1.3,1.3,0,0,1,.18-.81.89.89,0,0,1,.68-.2h3.31V4a1.07,1.07,0,0,1,.23-.81,1.25,1.25,0,0,1,.84-.21h1.88a1.25,1.25,0,0,1,.84.21,1,1,0,0,1,.23.81v6.47h5.25c.37,0,.61.07.71.2a1.51,1.51,0,0,1,.15.81v1.33a1.46,1.46,0,0,1-.15.81c-.1.14-.34.21-.71.21H132.2V29.73a5,5,0,0,0,.69,2.95,2.65,2.65,0,0,0,2.27.92h2.39c.37,0,.61.07.71.2a1.53,1.53,0,0,1,.15.82v1.52a1.53,1.53,0,0,1-.15.82C138.16,37.09,137.92,37.16,137.55,37.16Z"/><path class="cls-1" d="M153.23,20.87c.64,0,1.5,0,2.57.1s2.13.17,3.18.31v-3a5.4,5.4,0,0,0-1.3-4.05A6,6,0,0,0,153.43,13a7.8,7.8,0,0,0-3.66.69A4.38,4.38,0,0,0,147.83,16a2.56,2.56,0,0,1-.41.71,1.2,1.2,0,0,1-.76.15h-1.83a1.43,1.43,0,0,1-.89-.2,1,1,0,0,1-.23-.77,3.51,3.51,0,0,1,.41-1.52,7,7,0,0,1,1-1.58,8.26,8.26,0,0,1,3.31-2.29,14,14,0,0,1,5-.77c3.39,0,5.84.66,7.33,2S163,15.19,163,18.17V28.61c0,3.05-.77,5.33-2.31,6.82s-4,2.24-7.31,2.24h-.76q-5.15,0-7.64-1.93c-1.66-1.29-2.49-3.35-2.49-6.16q0-4.53,2.62-6.62C146.86,21.57,149.56,20.87,153.23,20.87Zm.3,3.36q-3.92,0-5.42,1.22a5,5,0,0,0-1.5,4.08A4.29,4.29,0,0,0,148,33.14c1,.75,2.57,1.12,4.88,1.12h.46a5.55,5.55,0,0,0,4.28-1.45c.88-1,1.32-2.52,1.32-4.66V24.69q-1.53-.21-3-.33C155,24.27,154.14,24.23,153.53,24.23Z"/><path class="cls-1" d="M189.58,20.87c.64,0,1.5,0,2.57.1s2.13.17,3.18.31v-3a5.4,5.4,0,0,0-1.3-4.05A6,6,0,0,0,189.78,13a7.85,7.85,0,0,0-3.67.69A4.36,4.36,0,0,0,184.18,16a2.85,2.85,0,0,1-.41.71,1.2,1.2,0,0,1-.76.15h-1.83a1.47,1.47,0,0,1-.9-.2,1,1,0,0,1-.22-.77,3.62,3.62,0,0,1,.4-1.52,6.68,6.68,0,0,1,1-1.58,8.19,8.19,0,0,1,3.31-2.29,14,14,0,0,1,5-.77c3.39,0,5.84.66,7.33,2s2.24,3.46,2.24,6.44V28.61c0,3.05-.77,5.33-2.32,6.82s-4,2.24-7.3,2.24H189c-3.42,0-6-.64-7.63-1.93s-2.5-3.35-2.5-6.16q0-4.53,2.63-6.62T189.58,20.87Zm.3,3.36q-3.91,0-5.42,1.22a5,5,0,0,0-1.5,4.08,4.32,4.32,0,0,0,1.42,3.61q1.43,1.13,4.89,1.12h.46A5.51,5.51,0,0,0,194,32.81c.89-1,1.33-2.52,1.33-4.66V24.69q-1.53-.21-3-.33C191.3,24.27,190.49,24.23,189.88,24.23Z"/><path class="cls-1" d="M220.48,1.93V36.14a1.11,1.11,0,0,1-.23.82,1.36,1.36,0,0,1-.84.2h-1.89a1.36,1.36,0,0,1-.84-.2,1.11,1.11,0,0,1-.23-.82V1.93a1.1,1.1,0,0,1,.23-.81,1.29,1.29,0,0,1,.84-.2h1.89a1.29,1.29,0,0,1,.84.2A1.1,1.1,0,0,1,220.48,1.93Z"/><path class="cls-1" d="M237.48,37.88c-3.5,0-6.2-1-8.12-2.91s-2.88-4.66-2.88-8.19v-5.4c0-3.66,1-6.52,2.88-8.55s4.62-3.06,8.12-3.06,6.2,1,8.12,2.91,2.87,4.66,2.87,8.19v5.4q0,5.49-2.87,8.55T237.48,37.88Zm0-3.47q7,0,7-8.45V21.69q0-8.46-7-8.45t-7,8.45V26Q230.5,34.42,237.48,34.41Z"/><path class="cls-1" d="M263.08,37.88c-3.69,0-6.43-.84-8.19-2.5a5.94,5.94,0,0,1-2-4.48,1,1,0,0,1,.23-.76,1.36,1.36,0,0,1,.89-.21h1.48a1.52,1.52,0,0,1,.84.16,1.09,1.09,0,0,1,.33.71,4.4,4.4,0,0,0,2,2.95,8.43,8.43,0,0,0,4.35.92q5.81,0,5.81-4.13a4.14,4.14,0,0,0-1.07-3,7.8,7.8,0,0,0-3.57-1.76l-4.53-1.17q-6.1-1.64-6.11-6.93v-.25a6.77,6.77,0,0,1,2.57-5.57A10.78,10.78,0,0,1,263,9.77q5.36,0,7.74,2.55a5.91,5.91,0,0,1,1.83,4.33,1,1,0,0,1-.23.76,1.37,1.37,0,0,1-.89.2H270a1.79,1.79,0,0,1-.89-.15c-.16-.1-.25-.34-.28-.71q-.61-3.83-6.16-3.82a6.15,6.15,0,0,0-3.95,1.12,3.83,3.83,0,0,0-1.4,3.16,3.19,3.19,0,0,0,1.1,2.59,11,11,0,0,0,4.09,1.68l4.18,1.07q6.1,1.53,6.11,7.43v.26Q272.81,37.88,263.08,37.88Z"/><path class="cls-1" d="M288.59,27.29V1.93a1.06,1.06,0,0,1,.23-.81,1.26,1.26,0,0,1,.84-.2h1.88a1.26,1.26,0,0,1,.84.2,1.1,1.1,0,0,1,.23.81v11c1.7-2.1,4.21-3.16,7.53-3.16s5.89,1,7.69,2.88,2.7,4.66,2.7,8.22v5.65q0,5.4-2.88,8.38c-1.92,2-4.6,3-8.07,3s-6.2-.93-8.12-2.78S288.59,30.65,288.59,27.29Zm4-5.6V26q0,8.46,7,8.45T306.51,26V21.69q0-8.46-7-8.45a6.26,6.26,0,0,0-5.16,2.16C293.19,16.84,292.61,18.94,292.61,21.69Z"/><path class="cls-1" d="M335.68,25.05H319.54v1q0,8.4,6.82,8.4,4.32,0,5.75-3.31a1.63,1.63,0,0,1,.46-.73,1.37,1.37,0,0,1,.71-.13h1.84a1.75,1.75,0,0,1,.91.15q.21.15.21.66a4.44,4.44,0,0,1-.56,1.84,9.25,9.25,0,0,1-1.28,1.93,8.42,8.42,0,0,1-3.46,2.24,13.55,13.55,0,0,1-4.73.82c-3.43,0-6.07-1-7.92-3s-2.77-4.85-2.77-8.55V22.5q0-6.1,2.77-9.42c1.85-2.2,4.51-3.31,8-3.31q10.49,0,10.48,11.66V24a1.08,1.08,0,0,1-.22.81A1.29,1.29,0,0,1,335.68,25.05Zm-9.42-12.12q-6.67,0-6.72,8.81h13.13c0-3-.52-5.25-1.58-6.67A5.59,5.59,0,0,0,326.26,12.93Z"/><path class="cls-1" d="M342.14,27.29V1.93a1.1,1.1,0,0,1,.23-.81,1.26,1.26,0,0,1,.84-.2h1.88a1.26,1.26,0,0,1,.84.2,1.06,1.06,0,0,1,.23.81v11c1.7-2.1,4.21-3.16,7.54-3.16s5.88,1,7.68,2.88,2.7,4.66,2.7,8.22v5.65q0,5.4-2.87,8.38c-1.92,2-4.61,3-8.07,3S346.93,37,345,35.1,342.14,30.65,342.14,27.29Zm4-5.6V26q0,8.46,7,8.45T360.06,26V21.69q0-8.46-7-8.45a6.27,6.27,0,0,0-5.17,2.16Q346.17,17.56,346.16,21.69Z"/><path class="cls-1" d="M389.23,25.05H373.09v1q0,8.4,6.82,8.4,4.33,0,5.76-3.31a1.74,1.74,0,0,1,.45-.73,1.41,1.41,0,0,1,.72-.13h1.83a1.82,1.82,0,0,1,.92.15.82.82,0,0,1,.2.66,4.44,4.44,0,0,1-.56,1.84A9.22,9.22,0,0,1,388,34.82a8.52,8.52,0,0,1-3.47,2.24,13.47,13.47,0,0,1-4.73.82c-3.43,0-6.07-1-7.92-3s-2.77-4.85-2.77-8.55V22.5q0-6.1,2.77-9.42c1.85-2.2,4.51-3.31,8-3.31q10.49,0,10.49,11.66V24a1.07,1.07,0,0,1-.23.81A1.25,1.25,0,0,1,389.23,25.05Zm-9.42-12.12c-4.45,0-6.68,2.94-6.72,8.81h13.14c0-3-.53-5.25-1.58-6.67A5.61,5.61,0,0,0,379.81,12.93ZM382.41,0h2.24c.44,0,.66.14.66.41a1.35,1.35,0,0,1-.2.56l-3.62,5a3.74,3.74,0,0,1-.81,1,1.69,1.69,0,0,1-.87.16h-1.73c-.44,0-.66-.14-.66-.41a1.3,1.3,0,0,1,.2-.56l3.11-5a2.94,2.94,0,0,1,.74-.94A1.8,1.8,0,0,1,382.41,0Z"/><path class="cls-1" d="M404.81,37.88c-3.7,0-6.44-.84-8.2-2.5a6,6,0,0,1-2-4.48,1,1,0,0,1,.23-.76,1.38,1.38,0,0,1,.89-.21h1.48a1.52,1.52,0,0,1,.84.16,1.09,1.09,0,0,1,.33.71,4.4,4.4,0,0,0,2,2.95,8.43,8.43,0,0,0,4.35.92q5.81,0,5.81-4.13a4.14,4.14,0,0,0-1.07-3,7.7,7.7,0,0,0-3.57-1.76l-4.53-1.17q-6.1-1.64-6.11-6.93v-.25a6.75,6.75,0,0,1,2.58-5.57,10.76,10.76,0,0,1,6.95-2.07q5.34,0,7.73,2.55a5.92,5.92,0,0,1,1.84,4.33,1,1,0,0,1-.23.76,1.39,1.39,0,0,1-.89.2h-1.48a1.79,1.79,0,0,1-.89-.15.93.93,0,0,1-.28-.71q-.62-3.83-6.16-3.82a6.17,6.17,0,0,0-3.95,1.12,3.83,3.83,0,0,0-1.4,3.16,3.19,3.19,0,0,0,1.1,2.59,11,11,0,0,0,4.1,1.68l4.17,1.07q6.1,1.53,6.11,7.43v.26Q414.53,37.88,404.81,37.88Z"/><path class="cls-1" d="M450,25.05H433.82v1q0,8.4,6.82,8.4c2.89,0,4.8-1.1,5.76-3.31a1.64,1.64,0,0,1,.45-.73,1.41,1.41,0,0,1,.72-.13h1.83a1.75,1.75,0,0,1,.91.15q.21.15.21.66a4.44,4.44,0,0,1-.56,1.84,9.22,9.22,0,0,1-1.27,1.93,8.52,8.52,0,0,1-3.47,2.24,13.47,13.47,0,0,1-4.73.82c-3.43,0-6.07-1-7.92-3S429.8,30,429.8,26.32V22.5q0-6.1,2.77-9.42c1.85-2.2,4.51-3.31,8-3.31Q451,9.77,451,21.43V24a1.07,1.07,0,0,1-.23.81A1.25,1.25,0,0,1,450,25.05Zm-9.42-12.12q-6.68,0-6.72,8.81H447c0-3-.53-5.25-1.58-6.67A5.63,5.63,0,0,0,440.54,12.93Z"/><path class="cls-1" d="M468.69,9.77a8.75,8.75,0,0,1,6.49,2.29c1.51,1.53,2.27,3.76,2.27,6.67V36.14a1.11,1.11,0,0,1-.23.82,1.32,1.32,0,0,1-.84.2H474.5a1.32,1.32,0,0,1-.84-.2,1.07,1.07,0,0,1-.23-.82V19.6a6.84,6.84,0,0,0-1.4-4.76,5.78,5.78,0,0,0-4.41-1.5,6.29,6.29,0,0,0-4.83,2A7.32,7.32,0,0,0,461,20.52V36.14a1.12,1.12,0,0,1-.22.82,1.36,1.36,0,0,1-.84.2H458a1.34,1.34,0,0,1-.84-.2,1.11,1.11,0,0,1-.23-.82V11.5a1.1,1.1,0,0,1,.23-.81,1.34,1.34,0,0,1,.84-.2h1.78a1.32,1.32,0,0,1,.84.2,1.06,1.06,0,0,1,.23.81v1.79Q463.51,9.77,468.69,9.77Z"/><path class="cls-1" d="M11.51,99q-5,0-7.49-3.15v10.13a1,1,0,0,1-.23.81A1.25,1.25,0,0,1,3,107H1.07a1.25,1.25,0,0,1-.84-.21,1.09,1.09,0,0,1-.23-.81V82.47Q0,77,2.88,73.92T11,70.86q5.19,0,8.06,2.85t2.88,8V87.1Q21.94,99,11.51,99Zm6.41-11.91V82.77q0-8.44-6.92-8.45T4,82.77v4.28q0,4.13,1.76,6.29A6.27,6.27,0,0,0,11,95.5Q17.91,95.5,17.92,87.05Z"/><path class="cls-1" d="M32,63V97.23a1.11,1.11,0,0,1-.23.82,1.32,1.32,0,0,1-.84.2H29a1.32,1.32,0,0,1-.84-.2,1.07,1.07,0,0,1-.23-.82V63a1,1,0,0,1,.23-.81A1.25,1.25,0,0,1,29,62H30.9a1.25,1.25,0,0,1,.84.21A1.09,1.09,0,0,1,32,63Z"/><path class="cls-1" d="M58.14,86.13H42v1q0,8.4,6.82,8.4,4.32,0,5.75-3.31a1.75,1.75,0,0,1,.46-.74,1.51,1.51,0,0,1,.71-.12h1.84a1.75,1.75,0,0,1,.91.15q.21.15.21.66A4.36,4.36,0,0,1,58.14,94a9.07,9.07,0,0,1-1.28,1.94,8.49,8.49,0,0,1-3.46,2.24,13.54,13.54,0,0,1-4.73.81q-5.14,0-7.92-3T38,87.41V83.59q0-6.11,2.77-9.42c1.85-2.2,4.51-3.31,8-3.31q10.49,0,10.48,11.66v2.6a1.09,1.09,0,0,1-.22.81A1.29,1.29,0,0,1,58.14,86.13ZM48.72,74Q42,74,42,82.83H55.13c0-3-.53-5.25-1.58-6.67A5.59,5.59,0,0,0,48.72,74Z"/><path class="cls-1" d="M76.87,70.86a8.75,8.75,0,0,1,6.49,2.29q2.27,2.3,2.26,6.67V97.23a1.12,1.12,0,0,1-.22.82,1.36,1.36,0,0,1-.84.2H82.67a1.32,1.32,0,0,1-.84-.2,1.11,1.11,0,0,1-.23-.82V80.69c0-2.17-.46-3.76-1.4-4.76a5.76,5.76,0,0,0-4.4-1.5,6.32,6.32,0,0,0-4.84,2,7.31,7.31,0,0,0-1.83,5.21V97.23a1.11,1.11,0,0,1-.23.82,1.32,1.32,0,0,1-.84.2H66.18a1.32,1.32,0,0,1-.84-.2,1.11,1.11,0,0,1-.23-.82V72.59a1.09,1.09,0,0,1,.23-.81,1.26,1.26,0,0,1,.84-.2H68a1.26,1.26,0,0,1,.84.2,1.09,1.09,0,0,1,.23.81v1.79C70.79,72,73.41,70.86,76.87,70.86Z"/><path class="cls-1" d="M101.86,82c.65,0,1.51,0,2.57.1s2.13.17,3.19.31v-3a5.43,5.43,0,0,0-1.3-4,6,6,0,0,0-4.25-1.25,7.85,7.85,0,0,0-3.67.69,4.3,4.3,0,0,0-1.93,2.36,3,3,0,0,1-.41.72,1.22,1.22,0,0,1-.76.15H93.46a1.45,1.45,0,0,1-.89-.2,1,1,0,0,1-.23-.77,3.65,3.65,0,0,1,.41-1.52,6.68,6.68,0,0,1,1-1.58,8.12,8.12,0,0,1,3.31-2.29,14,14,0,0,1,5-.77c3.39,0,5.83.66,7.33,2s2.24,3.46,2.24,6.44V89.7c0,3-.77,5.33-2.32,6.82s-4,2.24-7.3,2.24h-.77q-5.15,0-7.63-1.93c-1.67-1.29-2.5-3.35-2.5-6.16,0-3,.88-5.23,2.62-6.62S98.2,82,101.86,82Zm.31,3.36q-3.92,0-5.42,1.22a5,5,0,0,0-1.5,4.07,4.32,4.32,0,0,0,1.42,3.62q1.42,1.13,4.89,1.12H102a5.52,5.52,0,0,0,4.27-1.45,6.81,6.81,0,0,0,1.33-4.66V85.78q-1.53-.21-3-.33C103.59,85.36,102.78,85.32,102.17,85.32Z"/><path class="cls-1" d="M138.21,82c.64,0,1.5,0,2.57.1s2.13.17,3.18.31v-3a5.43,5.43,0,0,0-1.29-4,6,6,0,0,0-4.26-1.25,7.83,7.83,0,0,0-3.66.69,4.36,4.36,0,0,0-1.94,2.36,3.05,3.05,0,0,1-.4.72,1.24,1.24,0,0,1-.77.15h-1.83a1.43,1.43,0,0,1-.89-.2,1,1,0,0,1-.23-.77,3.65,3.65,0,0,1,.41-1.52,6.68,6.68,0,0,1,1-1.58,8.12,8.12,0,0,1,3.31-2.29,13.93,13.93,0,0,1,5-.77c3.4,0,5.84.66,7.34,2S148,76.28,148,79.26V89.7c0,3-.77,5.33-2.31,6.82s-4,2.24-7.31,2.24h-.76c-3.43,0-6-.64-7.64-1.93s-2.49-3.35-2.49-6.16q0-4.53,2.62-6.62T138.21,82Zm.31,3.36c-2.62,0-4.42.41-5.43,1.22a5,5,0,0,0-1.5,4.07A4.33,4.33,0,0,0,133,94.23q1.42,1.13,4.89,1.12h.45a5.53,5.53,0,0,0,4.28-1.45c.88-1,1.32-2.52,1.32-4.66V85.78q-1.52-.21-3-.33C139.93,85.36,139.13,85.32,138.52,85.32Z"/><path class="cls-1" d="M164,95.5q5.19,0,6-4.38a.9.9,0,0,1,.28-.68,1.53,1.53,0,0,1,.89-.18h1.68a1.43,1.43,0,0,1,.89.2,1,1,0,0,1,.23.77,7.56,7.56,0,0,1-1.48,4.22Q170.13,99,163.92,99c-3.4,0-6-.94-7.76-2.82s-2.68-4.64-2.68-8.27v-5q0-5.91,2.68-8.94c1.78-2,4.36-3,7.76-3,3.7,0,6.38.94,8,2.8a7.28,7.28,0,0,1,1.94,4.94,1,1,0,0,1-.23.76,1.38,1.38,0,0,1-.89.21h-1.63a1.53,1.53,0,0,1-.89-.18.93.93,0,0,1-.28-.69,4.58,4.58,0,0,0-1.79-3.28,6.56,6.56,0,0,0-4.07-1.15q-3.47,0-5,2t-1.58,6.46v4.28q0,4.38,1.58,6.42A5.87,5.87,0,0,0,164,95.5Z"/><path class="cls-1" d="M189.22,95.5q5.19,0,6-4.38a.9.9,0,0,1,.28-.68,1.51,1.51,0,0,1,.89-.18H198a1.45,1.45,0,0,1,.89.2,1,1,0,0,1,.23.77,7.63,7.63,0,0,1-1.48,4.22Q195.33,99,189.12,99c-3.4,0-6-.94-7.77-2.82s-2.67-4.64-2.67-8.27v-5q0-5.91,2.67-8.94c1.79-2,4.37-3,7.77-3,3.7,0,6.38.94,8,2.8a7.28,7.28,0,0,1,1.94,4.94,1,1,0,0,1-.23.76,1.38,1.38,0,0,1-.89.21h-1.63a1.51,1.51,0,0,1-.89-.18.93.93,0,0,1-.28-.69,4.58,4.58,0,0,0-1.79-3.28,6.56,6.56,0,0,0-4.07-1.15q-3.47,0-5,2t-1.58,6.46v4.28q0,4.38,1.58,6.42A5.87,5.87,0,0,0,189.22,95.5Z"/><path class="cls-1" d="M206.93,66.84a2.65,2.65,0,0,1-1.85-.61,2.14,2.14,0,0,1-.69-1.68v-.81a2.06,2.06,0,0,1,.69-1.63,2.65,2.65,0,0,1,1.85-.61,2.87,2.87,0,0,1,1.94.61,2,2,0,0,1,.71,1.63v.81a2.12,2.12,0,0,1-.71,1.68A2.87,2.87,0,0,1,206.93,66.84Zm2,5.75V97.23a1.11,1.11,0,0,1-.23.82,1.32,1.32,0,0,1-.84.2H206a1.32,1.32,0,0,1-.84-.2,1.07,1.07,0,0,1-.23-.82V72.59a1,1,0,0,1,.23-.81,1.26,1.26,0,0,1,.84-.2h1.88a1.26,1.26,0,0,1,.84.2A1.09,1.09,0,0,1,208.92,72.59Z"/><path class="cls-1" d="M225.92,99c-3.49,0-6.2-1-8.12-2.9s-2.87-4.66-2.87-8.19v-5.4q0-5.5,2.87-8.55t8.12-3.06c3.5,0,6.2,1,8.12,2.9s2.88,4.67,2.88,8.2v5.4q0,5.49-2.88,8.55C232.12,97.94,229.42,99,225.92,99Zm0-3.46q7,0,7-8.45V82.77q0-8.44-7-8.45t-7,8.45v4.28Q219,95.51,225.92,95.5Zm2.45-34.41h2.24c.44,0,.66.13.66.41a1.26,1.26,0,0,1-.21.56l-3.61,5a4,4,0,0,1-.81,1,1.83,1.83,0,0,1-.87.16H224c-.44,0-.66-.14-.66-.41a1.18,1.18,0,0,1,.2-.56l3.11-5a3.11,3.11,0,0,1,.73-.94A1.85,1.85,0,0,1,228.37,61.09Z"/><path class="cls-1" d="M254.69,70.86a8.76,8.76,0,0,1,6.49,2.29q2.26,2.3,2.26,6.67V97.23a1.11,1.11,0,0,1-.23.82,1.32,1.32,0,0,1-.84.2h-1.88a1.32,1.32,0,0,1-.84-.2,1.11,1.11,0,0,1-.23-.82V80.69a6.84,6.84,0,0,0-1.4-4.76,5.76,5.76,0,0,0-4.4-1.5,6.29,6.29,0,0,0-4.84,2A7.31,7.31,0,0,0,247,81.6V97.23a1.11,1.11,0,0,1-.23.82,1.34,1.34,0,0,1-.84.2H244a1.36,1.36,0,0,1-.84-.2,1.12,1.12,0,0,1-.22-.82V72.59a1.09,1.09,0,0,1,.22-.81,1.29,1.29,0,0,1,.84-.2h1.79a1.29,1.29,0,0,1,.84.2,1.09,1.09,0,0,1,.23.81v1.79Q249.49,70.86,254.69,70.86Z"/></g></g></svg>