<?xml version="1.0" encoding="utf-8"?>
<!-- Generator: Adobe Illustrator 24.1.1, SVG Export Plug-In . SVG Version: 6.00 Build 0)  -->
<svg version="1.1" id="Capa_1" xmlns="http://www.w3.org/2000/svg" xmlns:xlink="http://www.w3.org/1999/xlink" x="0px" y="0px"
	 viewBox="0 0 477.5 107" style="enable-background:new 0 0 477.5 107;" xml:space="preserve">
<style type="text/css">
	.st0{fill:#FFFFFF;}
</style>
<g id="Capa_2_1_">
	<g id="Layer_1">
		<path class="st0" d="M1.9,0.9h10.3c2.5-0.1,5,0.6,7.3,1.8c2,1.1,3.5,2.8,4.3,4.9c0.8,2.5,1.2,5.1,1.2,7.7V23
			c0,1.4-0.1,2.9-0.3,4.3c-0.2,1.1-0.5,2.2-0.9,3.3c-0.8,2-2.3,3.7-4.2,4.8c-2.1,1.2-4.6,1.8-7,1.7H1.9c-0.3,0-0.6,0-0.8-0.2
			c-0.2-0.2-0.3-0.5-0.2-0.8V1.9c0-0.3,0-0.6,0.2-0.8C1.3,1,1.6,0.9,1.9,0.9z M4.9,4.4v29.3h7.2c2.9,0,5.1-0.9,6.5-2.6
			c1.4-1.7,2.1-4.4,2.1-8V15c0-3.6-0.7-6.3-2.1-8s-3.6-2.6-6.5-2.6L4.9,4.4z"/>
		<path class="st0" d="M33.5,5.8c-0.7,0-1.3-0.2-1.9-0.6c-0.5-0.4-0.7-1-0.7-1.7V2.7c0-0.6,0.2-1.2,0.7-1.7c0.5-0.4,1.2-0.6,1.9-0.6
			c0.7,0,1.4,0.2,1.9,0.6c0.5,0.4,0.7,1,0.7,1.6v0.8c0,0.6-0.2,1.3-0.7,1.7C34.8,5.6,34.1,5.8,33.5,5.8z M35.5,11.5v24.6
			c0,0.3,0,0.6-0.2,0.8c-0.2,0.2-0.5,0.2-0.8,0.2h-1.9c-0.3,0-0.6,0-0.8-0.2c-0.2-0.2-0.3-0.5-0.2-0.8V11.5c0-0.3,0-0.6,0.2-0.8
			c0.2-0.2,0.5-0.2,0.8-0.2h1.9c0.3,0,0.6,0,0.8,0.2C35.4,10.9,35.5,11.2,35.5,11.5L35.5,11.5z"/>
		<path class="st0" d="M51.1,37.9c-3.7,0-6.4-0.8-8.2-2.5c-1.3-1.1-2-2.8-2-4.5c0-0.3,0.1-0.5,0.2-0.8c0.3-0.2,0.6-0.2,0.9-0.2h1.5
			c0.3,0,0.6,0,0.8,0.2c0.2,0.2,0.3,0.4,0.3,0.7c0.2,1.2,0.9,2.3,2,2.9c1.3,0.7,2.9,1,4.4,0.9c3.9,0,5.8-1.4,5.8-4.1
			c0.1-1.1-0.3-2.2-1.1-3c-1-0.9-2.2-1.5-3.6-1.8l-4.6-1.2c-4.1-1.1-6.1-3.4-6.1-6.9v-0.3c-0.1-2.2,0.9-4.2,2.6-5.6
			c2-1.5,4.5-2.2,6.9-2.1c3.6,0,6.1,0.8,7.7,2.6c1.2,1.1,1.8,2.7,1.8,4.3c0,0.3-0.1,0.5-0.2,0.8c-0.3,0.2-0.6,0.2-0.9,0.2H58
			c-0.3,0-0.6,0-0.9-0.1c-0.2-0.2-0.3-0.4-0.3-0.7c-0.4-2.6-2.5-3.8-6.2-3.8c-1.4-0.1-2.8,0.3-3.9,1.1c-0.9,0.8-1.5,1.9-1.4,3.2
			c-0.1,1,0.3,1.9,1.1,2.6c1.2,0.8,2.6,1.4,4.1,1.7l4.2,1.1c4.1,1,6.1,3.5,6.1,7.4v0.3C60.8,35.3,57.5,37.9,51.1,37.9z"/>
		<path class="st0" d="M76.3,0.9h1.8c0.2,0,0.5,0,0.7,0.2C79,1.4,79,1.6,79,1.9v1.4c0,0.3,0,0.6-0.2,0.8c-0.2,0.2-0.4,0.2-0.7,0.2
			h-1.5c-1.2-0.1-2.3,0.2-3.2,0.9c-0.7,0.9-1,2-0.9,3.1v2.1h4.6c0.2,0,0.5,0,0.7,0.2c0.1,0.2,0.2,0.5,0.2,0.8v1.3
			c0,0.3,0,0.6-0.2,0.8c-0.2,0.2-0.4,0.2-0.7,0.2h-4.6v22.3c0,0.3,0,0.6-0.2,0.8c-0.2,0.2-0.5,0.2-0.8,0.2h-1.9
			c-0.3,0-0.6,0-0.8-0.2c-0.2-0.2-0.3-0.5-0.2-0.8V13.9h-3.3c-0.2,0-0.5,0-0.7-0.2c-0.1-0.2-0.2-0.5-0.2-0.8v-1.3
			c0-0.3,0-0.6,0.2-0.8c0.2-0.2,0.4-0.2,0.7-0.2h3.3V8.2c-0.1-2,0.6-3.9,2-5.4C72.1,1.5,74.2,0.8,76.3,0.9z"/>
		<path class="st0" d="M86.8,11.5v3.9c0.6-1.4,1.6-2.7,2.9-3.5c1.3-0.9,2.8-1.4,4.4-1.4h0.7c0.4,0,0.6,0.1,0.7,0.2
			c0.1,0.3,0.2,0.5,0.2,0.8v1.8c0,0.3,0,0.6-0.2,0.8c-0.1,0.1-0.3,0.2-0.7,0.2h-1.3c-1.9,0-3.7,0.9-4.8,2.5
			c-1.2,1.9-1.9,4.1-1.8,6.3v13c0,0.3,0,0.6-0.2,0.8c-0.2,0.2-0.5,0.2-0.8,0.2h-1.9c-0.3,0-0.6,0-0.8-0.2c-0.2-0.2-0.3-0.5-0.2-0.8
			V11.5c0-0.3,0-0.6,0.2-0.8c0.3-0.2,0.5-0.2,0.8-0.2h1.8c0.3,0,0.6,0,0.8,0.2C86.8,10.9,86.8,11.2,86.8,11.5z"/>
		<path class="st0" d="M115.5,36.1v-1.7c-1.8,2.3-4.6,3.6-7.6,3.5c-2.3,0.2-4.6-0.7-6.3-2.3c-1.5-1.5-2.2-3.8-2.2-6.7V11.5
			c0-0.3,0-0.6,0.2-0.8c0.2-0.2,0.5-0.2,0.8-0.2h1.9c0.3,0,0.6,0,0.8,0.2c0.2,0.2,0.3,0.5,0.2,0.8V28c0,2.2,0.4,3.8,1.3,4.8
			c1.1,1.1,2.6,1.6,4.2,1.5c1.8,0.1,3.5-0.7,4.7-2c1.2-1.5,1.8-3.3,1.8-5.2V11.5c0-0.3,0-0.6,0.2-0.8c0.3-0.2,0.5-0.2,0.8-0.2h1.9
			c0.3,0,0.6,0,0.8,0.2c0.2,0.2,0.3,0.5,0.2,0.8v24.6c0,0.3,0,0.6-0.2,0.8c-0.3,0.2-0.5,0.2-0.8,0.2h-1.8c-0.3,0-0.6,0-0.8-0.2
			C115.6,36.7,115.5,36.4,115.5,36.1z"/>
		<path class="st0" d="M137.6,37.2h-2.8c-2.3,0-4-0.5-5-1.6s-1.6-2.8-1.6-5.1V13.9h-3.3c-0.2,0-0.5,0-0.7-0.2
			c-0.1-0.2-0.2-0.5-0.2-0.8v-1.3c0-0.3,0-0.6,0.2-0.8c0.2-0.2,0.4-0.2,0.7-0.2h3.3V4c0-0.3,0-0.6,0.2-0.8c0.2-0.2,0.5-0.2,0.8-0.2
			h1.9c0.3,0,0.6,0,0.8,0.2c0.2,0.2,0.3,0.5,0.2,0.8v6.5h5.3c0.4,0,0.6,0.1,0.7,0.2c0.1,0.3,0.2,0.5,0.1,0.8v1.3
			c0,0.3,0,0.6-0.1,0.8c-0.1,0.1-0.3,0.2-0.7,0.2h-5.3v15.9c-0.1,1,0.2,2.1,0.7,3c0.6,0.7,1.4,1,2.3,0.9h2.4c0.4,0,0.6,0.1,0.7,0.2
			c0.1,0.3,0.2,0.5,0.1,0.8v1.5c0,0.3,0,0.6-0.1,0.8C138.2,37.1,137.9,37.2,137.6,37.2z"/>
		<path class="st0" d="M153.2,20.9c0.6,0,1.5,0,2.6,0.1s2.1,0.2,3.2,0.3v-3c0.1-1.5-0.3-2.9-1.3-4.1c-1.2-0.9-2.7-1.4-4.3-1.2
			c-1.3-0.1-2.5,0.2-3.7,0.7c-0.9,0.5-1.6,1.3-1.9,2.3c-0.1,0.3-0.2,0.5-0.4,0.7c-0.2,0.1-0.5,0.2-0.8,0.1h-1.8
			c-0.3,0-0.6,0-0.9-0.2c-0.2-0.2-0.3-0.5-0.2-0.8c0-0.5,0.2-1.1,0.4-1.5c0.3-0.6,0.6-1.1,1-1.6c0.9-1,2-1.8,3.3-2.3
			c1.6-0.6,3.3-0.8,5-0.8c3.4,0,5.8,0.7,7.3,2s2.2,3.5,2.2,6.4v10.4c0,3-0.8,5.3-2.3,6.8s-4,2.2-7.3,2.2h-0.8c-3.4,0-6-0.6-7.6-1.9
			c-1.7-1.3-2.5-3.3-2.5-6.2c0-3,0.9-5.2,2.6-6.6C146.9,21.6,149.6,20.9,153.2,20.9z M153.5,24.2c-2.6,0-4.4,0.4-5.4,1.2
			c-1.1,1.1-1.6,2.6-1.5,4.1c-0.1,1.4,0.4,2.7,1.4,3.6c1,0.8,2.6,1.1,4.9,1.1h0.5c1.6,0.1,3.1-0.4,4.3-1.5c0.9-1,1.3-2.5,1.3-4.7
			v-3.5c-1-0.1-2-0.2-3-0.3C155,24.3,154.1,24.2,153.5,24.2z"/>
		<path class="st0" d="M189.6,20.9c0.6,0,1.5,0,2.6,0.1s2.1,0.2,3.2,0.3v-3c0.1-1.5-0.3-2.9-1.3-4.1c-1.2-0.9-2.7-1.4-4.3-1.2
			c-1.3-0.1-2.5,0.2-3.7,0.7c-0.9,0.5-1.6,1.3-1.9,2.3c-0.1,0.3-0.2,0.5-0.4,0.7c-0.2,0.1-0.5,0.2-0.8,0.1h-1.8
			c-0.3,0-0.6,0-0.9-0.2c-0.2-0.2-0.3-0.5-0.2-0.8c0-0.5,0.2-1,0.4-1.5c0.3-0.6,0.6-1.1,1-1.6c0.9-1,2-1.8,3.3-2.3
			c1.6-0.6,3.3-0.8,5-0.8c3.4,0,5.8,0.7,7.3,2s2.2,3.5,2.2,6.4v10.4c0,3-0.8,5.3-2.3,6.8s-4,2.2-7.3,2.2H189c-3.4,0-6-0.6-7.6-1.9
			s-2.5-3.3-2.5-6.2c0-3,0.9-5.2,2.6-6.6S185.9,20.9,189.6,20.9z M189.9,24.2c-2.6,0-4.4,0.4-5.4,1.2c-1.1,1.1-1.6,2.6-1.5,4.1
			c-0.1,1.4,0.4,2.7,1.4,3.6c1,0.8,2.6,1.1,4.9,1.1h0.5c1.6,0.1,3.1-0.4,4.3-1.4c0.9-1,1.3-2.5,1.3-4.7v-3.5c-1-0.1-2-0.2-3-0.3
			C191.3,24.3,190.5,24.2,189.9,24.2z"/>
		<path class="st0" d="M220.5,1.9v34.2c0,0.3,0,0.6-0.2,0.8c-0.3,0.2-0.5,0.2-0.8,0.2h-1.9c-0.3,0-0.6,0-0.8-0.2
			c-0.2-0.2-0.3-0.5-0.2-0.8V1.9c0-0.3,0-0.6,0.2-0.8c0.2-0.2,0.5-0.2,0.8-0.2h1.9c0.3,0,0.6,0,0.8,0.2
			C220.4,1.3,220.5,1.6,220.5,1.9z"/>
		<path class="st0" d="M237.5,37.9c-3.5,0-6.2-1-8.1-2.9s-2.9-4.7-2.9-8.2v-5.4c0-3.7,1-6.5,2.9-8.6s4.6-3.1,8.1-3.1s6.2,1,8.1,2.9
			s2.9,4.7,2.9,8.2v5.4c0,3.7-1,6.5-2.9,8.6S241,37.9,237.5,37.9z M237.5,34.4c4.7,0,7-2.8,7-8.5v-4.3c0-5.6-2.3-8.5-7-8.4
			c-4.7,0-7,2.8-7,8.4V26C230.5,31.6,232.8,34.4,237.5,34.4z"/>
		<path class="st0" d="M263.1,37.9c-3.7,0-6.4-0.8-8.2-2.5c-1.3-1.1-2-2.8-2-4.5c0-0.3,0.1-0.5,0.2-0.8c0.3-0.2,0.6-0.2,0.9-0.2h1.5
			c0.3,0,0.6,0,0.8,0.2c0.2,0.2,0.3,0.4,0.3,0.7c0.2,1.2,0.9,2.3,2,2.9c1.3,0.7,2.8,1,4.4,0.9c3.9,0,5.8-1.4,5.8-4.1
			c0.1-1.1-0.3-2.2-1.1-3c-1-0.9-2.2-1.5-3.6-1.8l-4.5-1.2c-4.1-1.1-6.1-3.4-6.1-6.9v-0.3c-0.1-2.2,0.9-4.2,2.6-5.6
			c2-1.5,4.4-2.2,6.9-2.1c3.6,0,6.2,0.8,7.7,2.6c1.2,1.1,1.8,2.7,1.8,4.3c0,0.3-0.1,0.5-0.2,0.8c-0.3,0.2-0.6,0.2-0.9,0.2H270
			c-0.3,0-0.6,0-0.9-0.1c-0.2-0.1-0.3-0.3-0.3-0.7c-0.4-2.6-2.5-3.8-6.2-3.8c-1.4-0.1-2.8,0.3-4,1.1c-0.9,0.8-1.5,1.9-1.4,3.2
			c-0.1,1,0.4,1.9,1.1,2.6c1.2,0.8,2.6,1.4,4.1,1.7l4.2,1.1c4.1,1,6.1,3.5,6.1,7.4v0.3C272.8,35.3,269.6,37.9,263.1,37.9z"/>
		<path class="st0" d="M288.6,27.3V1.9c0-0.3,0-0.6,0.2-0.8c0.2-0.2,0.5-0.2,0.8-0.2h1.9c0.3,0,0.6,0,0.8,0.2
			c0.2,0.2,0.3,0.5,0.2,0.8v11c1.7-2.1,4.2-3.2,7.5-3.2s5.9,1,7.7,2.9s2.7,4.7,2.7,8.2v5.6c0,3.6-1,6.4-2.9,8.4c-1.9,2-4.6,3-8.1,3
			s-6.2-0.9-8.1-2.8S288.6,30.6,288.6,27.3z M292.6,21.7V26c0,5.6,2.3,8.5,7,8.5c4.7,0,7-2.8,6.9-8.5v-4.3c0-5.6-2.3-8.5-7-8.4
			c-2-0.1-3.9,0.7-5.2,2.2C293.2,16.8,292.6,18.9,292.6,21.7L292.6,21.7z"/>
		<path class="st0" d="M335.7,25h-16.1v1c0,5.6,2.3,8.4,6.8,8.4c2.9,0,4.8-1.1,5.8-3.3c0.1-0.3,0.2-0.5,0.5-0.7
			c0.2-0.1,0.5-0.2,0.7-0.1h1.8c0.3,0,0.6,0,0.9,0.1c0.1,0.1,0.2,0.3,0.2,0.7c0,0.6-0.2,1.3-0.6,1.8c-0.3,0.7-0.8,1.3-1.3,1.9
			c-0.9,1-2.1,1.8-3.5,2.2c-1.5,0.6-3.1,0.8-4.7,0.8c-3.4,0-6.1-1-7.9-3s-2.8-4.9-2.8-8.5v-3.9c0-4.1,0.9-7.2,2.8-9.4
			c1.9-2.2,4.5-3.3,8-3.3c7,0,10.5,3.9,10.5,11.7V24c0,0.3,0,0.6-0.2,0.8C336.3,25,336,25.1,335.7,25z M326.3,12.9
			c-4.4,0-6.7,2.9-6.7,8.8h13.1c0-3-0.5-5.3-1.6-6.7C329.9,13.6,328.1,12.8,326.3,12.9L326.3,12.9z"/>
		<path class="st0" d="M342.1,27.3V1.9c0-0.3,0-0.6,0.2-0.8c0.2-0.2,0.5-0.2,0.8-0.2h1.9c0.3,0,0.6,0,0.8,0.2
			c0.2,0.2,0.3,0.5,0.2,0.8v11c1.7-2.1,4.2-3.2,7.5-3.2s5.9,1,7.7,2.9s2.7,4.7,2.7,8.2v5.6c0,3.6-1,6.4-2.9,8.4c-1.9,2-4.6,3-8.1,3
			s-6.2-0.9-8.1-2.8S342.1,30.6,342.1,27.3z M346.1,21.7V26c0,5.6,2.3,8.5,7,8.5c4.7,0,7-2.8,6.9-8.5v-4.3c0-5.6-2.3-8.5-7-8.4
			c-2-0.1-3.9,0.7-5.2,2.2C346.7,16.8,346.2,18.9,346.1,21.7L346.1,21.7z"/>
		<path class="st0" d="M389.2,25h-16.1v1c0,5.6,2.3,8.4,6.8,8.4c2.9,0,4.8-1.1,5.8-3.3c0.1-0.3,0.2-0.5,0.5-0.7
			c0.2-0.1,0.5-0.2,0.7-0.1h1.8c0.3,0,0.6,0,0.9,0.1c0.2,0.2,0.2,0.4,0.2,0.7c0,0.6-0.2,1.3-0.6,1.8c-0.3,0.7-0.7,1.3-1.2,1.9
			c-1,1-2.1,1.8-3.5,2.2c-1.5,0.6-3.1,0.8-4.7,0.8c-3.4,0-6.1-1-7.9-3s-2.8-4.9-2.8-8.5v-3.8c0-4.1,0.9-7.2,2.8-9.4
			c1.9-2.2,4.5-3.3,8-3.3c7,0,10.5,3.9,10.5,11.7V24c0,0.3,0,0.6-0.2,0.8C389.9,25,389.6,25.1,389.2,25z M379.8,12.9
			c-4.5,0-6.7,2.9-6.7,8.8h13.1c0-3-0.5-5.3-1.6-6.7C383.5,13.6,381.7,12.8,379.8,12.9z M382.4,0h2.2c0.4,0,0.7,0.1,0.7,0.4
			c0,0.2-0.1,0.4-0.2,0.6l-3.6,5c-0.2,0.4-0.5,0.7-0.8,1c-0.3,0.1-0.6,0.2-0.9,0.2h-1.7c-0.4,0-0.7-0.1-0.7-0.4
			c0-0.2,0.1-0.4,0.2-0.6l3.1-5c0.2-0.4,0.4-0.7,0.7-0.9C381.8,0.1,382.1,0,382.4,0z"/>
		<path class="st0" d="M404.8,37.9c-3.7,0-6.4-0.8-8.2-2.5c-1.3-1.1-2-2.8-2-4.5c0-0.3,0.1-0.5,0.2-0.8c0.3-0.2,0.6-0.2,0.9-0.2h1.5
			c0.3,0,0.6,0,0.8,0.2c0.2,0.2,0.3,0.4,0.3,0.7c0.2,1.2,0.9,2.3,2,2.9c1.3,0.7,2.8,1,4.4,0.9c3.9,0,5.8-1.4,5.8-4.1
			c0.1-1.1-0.3-2.2-1.1-3c-1-0.9-2.2-1.5-3.6-1.8l-4.5-1.2c-4.1-1.1-6.1-3.4-6.1-6.9v-0.3c-0.1-2.2,0.9-4.2,2.6-5.6
			c2-1.5,4.5-2.2,7-2.1c3.6,0,6.1,0.8,7.7,2.6c1.2,1.1,1.9,2.7,1.8,4.3c0,0.3-0.1,0.5-0.2,0.8c-0.3,0.2-0.6,0.2-0.9,0.2h-1.5
			c-0.3,0-0.6,0-0.9-0.1c-0.2-0.2-0.3-0.4-0.3-0.7c-0.4-2.6-2.5-3.8-6.2-3.8c-1.4-0.1-2.8,0.3-4,1.1c-0.9,0.8-1.5,1.9-1.4,3.2
			c-0.1,1,0.4,1.9,1.1,2.6c1.2,0.8,2.6,1.4,4.1,1.7l4.2,1.1c4.1,1,6.1,3.5,6.1,7.4v0.3C414.5,35.3,411.3,37.9,404.8,37.9z"/>
		<path class="st0" d="M450,25h-16.2v1c0,5.6,2.3,8.4,6.8,8.4c2.9,0,4.8-1.1,5.8-3.3c0.1-0.3,0.2-0.5,0.5-0.7
			c0.2-0.1,0.5-0.2,0.7-0.1h1.8c0.3,0,0.6,0,0.9,0.1c0.1,0.1,0.2,0.3,0.2,0.7c0,0.6-0.2,1.3-0.6,1.8c-0.3,0.7-0.8,1.3-1.3,1.9
			c-1,1-2.1,1.8-3.5,2.2c-1.5,0.6-3.1,0.8-4.7,0.8c-3.4,0-6.1-1-7.9-3s-2.8-4.9-2.8-8.6v-3.8c0-4.1,0.9-7.2,2.8-9.4
			c1.9-2.2,4.5-3.3,8-3.3c7,0,10.4,3.9,10.4,11.7V24c0,0.3,0,0.6-0.2,0.8C450.5,25,450.3,25.1,450,25z M440.6,12.9
			c-4.5,0-6.7,2.9-6.7,8.8H447c0-3-0.5-5.3-1.6-6.7C444.3,13.6,442.4,12.8,440.6,12.9L440.6,12.9z"/>
		<path class="st0" d="M468.7,9.8c2.4-0.2,4.7,0.7,6.5,2.3c1.5,1.5,2.3,3.8,2.3,6.7v17.4c0,0.3,0,0.6-0.2,0.8
			c-0.2,0.2-0.5,0.2-0.8,0.2h-1.9c-0.3,0-0.6,0-0.8-0.2c-0.2-0.2-0.3-0.5-0.2-0.8V19.6c0.1-1.7-0.4-3.4-1.4-4.8
			c-1.2-1.1-2.8-1.6-4.4-1.5c-1.8-0.1-3.6,0.7-4.8,2c-1.2,1.4-1.9,3.3-1.8,5.2v15.6c0,0.3,0,0.6-0.2,0.8c-0.3,0.2-0.5,0.2-0.8,0.2
			H458c-0.3,0-0.6,0-0.8-0.2c-0.2-0.2-0.3-0.5-0.2-0.8V11.5c0-0.3,0-0.6,0.2-0.8c0.3-0.2,0.5-0.2,0.8-0.2h1.8c0.3,0,0.6,0,0.8,0.2
			c0.2,0.2,0.3,0.5,0.2,0.8v1.8C462.6,10.9,465.2,9.8,468.7,9.8z"/>
		<path class="st0" d="M11.5,99c-3.3,0-5.8-1-7.5-3.2V106c0,0.3,0,0.6-0.2,0.8C3.6,106.9,3.3,107,3,107H1.1c-0.3,0-0.6,0-0.8-0.2
			C0,106.6,0,106.3,0,106V82.5c0-3.6,1-6.5,2.9-8.6s4.6-3.1,8.1-3.1c3.5,0,6.1,0.9,8.1,2.8c1.9,1.9,2.9,4.6,2.9,8v5.4
			C21.9,95,18.5,99,11.5,99z M17.9,87.1v-4.3c0-5.6-2.3-8.4-6.9-8.4c-4.6,0-6.9,2.8-7,8.4V87c0,2.8,0.6,4.8,1.8,6.3
			c1.3,1.5,3.2,2.3,5.2,2.2C15.6,95.5,17.9,92.7,17.9,87.1L17.9,87.1z"/>
		<path class="st0" d="M32,63v34.2c0,0.3,0,0.6-0.2,0.8c-0.2,0.2-0.5,0.2-0.8,0.2H29c-0.3,0-0.6,0-0.8-0.2c-0.2-0.2-0.3-0.5-0.2-0.8
			V63c0-0.3,0-0.6,0.2-0.8C28.4,62,28.7,62,29,62h1.9c0.3,0,0.6,0,0.8,0.2C31.9,62.4,32,62.7,32,63z"/>
		<path class="st0" d="M58.1,86.1H42v1c0,5.6,2.3,8.4,6.8,8.4c2.9,0,4.8-1.1,5.8-3.3c0.1-0.3,0.2-0.5,0.5-0.7
			c0.2-0.1,0.5-0.1,0.7-0.1h1.8c0.3,0,0.6,0,0.9,0.2c0.1,0.1,0.2,0.3,0.2,0.7c0,0.6-0.2,1.3-0.6,1.8c-0.3,0.7-0.8,1.4-1.3,1.9
			c-1,1-2.1,1.8-3.5,2.2c-1.5,0.5-3.1,0.8-4.7,0.8c-3.4,0-6.1-1-7.9-3S38,91.1,38,87.4v-3.8c0-4.1,0.9-7.2,2.8-9.4
			c1.8-2.2,4.5-3.3,8-3.3c7,0,10.5,3.9,10.5,11.7v2.6c0,0.3,0,0.6-0.2,0.8C58.8,86.1,58.5,86.2,58.1,86.1z M48.7,74
			c-4.5,0-6.7,2.9-6.7,8.8h13.1c0-3-0.5-5.3-1.6-6.7C52.4,74.7,50.6,73.9,48.7,74z"/>
		<path class="st0" d="M76.9,70.9c2.4-0.2,4.7,0.7,6.5,2.3c1.5,1.5,2.3,3.8,2.3,6.7v17.4c0,0.3,0,0.6-0.2,0.8
			c-0.3,0.2-0.5,0.2-0.8,0.2h-1.9c-0.3,0-0.6,0-0.8-0.2c-0.2-0.2-0.3-0.5-0.2-0.8V80.7c0-2.2-0.5-3.8-1.4-4.8
			c-1.2-1.1-2.8-1.6-4.4-1.5c-1.8-0.1-3.6,0.7-4.8,2c-1.3,1.4-1.9,3.3-1.8,5.2v15.6c0,0.3,0,0.6-0.2,0.8c-0.2,0.2-0.5,0.2-0.8,0.2
			h-1.9c-0.3,0-0.6,0-0.8-0.2c-0.2-0.2-0.3-0.5-0.2-0.8V72.6c0-0.3,0-0.6,0.2-0.8c0.2-0.2,0.5-0.2,0.8-0.2H68c0.3,0,0.6,0,0.8,0.2
			c0.2,0.2,0.3,0.5,0.2,0.8v1.8C70.8,72,73.4,70.9,76.9,70.9z"/>
		<path class="st0" d="M101.9,82c0.7,0,1.5,0,2.6,0.1s2.1,0.2,3.2,0.3v-3c0.1-1.5-0.3-2.9-1.3-4c-1.2-0.9-2.7-1.4-4.3-1.3
			c-1.3-0.1-2.5,0.2-3.7,0.7c-0.9,0.5-1.6,1.4-1.9,2.4c-0.1,0.3-0.2,0.5-0.4,0.7c-0.2,0.1-0.5,0.2-0.8,0.2h-1.8
			c-0.3,0-0.6,0-0.9-0.2c-0.2-0.2-0.3-0.5-0.2-0.8c0-0.5,0.2-1,0.4-1.5c0.3-0.6,0.6-1.1,1-1.6c0.9-1,2-1.8,3.3-2.3
			c1.6-0.6,3.3-0.8,5-0.8c3.4,0,5.8,0.7,7.3,2s2.2,3.5,2.2,6.4v10.3c0,3-0.8,5.3-2.3,6.8s-4,2.2-7.3,2.2h-0.8c-3.4,0-6-0.6-7.6-1.9
			c-1.7-1.3-2.5-3.3-2.5-6.2c0-3,0.9-5.2,2.6-6.6S98.2,82,101.9,82z M102.2,85.4c-2.6,0-4.4,0.4-5.4,1.2c-1.1,1.1-1.6,2.6-1.5,4.1
			c-0.1,1.4,0.4,2.7,1.4,3.6c0.9,0.8,2.6,1.1,4.9,1.1h0.4c1.6,0.1,3.1-0.4,4.3-1.4c1-1.3,1.5-3,1.3-4.7v-3.5c-1-0.1-2-0.3-3-0.3
			C103.6,85.4,102.8,85.3,102.2,85.4L102.2,85.4z"/>
		<path class="st0" d="M138.2,82c0.6,0,1.5,0,2.6,0.1s2.1,0.2,3.2,0.3v-3c0.1-1.5-0.3-2.9-1.3-4c-1.2-0.9-2.7-1.4-4.3-1.3
			c-1.3-0.1-2.5,0.2-3.7,0.7c-0.9,0.5-1.6,1.4-1.9,2.4c-0.1,0.3-0.2,0.5-0.4,0.7c-0.2,0.1-0.5,0.2-0.8,0.2h-1.8
			c-0.3,0-0.6,0-0.9-0.2c-0.2-0.2-0.3-0.5-0.2-0.8c0-0.5,0.2-1,0.4-1.5c0.3-0.6,0.6-1.1,1-1.6c0.9-1,2-1.8,3.3-2.3
			c1.6-0.6,3.3-0.8,5-0.8c3.4,0,5.8,0.7,7.3,2s2.2,3.3,2.2,6.3v10.4c0,3-0.8,5.3-2.3,6.8s-4,2.2-7.3,2.2h-0.8c-3.4,0-6-0.6-7.6-1.9
			s-2.5-3.3-2.5-6.2c0-3,0.9-5.2,2.6-6.6C131.9,82.7,134.6,82,138.2,82z M138.5,85.4c-2.6,0-4.4,0.4-5.4,1.2
			c-1.1,1.1-1.6,2.6-1.5,4.1c-0.1,1.3,0.4,2.7,1.4,3.6c0.9,0.8,2.6,1.1,4.9,1.1h0.4c1.6,0.1,3.1-0.4,4.3-1.4c0.9-1,1.3-2.5,1.3-4.7
			v-3.5c-1-0.1-2-0.3-3-0.3C139.9,85.4,139.1,85.3,138.5,85.4L138.5,85.4z"/>
		<path class="st0" d="M164,95.5c3.5,0,5.5-1.5,6-4.4c0-0.3,0.1-0.5,0.3-0.7c0.3-0.1,0.6-0.2,0.9-0.2h1.7c0.3,0,0.6,0,0.9,0.2
			c0.2,0.2,0.3,0.5,0.2,0.8c-0.1,1.5-0.6,3-1.5,4.2c-1.6,2.4-4.4,3.6-8.6,3.6c-3.4,0-6-0.9-7.8-2.8s-2.7-4.6-2.7-8.3v-5
			c0-3.9,0.9-6.9,2.7-8.9c1.8-2,4.4-3,7.8-3c3.7,0,6.4,0.9,8,2.8c1.2,1.3,1.9,3.1,1.9,4.9c0,0.3-0.1,0.5-0.2,0.8
			c-0.3,0.2-0.6,0.2-0.9,0.2h-1.6c-0.3,0-0.6,0-0.9-0.2c-0.2-0.2-0.3-0.4-0.3-0.7c-0.1-1.3-0.8-2.5-1.8-3.3
			c-1.2-0.8-2.6-1.2-4.1-1.2c-2.3,0-4,0.7-5,2c-1,1.3-1.5,3.5-1.6,6.5v4.3c0,2.9,0.5,5.1,1.6,6.4C160.3,94.9,162.1,95.7,164,95.5z"
			/>
		<path class="st0" d="M189.2,95.5c3.5,0,5.5-1.5,6-4.4c0-0.3,0.1-0.5,0.3-0.7c0.3-0.1,0.6-0.2,0.9-0.2h1.6c0.3,0,0.6,0,0.9,0.2
			c0.2,0.2,0.3,0.5,0.2,0.8c-0.1,1.5-0.6,3-1.5,4.2c-1.5,2.4-4.4,3.6-8.5,3.6c-3.4,0-6-0.9-7.8-2.8s-2.7-4.6-2.7-8.3v-5
			c0-3.9,0.9-6.9,2.7-8.9c1.8-2,4.4-3,7.8-3c3.7,0,6.4,0.9,8,2.8c1.2,1.3,1.9,3.1,1.9,4.9c0,0.3-0.1,0.5-0.2,0.8
			c-0.3,0.2-0.6,0.2-0.9,0.2h-1.6c-0.3,0-0.6,0-0.9-0.2c-0.2-0.2-0.3-0.4-0.3-0.7c-0.1-1.3-0.8-2.5-1.8-3.3
			c-1.2-0.8-2.6-1.2-4.1-1.2c-2.3,0-4,0.7-5,2c-1,1.3-1.5,3.5-1.6,6.5v4.3c0,2.9,0.5,5.1,1.6,6.4C185.5,94.9,187.4,95.7,189.2,95.5z
			"/>
		<path class="st0" d="M206.9,66.8c-0.7,0-1.3-0.2-1.9-0.6c-0.5-0.4-0.7-1-0.7-1.7v-0.8c0-0.6,0.2-1.2,0.7-1.6
			c0.5-0.4,1.2-0.6,1.9-0.6c0.7,0,1.4,0.2,1.9,0.6c0.5,0.4,0.7,1,0.7,1.6v0.8c0,0.6-0.2,1.3-0.7,1.7
			C208.3,66.7,207.6,66.9,206.9,66.8z M208.9,72.6v24.6c0,0.3,0,0.6-0.2,0.8c-0.2,0.2-0.5,0.2-0.8,0.2H206c-0.3,0-0.6,0-0.8-0.2
			c-0.2-0.2-0.3-0.5-0.2-0.8V72.6c0-0.3,0-0.6,0.2-0.8c0.2-0.2,0.5-0.2,0.8-0.2h1.9c0.3,0,0.6,0,0.8,0.2
			C208.9,72,209,72.3,208.9,72.6L208.9,72.6z"/>
		<path class="st0" d="M225.9,99c-3.5,0-6.2-1-8.1-2.9s-2.9-4.7-2.9-8.2v-5.4c0-3.7,1-6.5,2.9-8.6s4.6-3.1,8.1-3.1
			c3.5,0,6.2,1,8.1,2.9s2.9,4.7,2.9,8.2v5.4c0,3.7-1,6.5-2.9,8.6C232.1,97.9,229.4,99,225.9,99z M225.9,95.5c4.7,0,7-2.8,7-8.4v-4.3
			c0-5.6-2.3-8.4-7-8.4c-4.7,0-7,2.8-7,8.4V87C219,92.7,221.3,95.5,225.9,95.5L225.9,95.5z M228.4,61.1h2.2c0.4,0,0.7,0.1,0.7,0.4
			c0,0.2-0.1,0.4-0.2,0.6l-3.6,5c-0.2,0.4-0.5,0.7-0.8,1c-0.3,0.1-0.6,0.2-0.9,0.2H224c-0.4,0-0.7-0.1-0.7-0.4
			c0-0.2,0.1-0.4,0.2-0.6l3.1-5c0.2-0.4,0.4-0.7,0.7-0.9C227.7,61.2,228,61.1,228.4,61.1L228.4,61.1z"/>
		<path class="st0" d="M254.7,70.9c2.4-0.2,4.7,0.7,6.5,2.3c1.5,1.5,2.3,3.8,2.3,6.7v17.4c0,0.3,0,0.6-0.2,0.8
			c-0.2,0.2-0.5,0.2-0.8,0.2h-1.9c-0.3,0-0.6,0-0.8-0.2c-0.2-0.2-0.3-0.5-0.2-0.8V80.7c0.1-1.7-0.4-3.4-1.4-4.8
			c-1.2-1.1-2.8-1.6-4.4-1.5c-1.8-0.1-3.6,0.7-4.8,2c-1.2,1.4-1.9,3.3-1.8,5.2v15.6c0,0.3,0,0.6-0.2,0.8c-0.3,0.2-0.5,0.2-0.8,0.2
			H244c-0.3,0-0.6,0-0.8-0.2c-0.2-0.2-0.3-0.5-0.2-0.8V72.6c0-0.3,0-0.6,0.2-0.8c0.2-0.2,0.5-0.2,0.8-0.2h1.8c0.3,0,0.6,0,0.8,0.2
			c0.2,0.2,0.3,0.5,0.2,0.8v1.8C248.6,72,251.2,70.9,254.7,70.9z"/>
	</g>
</g>
</svg>
