<svg xmlns="http://www.w3.org/2000/svg" viewBox="0 0 202.42 40.82"><defs><style>.cls-1{fill:#fff;}</style></defs><g id="Capa_2" data-name="Capa 2"><g id="Capa_1-2" data-name="Capa 1"><path class="cls-1" d="M9.72,14a.42.42,0,0,1,.12-.3.74.74,0,0,1,.37-.06h.73a.63.63,0,0,1,.37.08.45.45,0,0,1,.09.32,4.6,4.6,0,0,1-.28,1.62,3.51,3.51,0,0,1-.79,1.26,5.43,5.43,0,0,1-4,1.38,6,6,0,0,1-2.91-.66,4,4,0,0,1-1.79-2,5.88,5.88,0,0,1-.34-1.36,14.47,14.47,0,0,1-.1-1.91V8.88a14.73,14.73,0,0,1,.1-2,5.58,5.58,0,0,1,.34-1.34c.77-1.94,2.39-2.9,4.87-2.9A4.87,4.87,0,0,1,10.37,4a4,4,0,0,1,1,2.86.41.41,0,0,1-.09.31.55.55,0,0,1-.37.09h-.78a.59.59,0,0,1-.36-.08.35.35,0,0,1-.12-.28C9.54,5.1,8.46,4.18,6.43,4.18A3.16,3.16,0,0,0,3.77,5.24a5.56,5.56,0,0,0-.83,3.39v3.74a5.51,5.51,0,0,0,.83,3.37A3.12,3.12,0,0,0,6.4,16.8Q9.47,16.8,9.72,14Z" transform="translate(-1.03 -2.65)"/><path class="cls-1" d="M21.59,13H14.93v.4q0,3.46,2.81,3.46a2.33,2.33,0,0,0,2.38-1.36.71.71,0,0,1,.19-.31.62.62,0,0,1,.29-.05h.76a.72.72,0,0,1,.37.06.35.35,0,0,1,.09.28,1.87,1.87,0,0,1-.23.75,3.71,3.71,0,0,1-.53.8,3.44,3.44,0,0,1-1.43.92,5.4,5.4,0,0,1-1.95.34A4.2,4.2,0,0,1,14.42,17a5,5,0,0,1-1.15-3.53V11.93A5.86,5.86,0,0,1,14.42,8,4,4,0,0,1,17.7,6.68Q22,6.68,22,11.49v1.07c0,.17,0,.28-.1.33A.48.48,0,0,1,21.59,13ZM17.7,8c-1.83,0-2.76,1.21-2.77,3.63h5.42a4.7,4.7,0,0,0-.65-2.75A2.32,2.32,0,0,0,17.7,8Z" transform="translate(-1.03 -2.65)"/><path class="cls-1" d="M26.12,3.44V17.56a.45.45,0,0,1-.09.33.51.51,0,0,1-.35.09h-.77a.51.51,0,0,1-.35-.09.45.45,0,0,1-.1-.33V3.44a.45.45,0,0,1,.1-.33A.51.51,0,0,1,24.91,3h.77a.51.51,0,0,1,.35.09A.45.45,0,0,1,26.12,3.44Z" transform="translate(-1.03 -2.65)"/><path class="cls-1" d="M36.92,13H30.26v.4q0,3.46,2.81,3.46a2.33,2.33,0,0,0,2.38-1.36.71.71,0,0,1,.19-.31.62.62,0,0,1,.29-.05h.76a.72.72,0,0,1,.37.06.35.35,0,0,1,.09.28,1.87,1.87,0,0,1-.23.75,3.71,3.71,0,0,1-.53.8,3.44,3.44,0,0,1-1.43.92,5.4,5.4,0,0,1-2,.34A4.2,4.2,0,0,1,29.75,17,5,5,0,0,1,28.6,13.5V11.93A5.86,5.86,0,0,1,29.75,8,4,4,0,0,1,33,6.68q4.34,0,4.33,4.81v1.07c0,.17,0,.28-.1.33A.48.48,0,0,1,36.92,13ZM33,8c-1.83,0-2.76,1.21-2.77,3.63h5.42A4.7,4.7,0,0,0,35,8.86,2.32,2.32,0,0,0,33,8Z" transform="translate(-1.03 -2.65)"/><path class="cls-1" d="M39.58,13.9V3.44a.45.45,0,0,1,.1-.33A.51.51,0,0,1,40,3h.77a.51.51,0,0,1,.35.09.45.45,0,0,1,.09.33V8a3.76,3.76,0,0,1,3.11-1.3,4.13,4.13,0,0,1,3.17,1.18,4.82,4.82,0,0,1,1.12,3.4v2.33A4.77,4.77,0,0,1,47.45,17a4.41,4.41,0,0,1-3.33,1.23,4.64,4.64,0,0,1-3.35-1.14A4.3,4.3,0,0,1,39.58,13.9Zm1.66-2.31v1.77q0,3.48,2.88,3.48c1.9,0,2.86-1.16,2.86-3.48V11.59q0-3.48-2.88-3.48A2.56,2.56,0,0,0,42,9,4,4,0,0,0,41.24,11.59Z" transform="translate(-1.03 -2.65)"/><path class="cls-1" d="M52.73,7.39V9a3.45,3.45,0,0,1,1.21-1.46A3.13,3.13,0,0,1,55.75,7H56c.15,0,.25,0,.29.09a.59.59,0,0,1,.06.33v.76a.59.59,0,0,1-.06.33c0,.06-.14.09-.29.09h-.55a2.27,2.27,0,0,0-2,1,4.38,4.38,0,0,0-.74,2.59v5.36a.45.45,0,0,1-.09.33.53.53,0,0,1-.35.09h-.78a.5.5,0,0,1-.34-.09.41.41,0,0,1-.1-.33V7.39c0-.17,0-.28.1-.33A.5.5,0,0,1,51.55,7h.74a.53.53,0,0,1,.35.09A.43.43,0,0,1,52.73,7.39Z" transform="translate(-1.03 -2.65)"/><path class="cls-1" d="M62,11.26c.26,0,.62,0,1.06,0s.88.07,1.31.12V10.19a2.26,2.26,0,0,0-.53-1.67A2.47,2.47,0,0,0,62,8a3.35,3.35,0,0,0-1.51.28,1.81,1.81,0,0,0-.8,1,1,1,0,0,1-.17.3.49.49,0,0,1-.31.06h-.76a.52.52,0,0,1-.36-.09.37.37,0,0,1-.1-.31,1.57,1.57,0,0,1,.17-.63,2.59,2.59,0,0,1,.42-.65A3.38,3.38,0,0,1,60,7,5.84,5.84,0,0,1,62,6.68a4.58,4.58,0,0,1,3,.81A3.38,3.38,0,0,1,66,10.14v4.31a3.76,3.76,0,0,1-1,2.81,4.22,4.22,0,0,1-3,.93H61.7a5.1,5.1,0,0,1-3.15-.8,3,3,0,0,1-1-2.54,3.27,3.27,0,0,1,1.08-2.73A5.31,5.31,0,0,1,62,11.26Zm.12,1.38a3.61,3.61,0,0,0-2.23.51,2,2,0,0,0-.62,1.68,1.77,1.77,0,0,0,.59,1.49,3.3,3.3,0,0,0,2,.46H62a2.31,2.31,0,0,0,1.77-.6,2.82,2.82,0,0,0,.54-1.92V12.83l-1.25-.14C62.66,12.66,62.33,12.64,62.07,12.64Z" transform="translate(-1.03 -2.65)"/><path class="cls-1" d="M73.52,6.68a3.62,3.62,0,0,1,2.68.94,3.77,3.77,0,0,1,.93,2.75v7.19a.45.45,0,0,1-.09.33.53.53,0,0,1-.35.09h-.78a.5.5,0,0,1-.34-.09.41.41,0,0,1-.1-.33V10.73a2.83,2.83,0,0,0-.57-2,2.37,2.37,0,0,0-1.82-.62,2.61,2.61,0,0,0-2,.81,3,3,0,0,0-.75,2.15v6.45a.41.41,0,0,1-.1.33.5.5,0,0,1-.34.09h-.78a.53.53,0,0,1-.35-.09.45.45,0,0,1-.09-.33V7.39a.43.43,0,0,1,.09-.33A.53.53,0,0,1,69.11,7h.73a.51.51,0,0,1,.35.09.43.43,0,0,1,.1.33v.74A3.77,3.77,0,0,1,73.52,6.68Z" transform="translate(-1.03 -2.65)"/><path class="cls-1" d="M83.81,6.68A3.73,3.73,0,0,1,86.9,8V3.44A.45.45,0,0,1,87,3.11.51.51,0,0,1,87.34,3h.77a.51.51,0,0,1,.35.09.45.45,0,0,1,.1.33v10A5,5,0,0,1,87.37,17,4.38,4.38,0,0,1,84,18.27a4.5,4.5,0,0,1-3.33-1.18A4.42,4.42,0,0,1,79.5,13.8V11.47A5.08,5.08,0,0,1,80.65,8,4,4,0,0,1,83.81,6.68Zm-2.65,4.91v1.77c0,2.32,1,3.48,2.86,3.48s2.88-1.16,2.88-3.48V11.59c0-2.32-1-3.48-2.86-3.48S81.16,9.27,81.16,11.59Z" transform="translate(-1.03 -2.65)"/><path class="cls-1" d="M95.36,18.27A4.5,4.5,0,0,1,92,17.07a4.6,4.6,0,0,1-1.19-3.38V11.47A4.94,4.94,0,0,1,92,7.94a4.38,4.38,0,0,1,3.35-1.26,4.5,4.5,0,0,1,3.35,1.2,4.58,4.58,0,0,1,1.19,3.38v2.22A5,5,0,0,1,98.71,17,4.38,4.38,0,0,1,95.36,18.27Zm0-1.43q2.88,0,2.88-3.48V11.59q0-3.48-2.88-3.48t-2.88,3.48v1.77Q92.48,16.84,95.36,16.84Z" transform="translate(-1.03 -2.65)"/><path class="cls-1" d="M110.65,11.26c.26,0,.62,0,1.06,0s.88.07,1.31.12V10.19a2.22,2.22,0,0,0-.54-1.67A2.43,2.43,0,0,0,110.73,8a3.35,3.35,0,0,0-1.51.28,1.81,1.81,0,0,0-.8,1,1.33,1.33,0,0,1-.17.3.49.49,0,0,1-.31.06h-.76a.57.57,0,0,1-.37-.09.41.41,0,0,1-.09-.31,1.57,1.57,0,0,1,.17-.63,2.59,2.59,0,0,1,.42-.65,3.38,3.38,0,0,1,1.36-1,5.8,5.8,0,0,1,2.06-.31,4.53,4.53,0,0,1,3,.81,3.34,3.34,0,0,1,.93,2.65v4.31a3.72,3.72,0,0,1-1,2.81,4.17,4.17,0,0,1-3,.93h-.31a5.1,5.1,0,0,1-3.15-.8,3,3,0,0,1-1-2.54,3.27,3.27,0,0,1,1.08-2.73A5.29,5.29,0,0,1,110.65,11.26Zm.12,1.38a3.59,3.59,0,0,0-2.23.51,2,2,0,0,0-.62,1.68,1.79,1.79,0,0,0,.58,1.49,3.36,3.36,0,0,0,2,.46h.19a2.27,2.27,0,0,0,1.76-.6,2.77,2.77,0,0,0,.55-1.92V12.83l-1.25-.14C111.36,12.66,111,12.64,110.77,12.64Z" transform="translate(-1.03 -2.65)"/><path class="cls-1" d="M123.39,3.44V17.56a.45.45,0,0,1-.09.33A.51.51,0,0,1,123,18h-.77a.51.51,0,0,1-.35-.09.45.45,0,0,1-.09-.33V3.44a.45.45,0,0,1,.09-.33.51.51,0,0,1,.35-.09H123a.51.51,0,0,1,.35.09A.45.45,0,0,1,123.39,3.44Z" transform="translate(-1.03 -2.65)"/><path class="cls-1" d="M130.41,18.27a4.5,4.5,0,0,1-3.35-1.2,4.6,4.6,0,0,1-1.19-3.38V11.47a4.94,4.94,0,0,1,1.19-3.53,4.38,4.38,0,0,1,3.35-1.26,4.5,4.5,0,0,1,3.35,1.2,4.58,4.58,0,0,1,1.18,3.38v2.22A5,5,0,0,1,133.76,17,4.38,4.38,0,0,1,130.41,18.27Zm0-1.43c1.92,0,2.87-1.16,2.87-3.48V11.59c0-2.32-.95-3.48-2.87-3.48s-2.88,1.16-2.88,3.48v1.77Q127.53,16.84,130.41,16.84Z" transform="translate(-1.03 -2.65)"/><path class="cls-1" d="M141,18.27a4.76,4.76,0,0,1-3.38-1,2.45,2.45,0,0,1-.82-1.85.37.37,0,0,1,.1-.31.52.52,0,0,1,.36-.09h.61a.68.68,0,0,1,.35.07.41.41,0,0,1,.13.29,1.84,1.84,0,0,0,.81,1.22,3.52,3.52,0,0,0,1.8.38c1.59,0,2.39-.57,2.39-1.7a1.67,1.67,0,0,0-.44-1.25,3.14,3.14,0,0,0-1.47-.73l-1.87-.48c-1.68-.45-2.52-1.4-2.52-2.86v-.1a2.81,2.81,0,0,1,1.06-2.3A4.46,4.46,0,0,1,141,6.68a4.21,4.21,0,0,1,3.19,1.05,2.41,2.41,0,0,1,.76,1.78.4.4,0,0,1-.1.32.59.59,0,0,1-.36.08h-.61a.74.74,0,0,1-.37-.06.41.41,0,0,1-.12-.29c-.16-1.06-1-1.58-2.54-1.58a2.5,2.5,0,0,0-1.62.46,1.56,1.56,0,0,0-.58,1.3,1.31,1.31,0,0,0,.45,1.07,4.36,4.36,0,0,0,1.69.7l1.72.44A2.93,2.93,0,0,1,145,15v.1Q145,18.27,141,18.27Z" transform="translate(-1.03 -2.65)"/><path class="cls-1" d="M151.49,13.9V3.44a.41.41,0,0,1,.1-.33.48.48,0,0,1,.34-.09h.78a.53.53,0,0,1,.35.09.45.45,0,0,1,.09.33V8a3.76,3.76,0,0,1,3.11-1.3,4.13,4.13,0,0,1,3.17,1.18,4.82,4.82,0,0,1,1.11,3.4v2.33A4.77,4.77,0,0,1,159.36,17,4.42,4.42,0,0,1,156,18.27a4.64,4.64,0,0,1-3.35-1.14A4.3,4.3,0,0,1,151.49,13.9Zm1.66-2.31v1.77q0,3.48,2.88,3.48t2.85-3.48V11.59q0-3.48-2.87-3.48a2.56,2.56,0,0,0-2.13.89A4,4,0,0,0,153.15,11.59Z" transform="translate(-1.03 -2.65)"/><path class="cls-1" d="M170.92,13h-6.66v.4q0,3.46,2.81,3.46a2.33,2.33,0,0,0,2.38-1.36.71.71,0,0,1,.19-.31.62.62,0,0,1,.29-.05h.76a.72.72,0,0,1,.37.06.35.35,0,0,1,.09.28,1.87,1.87,0,0,1-.23.75,3.71,3.71,0,0,1-.53.8,3.51,3.51,0,0,1-1.43.92,5.4,5.4,0,0,1-2,.34A4.24,4.24,0,0,1,163.74,17a5,5,0,0,1-1.14-3.53V11.93A5.92,5.92,0,0,1,163.74,8,4.06,4.06,0,0,1,167,6.68q4.33,0,4.33,4.81v1.07c0,.17,0,.28-.1.33A.5.5,0,0,1,170.92,13ZM167,8c-1.83,0-2.76,1.21-2.77,3.63h5.42A4.7,4.7,0,0,0,169,8.86,2.32,2.32,0,0,0,167,8Z" transform="translate(-1.03 -2.65)"/><path class="cls-1" d="M173.58,13.9V3.44a.41.41,0,0,1,.1-.33A.5.5,0,0,1,174,3h.78a.53.53,0,0,1,.35.09.45.45,0,0,1,.09.33V8a3.76,3.76,0,0,1,3.11-1.3,4.13,4.13,0,0,1,3.17,1.18,4.82,4.82,0,0,1,1.11,3.4v2.33A4.77,4.77,0,0,1,181.45,17a4.41,4.41,0,0,1-3.33,1.23,4.64,4.64,0,0,1-3.35-1.14A4.3,4.3,0,0,1,173.58,13.9Zm1.66-2.31v1.77q0,3.48,2.88,3.48T181,13.36V11.59c0-2.32-.95-3.48-2.87-3.48A2.56,2.56,0,0,0,176,9,4,4,0,0,0,175.24,11.59Z" transform="translate(-1.03 -2.65)"/><path class="cls-1" d="M193,13h-6.66v.4q0,3.46,2.81,3.46a2.33,2.33,0,0,0,2.38-1.36.71.71,0,0,1,.19-.31.62.62,0,0,1,.29-.05h.76a.72.72,0,0,1,.37.06.35.35,0,0,1,.09.28,1.87,1.87,0,0,1-.23.75,3.71,3.71,0,0,1-.53.8,3.44,3.44,0,0,1-1.43.92,5.4,5.4,0,0,1-2,.34A4.2,4.2,0,0,1,185.84,17a5,5,0,0,1-1.15-3.53V11.93A5.86,5.86,0,0,1,185.84,8a4,4,0,0,1,3.28-1.36q4.33,0,4.33,4.81v1.07c0,.17,0,.28-.1.33A.48.48,0,0,1,193,13Zm-3.89-5c-1.83,0-2.76,1.21-2.77,3.63h5.42a4.7,4.7,0,0,0-.65-2.75A2.32,2.32,0,0,0,189.12,8Zm1.07-5.33h.93c.18,0,.27.05.27.16a.53.53,0,0,1-.08.23l-1.49,2.08a1.56,1.56,0,0,1-.34.4.75.75,0,0,1-.36.07h-.71c-.18,0-.27-.06-.27-.17a.45.45,0,0,1,.08-.23l1.28-2.08a1.31,1.31,0,0,1,.31-.39A.71.71,0,0,1,190.19,2.65Z" transform="translate(-1.03 -2.65)"/><path class="cls-1" d="M199.43,18.27a4.78,4.78,0,0,1-3.38-1,2.48,2.48,0,0,1-.82-1.85.37.37,0,0,1,.1-.31.52.52,0,0,1,.36-.09h.61a.68.68,0,0,1,.35.07.46.46,0,0,1,.14.29,1.77,1.77,0,0,0,.81,1.22,3.48,3.48,0,0,0,1.79.38c1.6,0,2.4-.57,2.4-1.7a1.68,1.68,0,0,0-.45-1.25,3.14,3.14,0,0,0-1.47-.73L198,12.79c-1.67-.45-2.52-1.4-2.52-2.86v-.1a2.79,2.79,0,0,1,1.07-2.3,4.41,4.41,0,0,1,2.86-.85,4.19,4.19,0,0,1,3.19,1.05,2.41,2.41,0,0,1,.76,1.78.44.44,0,0,1-.09.32.65.65,0,0,1-.37.08h-.61a.77.77,0,0,1-.37-.06.38.38,0,0,1-.11-.29c-.17-1.06-1-1.58-2.54-1.58a2.51,2.51,0,0,0-1.63.46,1.56,1.56,0,0,0-.58,1.3,1.31,1.31,0,0,0,.45,1.07,4.44,4.44,0,0,0,1.69.7l1.72.44A2.93,2.93,0,0,1,203.44,15v.1C203.44,17.22,202.11,18.27,199.43,18.27Z" transform="translate(-1.03 -2.65)"/><path class="cls-1" d="M5.38,42c1.42,0,2.24-.6,2.45-1.8A.46.46,0,0,1,8,40a.62.62,0,0,1,.37-.07H9a.65.65,0,0,1,.37.08.44.44,0,0,1,.09.32A3.09,3.09,0,0,1,8.86,42C8.22,43,7,43.47,5.33,43.47a4.19,4.19,0,0,1-3.2-1.17A4.79,4.79,0,0,1,1,38.89V36.81a5.43,5.43,0,0,1,1.1-3.68,4,4,0,0,1,3.2-1.25A4.23,4.23,0,0,1,8.65,33a3,3,0,0,1,.8,2,.45.45,0,0,1-.09.32.65.65,0,0,1-.37.08H8.32A.72.72,0,0,1,8,35.4a.46.46,0,0,1-.12-.29,1.86,1.86,0,0,0-.73-1.35,2.7,2.7,0,0,0-1.68-.47,2.47,2.47,0,0,0-2.08.84,4.3,4.3,0,0,0-.65,2.66v1.77a4.27,4.27,0,0,0,.65,2.64A2.41,2.41,0,0,0,5.38,42Z" transform="translate(-1.03 -2.65)"/><path class="cls-1" d="M16,43.47a4.5,4.5,0,0,1-3.35-1.2,4.58,4.58,0,0,1-1.19-3.38V36.67a4.94,4.94,0,0,1,1.19-3.53A4.38,4.38,0,0,1,16,31.88a4.5,4.5,0,0,1,3.35,1.2,4.58,4.58,0,0,1,1.19,3.38v2.22a5,5,0,0,1-1.19,3.53A4.38,4.38,0,0,1,16,43.47ZM16,42q2.88,0,2.88-3.48V36.79q0-3.48-2.88-3.48t-2.88,3.48v1.77Q13.08,42,16,42Z" transform="translate(-1.03 -2.65)"/><path class="cls-1" d="M27.82,31.88a3.59,3.59,0,0,1,2.68.94,3.73,3.73,0,0,1,.94,2.75v7.19a.41.41,0,0,1-.1.33.5.5,0,0,1-.34.09h-.78a.53.53,0,0,1-.35-.09.45.45,0,0,1-.09-.33V35.93a2.78,2.78,0,0,0-.58-2,2.4,2.4,0,0,0-1.82-.62,2.59,2.59,0,0,0-2,.81,3,3,0,0,0-.76,2.15v6.45a.45.45,0,0,1-.09.33.51.51,0,0,1-.35.09h-.77a.51.51,0,0,1-.35-.09.45.45,0,0,1-.1-.33V32.59a.43.43,0,0,1,.1-.33.51.51,0,0,1,.35-.09h.73a.53.53,0,0,1,.35.09.43.43,0,0,1,.09.33v.74A3.79,3.79,0,0,1,27.82,31.88Z" transform="translate(-1.03 -2.65)"/><path class="cls-1" d="M42.5,36.46c.27,0,.62,0,1.06,0l1.32.12V35.39a2.22,2.22,0,0,0-.54-1.67,2.44,2.44,0,0,0-1.75-.52,3.35,3.35,0,0,0-1.51.28,1.81,1.81,0,0,0-.8,1,1.33,1.33,0,0,1-.17.3.53.53,0,0,1-.32.06H39a.55.55,0,0,1-.37-.09.41.41,0,0,1-.09-.31,1.54,1.54,0,0,1,.16-.63,3.3,3.3,0,0,1,.42-.65,3.42,3.42,0,0,1,1.37-1,5.8,5.8,0,0,1,2.06-.31,4.53,4.53,0,0,1,3,.81,3.34,3.34,0,0,1,.93,2.65v4.31a3.72,3.72,0,0,1-1,2.81,4.19,4.19,0,0,1-3,.93h-.32a5.14,5.14,0,0,1-3.15-.8,3,3,0,0,1-1-2.54,3.27,3.27,0,0,1,1.08-2.73A5.33,5.33,0,0,1,42.5,36.46Zm.13,1.38a3.65,3.65,0,0,0-2.24.51A2,2,0,0,0,39.77,40a1.8,1.8,0,0,0,.59,1.49,3.34,3.34,0,0,0,2,.46h.19a2.27,2.27,0,0,0,1.76-.6,2.82,2.82,0,0,0,.55-1.92V38l-1.25-.14C43.21,37.86,42.88,37.84,42.63,37.84Z" transform="translate(-1.03 -2.65)"/><path class="cls-1" d="M53.15,42q2.15,0,2.46-1.8a.41.41,0,0,1,.11-.29.67.67,0,0,1,.37-.07h.69a.61.61,0,0,1,.37.08.43.43,0,0,1,.1.32A3.17,3.17,0,0,1,56.64,42c-.65,1-1.82,1.45-3.53,1.45a4.18,4.18,0,0,1-3.2-1.17,4.75,4.75,0,0,1-1.11-3.41V36.81a5.38,5.38,0,0,1,1.11-3.68,4,4,0,0,1,3.2-1.25A4.26,4.26,0,0,1,56.43,33a3,3,0,0,1,.79,2,.45.45,0,0,1-.09.32.63.63,0,0,1-.37.08h-.67a.77.77,0,0,1-.37-.07.41.41,0,0,1-.11-.29,1.87,1.87,0,0,0-.74-1.35,2.7,2.7,0,0,0-1.68-.47,2.48,2.48,0,0,0-2.08.84,4.37,4.37,0,0,0-.65,2.66v1.77a4.34,4.34,0,0,0,.65,2.64A2.43,2.43,0,0,0,53.15,42Z" transform="translate(-1.03 -2.65)"/><path class="cls-1" d="M63.55,42c1.42,0,2.24-.6,2.45-1.8a.46.46,0,0,1,.12-.29.62.62,0,0,1,.37-.07h.69a.65.65,0,0,1,.37.08.44.44,0,0,1,.09.32A3.09,3.09,0,0,1,67,42c-.64,1-1.82,1.45-3.53,1.45a4.19,4.19,0,0,1-3.2-1.17,4.79,4.79,0,0,1-1.1-3.41V36.81a5.43,5.43,0,0,1,1.1-3.68,4,4,0,0,1,3.2-1.25A4.23,4.23,0,0,1,66.82,33a3,3,0,0,1,.8,2,.41.41,0,0,1-.1.32.59.59,0,0,1-.36.08h-.67a.72.72,0,0,1-.37-.07.46.46,0,0,1-.12-.29,1.86,1.86,0,0,0-.73-1.35,2.7,2.7,0,0,0-1.68-.47,2.47,2.47,0,0,0-2.08.84,4.3,4.3,0,0,0-.65,2.66v1.77a4.27,4.27,0,0,0,.65,2.64A2.41,2.41,0,0,0,63.55,42Z" transform="translate(-1.03 -2.65)"/><path class="cls-1" d="M70.85,30.22a1.09,1.09,0,0,1-.76-.25.89.89,0,0,1-.29-.7v-.33a.84.84,0,0,1,.29-.67,1.09,1.09,0,0,1,.76-.26,1.17,1.17,0,0,1,.8.26.82.82,0,0,1,.3.67v.33a.87.87,0,0,1-.3.7A1.16,1.16,0,0,1,70.85,30.22Zm.82,2.37V42.76a.45.45,0,0,1-.09.33.51.51,0,0,1-.35.09h-.78a.5.5,0,0,1-.34-.09.41.41,0,0,1-.1-.33V32.59c0-.17,0-.28.1-.33a.5.5,0,0,1,.34-.09h.78a.51.51,0,0,1,.35.09A.43.43,0,0,1,71.67,32.59Z" transform="translate(-1.03 -2.65)"/><path class="cls-1" d="M78.69,43.47a4.49,4.49,0,0,1-3.35-1.2,4.58,4.58,0,0,1-1.19-3.38V36.67a4.94,4.94,0,0,1,1.19-3.53,4.37,4.37,0,0,1,3.35-1.26A4.52,4.52,0,0,1,82,33.08a4.58,4.58,0,0,1,1.18,3.38v2.22A5,5,0,0,1,82,42.21,4.4,4.4,0,0,1,78.69,43.47Zm0-1.43q2.86,0,2.87-3.48V36.79q0-3.48-2.87-3.48t-2.88,3.48v1.77Q75.81,42,78.69,42Z" transform="translate(-1.03 -2.65)"/><path class="cls-1" d="M90.55,31.88a3.6,3.6,0,0,1,2.68.94,3.77,3.77,0,0,1,.93,2.75v7.19a.45.45,0,0,1-.09.33.51.51,0,0,1-.35.09h-.78a.5.5,0,0,1-.34-.09.45.45,0,0,1-.1-.33V35.93a2.83,2.83,0,0,0-.57-2,2.4,2.4,0,0,0-1.82-.62,2.61,2.61,0,0,0-2,.81,3,3,0,0,0-.75,2.15v6.45a.41.41,0,0,1-.1.33.48.48,0,0,1-.34.09h-.78a.53.53,0,0,1-.35-.09.45.45,0,0,1-.09-.33V32.59a.43.43,0,0,1,.09-.33.53.53,0,0,1,.35-.09h.74a.5.5,0,0,1,.34.09c.07.05.1.16.1.33v.74A3.77,3.77,0,0,1,90.55,31.88Z" transform="translate(-1.03 -2.65)"/><path class="cls-1" d="M104.85,38.18H98.2v.4c0,2.31.93,3.46,2.81,3.46a2.31,2.31,0,0,0,2.37-1.36.82.82,0,0,1,.19-.31.71.71,0,0,1,.3,0h.75a.76.76,0,0,1,.38.06c.06,0,.08.14.08.28a1.72,1.72,0,0,1-.23.75,3.68,3.68,0,0,1-.52.8,3.51,3.51,0,0,1-1.43.92,5.4,5.4,0,0,1-2,.34,4.21,4.21,0,0,1-3.27-1.24,5,5,0,0,1-1.14-3.53V37.13a5.92,5.92,0,0,1,1.14-3.89A4,4,0,0,1,101,31.88q4.32,0,4.32,4.81v1.07a.43.43,0,0,1-.09.33A.51.51,0,0,1,104.85,38.18Zm-3.88-5q-2.76,0-2.77,3.63h5.41a4.63,4.63,0,0,0-.65-2.75A2.3,2.3,0,0,0,101,33.18Z" transform="translate(-1.03 -2.65)"/><path class="cls-1" d="M111.28,43.47a4.75,4.75,0,0,1-3.38-1,2.45,2.45,0,0,1-.82-1.85.41.41,0,0,1,.09-.31.57.57,0,0,1,.37-.09h.61a.71.71,0,0,1,.35.07.46.46,0,0,1,.13.29,1.84,1.84,0,0,0,.81,1.22,3.49,3.49,0,0,0,1.8.38c1.59,0,2.39-.57,2.39-1.7a1.72,1.72,0,0,0-.44-1.25,3.19,3.19,0,0,0-1.47-.73L109.85,38c-1.68-.45-2.52-1.4-2.52-2.86V35a2.78,2.78,0,0,1,1.06-2.3,4.44,4.44,0,0,1,2.87-.85,4.21,4.21,0,0,1,3.19,1.05,2.44,2.44,0,0,1,.75,1.78.44.44,0,0,1-.09.32.63.63,0,0,1-.37.08h-.61a.72.72,0,0,1-.36-.06c-.07,0-.11-.14-.12-.29-.17-1-1-1.58-2.54-1.58a2.55,2.55,0,0,0-1.63.46,1.59,1.59,0,0,0-.58,1.3,1.35,1.35,0,0,0,.46,1.08,4.55,4.55,0,0,0,1.69.69l1.72.44a2.93,2.93,0,0,1,2.52,3.07v.1Q115.29,43.47,111.28,43.47Z" transform="translate(-1.03 -2.65)"/></g></g></svg>