<svg xmlns="http://www.w3.org/2000/svg" viewBox="0 0 314.92 19.08"><defs><style>.cls-1{fill:#fff;}</style></defs><g id="Capa_2" data-name="Capa 2"><g id="Layer_1" data-name="Layer 1"><path class="cls-1" d="M.44.38h4.3a6,6,0,0,1,3,.74,3.86,3.86,0,0,1,1.77,2A9.28,9.28,0,0,1,10,6.38V9.57a11.45,11.45,0,0,1-.12,1.79,6,6,0,0,1-.37,1.37,4.05,4.05,0,0,1-1.76,2,5.67,5.67,0,0,1-2.92.72H.44a.56.56,0,0,1-.34-.08A.43.43,0,0,1,0,15V.8A.41.41,0,0,1,.1.47.5.5,0,0,1,.44.38ZM1.69,1.82V14h3A3.26,3.26,0,0,0,7.41,13a5.22,5.22,0,0,0,.87-3.33V6.23a5.26,5.26,0,0,0-.87-3.34A3.29,3.29,0,0,0,4.7,1.82Z"/><path class="cls-1" d="M13.56,2.39a1.13,1.13,0,0,1-.78-.25.88.88,0,0,1-.28-.7V1.1a.87.87,0,0,1,.28-.68,1.13,1.13,0,0,1,.78-.25,1.2,1.2,0,0,1,.8.25.85.85,0,0,1,.3.68v.34a.87.87,0,0,1-.3.7A1.2,1.2,0,0,1,13.56,2.39Zm.82,2.4V15a.48.48,0,0,1-.09.34.6.6,0,0,1-.35.08h-.79a.6.6,0,0,1-.35-.08.48.48,0,0,1-.09-.34V4.79a.46.46,0,0,1,.09-.34.53.53,0,0,1,.35-.09h.79a.53.53,0,0,1,.35.09A.46.46,0,0,1,14.38,4.79Z"/><path class="cls-1" d="M20.88,15.76a4.86,4.86,0,0,1-3.41-1,2.47,2.47,0,0,1-.82-1.86.44.44,0,0,1,.09-.32.57.57,0,0,1,.37-.09h.62a.71.71,0,0,1,.35.07.46.46,0,0,1,.14.29A1.77,1.77,0,0,0,19,14a3.46,3.46,0,0,0,1.81.38c1.61,0,2.42-.57,2.42-1.71a1.7,1.7,0,0,0-.45-1.26,3.09,3.09,0,0,0-1.48-.73l-1.89-.49c-1.69-.45-2.54-1.41-2.54-2.88V7.24A2.84,2.84,0,0,1,18,4.92a4.52,4.52,0,0,1,2.89-.85,4.22,4.22,0,0,1,3.22,1.06,2.44,2.44,0,0,1,.77,1.8.41.41,0,0,1-.1.31.55.55,0,0,1-.37.09h-.61a.82.82,0,0,1-.38-.06.42.42,0,0,1-.11-.3c-.17-1.06-1-1.59-2.56-1.59a2.59,2.59,0,0,0-1.65.47,1.59,1.59,0,0,0-.58,1.31A1.3,1.3,0,0,0,19,8.24a4.59,4.59,0,0,0,1.7.7l1.74.44a3,3,0,0,1,2.54,3.1v.1Q24.93,15.76,20.88,15.76Z"/><path class="cls-1" d="M31.39.38h.76a.37.37,0,0,1,.29.09.52.52,0,0,1,.07.33v.58a.55.55,0,0,1-.07.34.42.42,0,0,1-.29.08h-.61a1.88,1.88,0,0,0-1.35.39,1.8,1.8,0,0,0-.39,1.3v.87h1.93a.37.37,0,0,1,.29.09.61.61,0,0,1,.07.34v.55a.64.64,0,0,1-.07.34.42.42,0,0,1-.29.08H29.8V15a.48.48,0,0,1-.09.34.6.6,0,0,1-.35.08h-.79a.6.6,0,0,1-.35-.08.48.48,0,0,1-.09-.34V5.76H26.77a.39.39,0,0,1-.28-.08.54.54,0,0,1-.08-.34V4.79a.52.52,0,0,1,.08-.34.35.35,0,0,1,.28-.09h1.36v-1A2.87,2.87,0,0,1,29,1.18,3.39,3.39,0,0,1,31.39.38Z"/><path class="cls-1" d="M35.75,4.79V6.4A3.52,3.52,0,0,1,37,4.92a3.19,3.19,0,0,1,1.83-.56h.28a.38.38,0,0,1,.3.09.63.63,0,0,1,.06.34v.76a.66.66,0,0,1-.06.34.43.43,0,0,1-.3.08h-.55a2.32,2.32,0,0,0-2,1,4.38,4.38,0,0,0-.74,2.62V15a.47.47,0,0,1-.1.34.58.58,0,0,1-.35.08h-.78a.58.58,0,0,1-.35-.08.43.43,0,0,1-.1-.34V4.79c0-.17,0-.29.1-.34a.51.51,0,0,1,.35-.09h.74a.53.53,0,0,1,.35.09A.46.46,0,0,1,35.75,4.79Z"/><path class="cls-1" d="M47.7,15v-.72a3.78,3.78,0,0,1-3.16,1.44,3.46,3.46,0,0,1-2.62-.95A3.86,3.86,0,0,1,41,12V4.79a.46.46,0,0,1,.09-.34.53.53,0,0,1,.35-.09h.79a.5.5,0,0,1,.34.09c.07,0,.1.17.1.34v6.88a2.93,2.93,0,0,0,.56,2,2.24,2.24,0,0,0,1.75.63,2.51,2.51,0,0,0,1.94-.82,3.16,3.16,0,0,0,.73-2.17V4.79a.46.46,0,0,1,.09-.34.53.53,0,0,1,.35-.09h.79a.53.53,0,0,1,.35.09.46.46,0,0,1,.09.34V15a.48.48,0,0,1-.09.34.6.6,0,0,1-.35.08h-.75a.56.56,0,0,1-.34-.08A.43.43,0,0,1,47.7,15Z"/><path class="cls-1" d="M56.87,15.46H55.73a2.8,2.8,0,0,1-2.09-.68A3,3,0,0,1,53,12.65V5.76H51.6a.42.42,0,0,1-.29-.08.55.55,0,0,1-.07-.34V4.79a.53.53,0,0,1,.07-.34.37.37,0,0,1,.29-.09H53V1.67a.47.47,0,0,1,.1-.34.58.58,0,0,1,.35-.08h.78a.58.58,0,0,1,.35.08.43.43,0,0,1,.1.34V4.36h2.18a.38.38,0,0,1,.3.09.63.63,0,0,1,.06.34v.55a.66.66,0,0,1-.06.34.43.43,0,0,1-.3.08H54.65v6.61a2.11,2.11,0,0,0,.28,1.23,1.12,1.12,0,0,0,1,.38h1c.16,0,.26,0,.3.08a.66.66,0,0,1,.06.34V15a.66.66,0,0,1-.06.34S57,15.46,56.87,15.46Z"/><path class="cls-1" d="M63.39,8.68c.27,0,.63,0,1.07.05s.89.07,1.33.12V7.6a2.26,2.26,0,0,0-.54-1.68,2.48,2.48,0,0,0-1.77-.52A3.33,3.33,0,0,0,62,5.69a1.81,1.81,0,0,0-.8,1A1.13,1.13,0,0,1,61,7a.53.53,0,0,1-.32.06H59.9A.63.63,0,0,1,59.53,7a.43.43,0,0,1-.1-.32A1.61,1.61,0,0,1,59.6,6,3.19,3.19,0,0,1,60,5.34a3.37,3.37,0,0,1,1.37-1,5.92,5.92,0,0,1,2.08-.31,4.62,4.62,0,0,1,3.05.81,3.41,3.41,0,0,1,.93,2.68V11.9a3.8,3.8,0,0,1-1,2.84,4.25,4.25,0,0,1-3,.93h-.32a5.15,5.15,0,0,1-3.18-.8,3,3,0,0,1-1-2.56A3.31,3.31,0,0,1,60,9.55,5.35,5.35,0,0,1,63.39,8.68Zm.13,1.4a3.64,3.64,0,0,0-2.25.51,2.06,2.06,0,0,0-.63,1.7,1.8,1.8,0,0,0,.59,1.5,3.4,3.4,0,0,0,2,.47h.19a2.32,2.32,0,0,0,1.78-.61,2.86,2.86,0,0,0,.55-1.94V10.27c-.43,0-.85-.1-1.26-.13S63.78,10.08,63.52,10.08Z"/><path class="cls-1" d="M78.52,8.68c.27,0,.62,0,1.07.05l1.32.12V7.6a2.26,2.26,0,0,0-.54-1.68A2.48,2.48,0,0,0,78.6,5.4a3.25,3.25,0,0,0-1.52.29,1.83,1.83,0,0,0-.81,1,.9.9,0,0,1-.17.3.49.49,0,0,1-.31.06H75A.65.65,0,0,1,74.65,7a.44.44,0,0,1-.09-.32A1.46,1.46,0,0,1,74.73,6a2.78,2.78,0,0,1,.42-.65,3.47,3.47,0,0,1,1.38-1,5.86,5.86,0,0,1,2.07-.31,4.62,4.62,0,0,1,3.05.81,3.42,3.42,0,0,1,.94,2.68V11.9a3.8,3.8,0,0,1-1,2.84,4.24,4.24,0,0,1-3,.93h-.32a5.12,5.12,0,0,1-3.17-.8,3,3,0,0,1-1-2.56,3.31,3.31,0,0,1,1.09-2.76A5.38,5.38,0,0,1,78.52,8.68Zm.13,1.4a3.7,3.7,0,0,0-2.26.51,2.06,2.06,0,0,0-.63,1.7,1.78,1.78,0,0,0,.6,1.5,3.34,3.34,0,0,0,2,.47h.19a2.32,2.32,0,0,0,1.78-.61,2.81,2.81,0,0,0,.55-1.94V10.27c-.42,0-.84-.1-1.26-.13S78.9,10.08,78.65,10.08Z"/><path class="cls-1" d="M91.38.8V15a.47.47,0,0,1-.1.34.58.58,0,0,1-.35.08h-.78a.58.58,0,0,1-.35-.08.43.43,0,0,1-.1-.34V.8a.41.41,0,0,1,.1-.33.51.51,0,0,1,.35-.09h.78a.51.51,0,0,1,.35.09A.45.45,0,0,1,91.38.8Z"/><path class="cls-1" d="M98.45,15.76a4.54,4.54,0,0,1-3.38-1.21,4.62,4.62,0,0,1-1.2-3.41V8.9a5,5,0,0,1,1.2-3.56,4.42,4.42,0,0,1,3.38-1.27,4.58,4.58,0,0,1,3.38,1.2A4.65,4.65,0,0,1,103,8.68v2.25a5,5,0,0,1-1.2,3.56A4.42,4.42,0,0,1,98.45,15.76Zm0-1.44q2.89,0,2.9-3.52V9q0-3.51-2.9-3.51T95.55,9V10.8Q95.55,14.33,98.45,14.32Z"/><path class="cls-1" d="M109.1,15.76a4.85,4.85,0,0,1-3.41-1,2.47,2.47,0,0,1-.82-1.86.44.44,0,0,1,.09-.32.57.57,0,0,1,.37-.09H106a.71.71,0,0,1,.35.07.46.46,0,0,1,.14.29,1.77,1.77,0,0,0,.81,1.23,3.46,3.46,0,0,0,1.81.38c1.61,0,2.42-.57,2.42-1.71a1.7,1.7,0,0,0-.45-1.26,3.09,3.09,0,0,0-1.48-.73l-1.89-.49c-1.69-.45-2.54-1.41-2.54-2.88V7.24a2.84,2.84,0,0,1,1.07-2.32,4.5,4.5,0,0,1,2.89-.85,4.22,4.22,0,0,1,3.22,1.06,2.43,2.43,0,0,1,.76,1.8.41.41,0,0,1-.09.31.55.55,0,0,1-.37.09H112a.8.8,0,0,1-.37-.06.42.42,0,0,1-.11-.3c-.17-1.06-1-1.59-2.57-1.59a2.58,2.58,0,0,0-1.64.47,1.57,1.57,0,0,0-.58,1.31,1.3,1.3,0,0,0,.46,1.08,4.59,4.59,0,0,0,1.7.7l1.74.44a3,3,0,0,1,2.54,3.1v.1Q113.15,15.76,109.1,15.76Z"/><path class="cls-1" d="M119.72,11.35V.8a.45.45,0,0,1,.09-.33.51.51,0,0,1,.35-.09h.78a.51.51,0,0,1,.35.09.41.41,0,0,1,.1.33V5.38a3.76,3.76,0,0,1,3.13-1.31,4.19,4.19,0,0,1,3.2,1.19,4.81,4.81,0,0,1,1.12,3.42V11a4.8,4.8,0,0,1-1.19,3.48,4.45,4.45,0,0,1-3.36,1.24,4.68,4.68,0,0,1-3.38-1.16A4.27,4.27,0,0,1,119.72,11.35ZM121.39,9V10.8q0,3.52,2.9,3.52t2.88-3.52V9q0-3.51-2.9-3.51a2.61,2.61,0,0,0-2.15.9A4,4,0,0,0,121.39,9Z"/><path class="cls-1" d="M139.31,10.42h-6.72v.4q0,3.5,2.84,3.5a2.35,2.35,0,0,0,2.4-1.38.71.71,0,0,1,.19-.31.62.62,0,0,1,.29-.05h.76a.68.68,0,0,1,.39.07.35.35,0,0,1,.08.27,1.87,1.87,0,0,1-.23.76,4.05,4.05,0,0,1-.53.81,3.6,3.6,0,0,1-1.44.93,5.55,5.55,0,0,1-2,.34,4.28,4.28,0,0,1-3.3-1.25A5.1,5.1,0,0,1,130.92,11V9.36a6,6,0,0,1,1.15-3.92,4.11,4.11,0,0,1,3.32-1.37c2.91,0,4.36,1.61,4.36,4.85V10a.48.48,0,0,1-.09.34A.6.6,0,0,1,139.31,10.42Zm-3.92-5q-2.77,0-2.8,3.66h5.47a4.67,4.67,0,0,0-.66-2.77A2.35,2.35,0,0,0,135.39,5.38Z"/><path class="cls-1" d="M142,11.35V.8a.45.45,0,0,1,.09-.33.53.53,0,0,1,.35-.09h.79a.53.53,0,0,1,.35.09.45.45,0,0,1,.09.33V5.38a3.78,3.78,0,0,1,3.14-1.31A4.17,4.17,0,0,1,150,5.26a4.81,4.81,0,0,1,1.13,3.42V11a4.81,4.81,0,0,1-1.2,3.48,4.45,4.45,0,0,1-3.36,1.24,4.68,4.68,0,0,1-3.38-1.16A4.31,4.31,0,0,1,142,11.35ZM143.67,9V10.8q0,3.52,2.9,3.52t2.88-3.52V9c0-2.34-1-3.51-2.9-3.51a2.62,2.62,0,0,0-2.15.9A4,4,0,0,0,143.67,9Z"/><path class="cls-1" d="M161.59,10.42h-6.71v.4q0,3.5,2.83,3.5a2.35,2.35,0,0,0,2.4-1.38.71.71,0,0,1,.19-.31.62.62,0,0,1,.29-.05h.77a.64.64,0,0,1,.38.07c.06,0,.08.13.08.27a1.72,1.72,0,0,1-.23.76,3.66,3.66,0,0,1-.53.81,3.6,3.6,0,0,1-1.44.93,5.51,5.51,0,0,1-2,.34,4.26,4.26,0,0,1-3.29-1.25A5.05,5.05,0,0,1,153.2,11V9.36a6,6,0,0,1,1.16-3.92,4.09,4.09,0,0,1,3.31-1.37c2.91,0,4.37,1.61,4.37,4.85V10a.47.47,0,0,1-.1.34A.58.58,0,0,1,161.59,10.42Zm-3.92-5q-2.78,0-2.79,3.66h5.46a4.67,4.67,0,0,0-.66-2.77A2.32,2.32,0,0,0,157.67,5.38ZM158.75,0h.93c.19,0,.28.06.28.17a.48.48,0,0,1-.09.23l-1.5,2.1a1.38,1.38,0,0,1-.34.4.75.75,0,0,1-.36.07H157c-.18,0-.27-.06-.27-.17a.48.48,0,0,1,.08-.24L158.05.47a1.26,1.26,0,0,1,.31-.4A.77.77,0,0,1,158.75,0Z"/><path class="cls-1" d="M168.07,15.76a4.85,4.85,0,0,1-3.41-1,2.47,2.47,0,0,1-.82-1.86.44.44,0,0,1,.09-.32.55.55,0,0,1,.37-.09h.62a.71.71,0,0,1,.35.07.46.46,0,0,1,.13.29,1.81,1.81,0,0,0,.82,1.23,3.44,3.44,0,0,0,1.81.38c1.61,0,2.41-.57,2.41-1.71a1.7,1.7,0,0,0-.44-1.26,3.14,3.14,0,0,0-1.48-.73l-1.89-.49c-1.69-.45-2.54-1.41-2.54-2.88V7.24a2.84,2.84,0,0,1,1.07-2.32,4.5,4.5,0,0,1,2.89-.85,4.23,4.23,0,0,1,3.22,1.06,2.43,2.43,0,0,1,.76,1.8.41.41,0,0,1-.09.31.57.57,0,0,1-.37.09H171a.8.8,0,0,1-.37-.06.42.42,0,0,1-.11-.3c-.17-1.06-1-1.59-2.57-1.59a2.58,2.58,0,0,0-1.64.47,1.57,1.57,0,0,0-.58,1.31,1.33,1.33,0,0,0,.45,1.08,4.74,4.74,0,0,0,1.71.7l1.74.44a3,3,0,0,1,2.54,3.1v.1Q172.12,15.76,168.07,15.76Z"/><path class="cls-1" d="M186.86,10.42h-6.72v.4q0,3.5,2.84,3.5a2.35,2.35,0,0,0,2.4-1.38.71.71,0,0,1,.19-.31.62.62,0,0,1,.29-.05h.77a.66.66,0,0,1,.38.07.35.35,0,0,1,.08.27,1.87,1.87,0,0,1-.23.76,4.05,4.05,0,0,1-.53.81,3.6,3.6,0,0,1-1.44.93,5.51,5.51,0,0,1-2,.34,4.24,4.24,0,0,1-3.29-1.25A5.05,5.05,0,0,1,178.47,11V9.36a6,6,0,0,1,1.16-3.92,4.08,4.08,0,0,1,3.31-1.37c2.91,0,4.36,1.61,4.36,4.85V10a.48.48,0,0,1-.09.34A.6.6,0,0,1,186.86,10.42Zm-3.92-5q-2.77,0-2.8,3.66h5.47A4.67,4.67,0,0,0,185,6.27,2.35,2.35,0,0,0,182.94,5.38Z"/><path class="cls-1" d="M194.65,4.07a3.58,3.58,0,0,1,2.7.95,3.78,3.78,0,0,1,1,2.77V15a.43.43,0,0,1-.1.34.58.58,0,0,1-.35.08h-.78a.58.58,0,0,1-.35-.08.47.47,0,0,1-.1-.34V8.15a2.84,2.84,0,0,0-.58-2,2.42,2.42,0,0,0-1.83-.62,2.62,2.62,0,0,0-2,.81,3.07,3.07,0,0,0-.77,2.18V15a.48.48,0,0,1-.09.34.58.58,0,0,1-.35.08h-.78a.58.58,0,0,1-.35-.08.43.43,0,0,1-.1-.34V4.79c0-.17,0-.29.1-.34a.51.51,0,0,1,.35-.09H191a.53.53,0,0,1,.35.09.46.46,0,0,1,.09.34v.74A3.82,3.82,0,0,1,194.65,4.07Z"/><path class="cls-1" d="M210.09,15.76A3.71,3.71,0,0,1,207,14.45v4.21a.48.48,0,0,1-.09.34.53.53,0,0,1-.35.08h-.79a.53.53,0,0,1-.35-.08.48.48,0,0,1-.09-.34V8.9a5,5,0,0,1,1.19-3.56,4.42,4.42,0,0,1,3.38-1.27,4.57,4.57,0,0,1,3.36,1.18,4.47,4.47,0,0,1,1.2,3.33v2.24Q214.44,15.76,210.09,15.76Zm2.67-5V9q0-3.51-2.88-3.51T207,9V10.8a4.05,4.05,0,0,0,.73,2.62,2.62,2.62,0,0,0,2.15.9C211.8,14.32,212.76,13.15,212.76,10.8Z"/><path class="cls-1" d="M218.61.8V15a.43.43,0,0,1-.1.34.58.58,0,0,1-.35.08h-.78a.58.58,0,0,1-.35-.08.48.48,0,0,1-.09-.34V.8A.45.45,0,0,1,217,.47a.51.51,0,0,1,.35-.09h.78a.51.51,0,0,1,.35.09A.41.41,0,0,1,218.61.8Z"/><path class="cls-1" d="M229.5,10.42h-6.72v.4q0,3.5,2.84,3.5A2.33,2.33,0,0,0,228,12.94a.82.82,0,0,1,.19-.31.71.71,0,0,1,.3-.05h.76a.62.62,0,0,1,.38.07q.09.06.09.27a1.87,1.87,0,0,1-.23.76,4.54,4.54,0,0,1-.53.81,3.74,3.74,0,0,1-1.44.93,5.55,5.55,0,0,1-2,.34,4.28,4.28,0,0,1-3.3-1.25A5,5,0,0,1,221.11,11V9.36a6,6,0,0,1,1.15-3.92,4.11,4.11,0,0,1,3.32-1.37c2.91,0,4.36,1.61,4.36,4.85V10a.48.48,0,0,1-.09.34A.6.6,0,0,1,229.5,10.42Zm-3.92-5q-2.78,0-2.8,3.66h5.47a4.67,4.67,0,0,0-.66-2.77A2.35,2.35,0,0,0,225.58,5.38Z"/><path class="cls-1" d="M237.29,4.07A3.62,3.62,0,0,1,240,5a3.78,3.78,0,0,1,.94,2.77V15a.48.48,0,0,1-.09.34.58.58,0,0,1-.35.08h-.78a.58.58,0,0,1-.35-.08.43.43,0,0,1-.1-.34V8.15a2.84,2.84,0,0,0-.58-2,2.42,2.42,0,0,0-1.83-.62,2.64,2.64,0,0,0-2,.81,3.11,3.11,0,0,0-.76,2.18V15a.48.48,0,0,1-.09.34.6.6,0,0,1-.35.08h-.79a.6.6,0,0,1-.35-.08.48.48,0,0,1-.09-.34V4.79a.46.46,0,0,1,.09-.34.53.53,0,0,1,.35-.09h.74a.51.51,0,0,1,.35.09c.07,0,.1.17.1.34v.74A3.8,3.8,0,0,1,237.29,4.07Z"/><path class="cls-1" d="M247.69,8.68c.27,0,.63,0,1.07.05s.89.07,1.32.12V7.6a2.26,2.26,0,0,0-.54-1.68,2.47,2.47,0,0,0-1.76-.52,3.27,3.27,0,0,0-1.53.29,1.81,1.81,0,0,0-.8,1,1.51,1.51,0,0,1-.17.3A.55.55,0,0,1,245,7h-.76a.61.61,0,0,1-.37-.08.4.4,0,0,1-.1-.32A1.61,1.61,0,0,1,243.9,6a2.78,2.78,0,0,1,.42-.65,3.47,3.47,0,0,1,1.38-1,5.88,5.88,0,0,1,2.08-.31,4.64,4.64,0,0,1,3.05.81,3.41,3.41,0,0,1,.93,2.68V11.9a3.76,3.76,0,0,1-1,2.84,4.24,4.24,0,0,1-3,.93h-.31a5.13,5.13,0,0,1-3.18-.8,3,3,0,0,1-1-2.56,3.34,3.34,0,0,1,1.09-2.76A5.4,5.4,0,0,1,247.69,8.68Zm.13,1.4a3.7,3.7,0,0,0-2.26.51,2.09,2.09,0,0,0-.62,1.7,1.78,1.78,0,0,0,.59,1.5,3.36,3.36,0,0,0,2,.47h.19a2.31,2.31,0,0,0,1.78-.61,2.81,2.81,0,0,0,.55-1.94V10.27c-.42,0-.84-.1-1.26-.13S248.07,10.08,247.82,10.08Z"/><path class="cls-1" d="M262.81,8.68c.27,0,.63,0,1.07.05s.89.07,1.33.12V7.6a2.26,2.26,0,0,0-.54-1.68,2.48,2.48,0,0,0-1.77-.52,3.33,3.33,0,0,0-1.53.29,1.81,1.81,0,0,0-.8,1,1.13,1.13,0,0,1-.17.3.53.53,0,0,1-.32.06h-.76A.63.63,0,0,1,259,7a.43.43,0,0,1-.1-.32A1.61,1.61,0,0,1,259,6a3.19,3.19,0,0,1,.43-.65,3.37,3.37,0,0,1,1.37-1,5.92,5.92,0,0,1,2.08-.31,4.62,4.62,0,0,1,3.05.81,3.41,3.41,0,0,1,.93,2.68V11.9a3.8,3.8,0,0,1-1,2.84,4.27,4.27,0,0,1-3,.93h-.32a5.13,5.13,0,0,1-3.18-.8,3,3,0,0,1-1-2.56,3.31,3.31,0,0,1,1.09-2.76A5.35,5.35,0,0,1,262.81,8.68Zm.13,1.4a3.64,3.64,0,0,0-2.25.51,2.06,2.06,0,0,0-.63,1.7,1.8,1.8,0,0,0,.59,1.5,3.4,3.4,0,0,0,2,.47h.19a2.32,2.32,0,0,0,1.78-.61,2.86,2.86,0,0,0,.55-1.94V10.27c-.43,0-.85-.1-1.26-.13S263.2,10.08,262.94,10.08Z"/><path class="cls-1" d="M273.55,14.32c1.44,0,2.27-.61,2.48-1.82a.41.41,0,0,1,.12-.29.65.65,0,0,1,.37-.07h.7a.65.65,0,0,1,.37.08.44.44,0,0,1,.09.32,3.17,3.17,0,0,1-.61,1.76c-.65,1-1.84,1.46-3.56,1.46a4.22,4.22,0,0,1-3.23-1.18,4.82,4.82,0,0,1-1.11-3.44V9a5.46,5.46,0,0,1,1.11-3.71,4.08,4.08,0,0,1,3.23-1.26,4.3,4.3,0,0,1,3.35,1.16,3.05,3.05,0,0,1,.8,2.06.41.41,0,0,1-.09.31.57.57,0,0,1-.37.09h-.68a.63.63,0,0,1-.37-.08c-.07,0-.1-.14-.12-.28A1.93,1.93,0,0,0,275.29,6a2.73,2.73,0,0,0-1.69-.47,2.51,2.51,0,0,0-2.1.84A4.4,4.4,0,0,0,270.84,9V10.8a4.33,4.33,0,0,0,.66,2.67A2.42,2.42,0,0,0,273.55,14.32Z"/><path class="cls-1" d="M284,14.32a2.17,2.17,0,0,0,2.48-1.82.41.41,0,0,1,.11-.29.67.67,0,0,1,.37-.07h.7a.61.61,0,0,1,.37.08.4.4,0,0,1,.1.32,3.19,3.19,0,0,1-.62,1.76c-.65,1-1.83,1.46-3.55,1.46a4.2,4.2,0,0,1-3.23-1.18,4.78,4.78,0,0,1-1.12-3.44V9a5.41,5.41,0,0,1,1.12-3.71A4.07,4.07,0,0,1,284,4.07a4.29,4.29,0,0,1,3.34,1.16,3,3,0,0,1,.81,2.06.37.37,0,0,1-.1.31.55.55,0,0,1-.37.09H287a.65.65,0,0,1-.37-.08.37.37,0,0,1-.11-.28A1.91,1.91,0,0,0,285.77,6a2.71,2.71,0,0,0-1.69-.47,2.51,2.51,0,0,0-2.1.84A4.47,4.47,0,0,0,281.33,9V10.8a4.4,4.4,0,0,0,.65,2.67A2.44,2.44,0,0,0,284,14.32Z"/><path class="cls-1" d="M291.41,2.39a1.1,1.1,0,0,1-.77-.25.89.89,0,0,1-.29-.7V1.1a.88.88,0,0,1,.29-.68,1.1,1.1,0,0,1,.77-.25,1.16,1.16,0,0,1,.8.25.85.85,0,0,1,.3.68v.34a.87.87,0,0,1-.3.7A1.16,1.16,0,0,1,291.41,2.39Zm.83,2.4V15a.47.47,0,0,1-.1.34.58.58,0,0,1-.35.08H291a.58.58,0,0,1-.35-.08.43.43,0,0,1-.1-.34V4.79c0-.17,0-.29.1-.34a.51.51,0,0,1,.35-.09h.78a.51.51,0,0,1,.35.09A.46.46,0,0,1,292.24,4.79Z"/><path class="cls-1" d="M299.31,15.76a4.52,4.52,0,0,1-3.38-1.21,4.62,4.62,0,0,1-1.2-3.41V8.9a5,5,0,0,1,1.2-3.56,4.4,4.4,0,0,1,3.38-1.27,4.58,4.58,0,0,1,3.38,1.2,4.64,4.64,0,0,1,1.19,3.41v2.25a5,5,0,0,1-1.19,3.56A4.42,4.42,0,0,1,299.31,15.76Zm0-1.44q2.9,0,2.9-3.52V9q0-3.51-2.9-3.51c-1.94,0-2.9,1.17-2.9,3.51V10.8C296.41,13.15,297.37,14.32,299.31,14.32Zm1-14.32h.93c.18,0,.27.06.27.17a.45.45,0,0,1-.08.23l-1.51,2.1a1.4,1.4,0,0,1-.33.4.75.75,0,0,1-.36.07h-.72c-.19,0-.28-.06-.28-.17a.6.6,0,0,1,.08-.24l1.3-2.09a1.27,1.27,0,0,1,.3-.4A.79.79,0,0,1,300.33,0Z"/><path class="cls-1" d="M311.28,4.07A3.62,3.62,0,0,1,314,5a3.78,3.78,0,0,1,.94,2.77V15a.48.48,0,0,1-.09.34.6.6,0,0,1-.35.08h-.79a.6.6,0,0,1-.35-.08.48.48,0,0,1-.09-.34V8.15a2.84,2.84,0,0,0-.59-2,2.39,2.39,0,0,0-1.83-.62,2.64,2.64,0,0,0-2,.81,3.06,3.06,0,0,0-.76,2.18V15a.43.43,0,0,1-.1.34.58.58,0,0,1-.35.08h-.78a.58.58,0,0,1-.35-.08.47.47,0,0,1-.1-.34V4.79a.46.46,0,0,1,.1-.34.51.51,0,0,1,.35-.09h.74a.51.51,0,0,1,.35.09.46.46,0,0,1,.1.34v.74A3.8,3.8,0,0,1,311.28,4.07Z"/></g></g></svg>