<svg xmlns="http://www.w3.org/2000/svg" viewBox="0 0 491.58 99.14"><defs><style>.cls-1{fill:#e65550;}</style></defs><g id="Capa_2" data-name="Capa 2"><g id="Capa_1-2" data-name="Capa 1"><g id="Capa_2-2" data-name="Capa 2"><g id="Layer_1" data-name="Layer 1"><path class="cls-1" d="M21.11,27.59a1,1,0,0,1,.28-.71,1.7,1.7,0,0,1,.9-.16h1.78a1.36,1.36,0,0,1,.89.21,1,1,0,0,1,.23.76,11.27,11.27,0,0,1-.68,3.93,8.49,8.49,0,0,1-1.92,3.06Q19.17,38,13,38.05a14.53,14.53,0,0,1-7.06-1.61,9.84,9.84,0,0,1-4.36-5,15.51,15.51,0,0,1-.82-3.32,34.82,34.82,0,0,1-.25-4.64V15.15A36,36,0,0,1,.71,10.4a14.51,14.51,0,0,1,.82-3.26q2.81-7,11.83-7,6.48,0,9.33,3.27a9.78,9.78,0,0,1,2.5,6.93,1,1,0,0,1-.23.77,1.43,1.43,0,0,1-.89.2H22.19a1.57,1.57,0,0,1-.9-.18A1,1,0,0,1,21,10.4q-.51-6.68-7.9-6.68-4.44,0-6.45,2.58t-2,8.23v9.08q0,5.61,2,8.19c1.34,1.72,3.47,2.57,6.4,2.57Q20.5,34.37,21.11,27.59Z"/><path class="cls-1" d="M49.93,25.09H33.76v1q0,8.42,6.84,8.42c2.88,0,4.81-1.11,5.76-3.32a1.69,1.69,0,0,1,.46-.74,1.45,1.45,0,0,1,.71-.13h1.84a1.79,1.79,0,0,1,.92.16.82.82,0,0,1,.2.66A4.44,4.44,0,0,1,49.93,33a9.25,9.25,0,0,1-1.28,1.93,8.5,8.5,0,0,1-3.46,2.25,13.66,13.66,0,0,1-4.75.81c-3.43,0-6.08-1-7.93-3s-2.78-4.87-2.78-8.57V22.54q0-6.12,2.78-9.43c1.85-2.21,4.52-3.32,8-3.32Q51,9.79,51,21.47v2.6a1.11,1.11,0,0,1-.23.82A1.32,1.32,0,0,1,49.93,25.09ZM40.49,13q-6.68,0-6.73,8.83H46.92q0-4.55-1.58-6.68A5.64,5.64,0,0,0,40.49,13Z"/><path class="cls-1" d="M60.94,1.94V36.21a1.07,1.07,0,0,1-.23.82,1.32,1.32,0,0,1-.84.2H58a1.37,1.37,0,0,1-.85-.2,1.12,1.12,0,0,1-.22-.82V1.94a1.12,1.12,0,0,1,.22-.82A1.37,1.37,0,0,1,58,.92h1.88a1.32,1.32,0,0,1,.84.2A1.07,1.07,0,0,1,60.94,1.94Z"/><path class="cls-1" d="M87.16,25.09H71v1q0,8.42,6.83,8.42c2.89,0,4.82-1.11,5.77-3.32a1.69,1.69,0,0,1,.46-.74,1.45,1.45,0,0,1,.71-.13H86.6a1.72,1.72,0,0,1,.91.16q.21.15.21.66A4.44,4.44,0,0,1,87.16,33a9.25,9.25,0,0,1-1.28,1.93,8.47,8.47,0,0,1-3.47,2.25,13.56,13.56,0,0,1-4.74.81c-3.43,0-6.08-1-7.93-3S67,30.07,67,26.37V22.54q0-6.12,2.78-9.43t8-3.32q10.52,0,10.51,11.68v2.6a1.11,1.11,0,0,1-.23.82A1.32,1.32,0,0,1,87.16,25.09ZM77.72,13Q71,13,71,21.78H84.15q0-4.55-1.58-6.68A5.64,5.64,0,0,0,77.72,13Z"/><path class="cls-1" d="M93.63,27.34V1.94a1.11,1.11,0,0,1,.23-.82,1.37,1.37,0,0,1,.85-.2h1.88a1.32,1.32,0,0,1,.84.2,1.07,1.07,0,0,1,.23.82V13c1.7-2.1,4.22-3.16,7.55-3.16s5.9,1,7.7,2.88,2.71,4.67,2.71,8.24v5.66c0,3.61-1,6.4-2.89,8.39s-4.61,3-8.08,3-6.21-.92-8.13-2.78S93.63,30.7,93.63,27.34Zm4-5.61V26q0,8.46,7,8.47T111.59,26V21.73q0-8.48-7-8.47a6.28,6.28,0,0,0-5.18,2.17Q97.67,17.59,97.66,21.73Z"/><path class="cls-1" d="M125.56,11.53V15.4a8.22,8.22,0,0,1,2.93-3.54,7.61,7.61,0,0,1,4.41-1.35h.67c.37,0,.61.06.71.2a1.53,1.53,0,0,1,.15.82v1.83a1.53,1.53,0,0,1-.15.82c-.1.13-.34.2-.71.2h-1.33a5.56,5.56,0,0,0-4.79,2.53,10.62,10.62,0,0,0-1.79,6.29v13a1.11,1.11,0,0,1-.23.82,1.32,1.32,0,0,1-.84.2H122.7a1.34,1.34,0,0,1-.84-.2,1.11,1.11,0,0,1-.23-.82V11.53a1.11,1.11,0,0,1,.23-.82,1.28,1.28,0,0,1,.84-.2h1.79a1.26,1.26,0,0,1,.84.2A1.11,1.11,0,0,1,125.56,11.53Z"/><path class="cls-1" d="M148,20.91c.64,0,1.5,0,2.57.1s2.14.17,3.19.31v-3a5.44,5.44,0,0,0-1.3-4.06A6,6,0,0,0,148.15,13a7.86,7.86,0,0,0-3.67.68,4.38,4.38,0,0,0-1.94,2.37,2.5,2.5,0,0,1-.41.72,1.2,1.2,0,0,1-.76.15h-1.84a1.43,1.43,0,0,1-.89-.2,1,1,0,0,1-.23-.77,3.73,3.73,0,0,1,.41-1.53,6.89,6.89,0,0,1,1-1.58,8.19,8.19,0,0,1,3.31-2.29,14.09,14.09,0,0,1,5-.77q5.1,0,7.35,2c1.49,1.3,2.24,3.46,2.24,6.45V28.66q0,4.59-2.32,6.84t-7.32,2.24h-.76q-5.16,0-7.65-1.94t-2.5-6.17c0-3,.87-5.23,2.62-6.63S144.28,20.91,148,20.91Zm.3,3.37c-2.61,0-4.42.4-5.43,1.22a5,5,0,0,0-1.5,4.08,4.3,4.3,0,0,0,1.43,3.62q1.42,1.13,4.89,1.12h.46a5.57,5.57,0,0,0,4.29-1.45c.88-1,1.32-2.52,1.32-4.67V24.73q-1.53-.19-3-.33C149.67,24.32,148.87,24.28,148.25,24.28Z"/><path class="cls-1" d="M176.05,9.79a8.74,8.74,0,0,1,6.5,2.3c1.51,1.53,2.27,3.75,2.27,6.68V36.21a1.11,1.11,0,0,1-.23.82,1.32,1.32,0,0,1-.84.2h-1.89A1.34,1.34,0,0,1,181,37a1.11,1.11,0,0,1-.23-.82V19.64q0-3.27-1.4-4.77A5.76,5.76,0,0,0,175,13.36a6.34,6.34,0,0,0-4.85,2,7.34,7.34,0,0,0-1.83,5.22V36.21a1.11,1.11,0,0,1-.23.82,1.36,1.36,0,0,1-.84.2h-1.89a1.32,1.32,0,0,1-.84-.2,1.07,1.07,0,0,1-.23-.82V11.53a1.07,1.07,0,0,1,.23-.82,1.26,1.26,0,0,1,.84-.2h1.78a1.31,1.31,0,0,1,.85.2,1.12,1.12,0,0,1,.22.82v1.78C170,11,172.58,9.79,176.05,9.79Z"/><path class="cls-1" d="M201,9.79c3.3,0,5.8,1.06,7.5,3.16v-11a1.07,1.07,0,0,1,.23-.82,1.32,1.32,0,0,1,.84-.2h1.88a1.37,1.37,0,0,1,.85.2,1.12,1.12,0,0,1,.22.82V26.32q0,5.5-2.88,8.56t-8.13,3.06q-5.2,0-8.08-2.85c-1.93-1.91-2.89-4.57-2.89-8V21.42q0-5.4,2.78-8.52A9.79,9.79,0,0,1,201,9.79Zm-6.43,11.94V26q0,8.46,6.94,8.47t7-8.47V21.73q0-8.48-6.94-8.47T194.61,21.73Z"/><path class="cls-1" d="M229.09,37.94c-3.5,0-6.22-1-8.14-2.9s-2.88-4.68-2.88-8.21V21.42q0-5.51,2.88-8.57c1.92-2,4.64-3.06,8.14-3.06s6.21,1,8.13,2.91,2.88,4.67,2.88,8.21v5.41q0,5.5-2.88,8.56T229.09,37.94Zm0-3.46q7,0,7-8.47V21.73q0-8.48-7-8.47t-7,8.47V26Q222.1,34.47,229.09,34.48Z"/><path class="cls-1" d="M266.22,20.91c.64,0,1.5,0,2.57.1s2.13.17,3.19.31v-3a5.48,5.48,0,0,0-1.3-4.06A6,6,0,0,0,266.42,13a7.86,7.86,0,0,0-3.67.68,4.38,4.38,0,0,0-1.94,2.37,2.77,2.77,0,0,1-.41.72,1.22,1.22,0,0,1-.76.15H257.8a1.43,1.43,0,0,1-.89-.2,1,1,0,0,1-.23-.77,3.58,3.58,0,0,1,.41-1.53,6.89,6.89,0,0,1,1-1.58,8.19,8.19,0,0,1,3.31-2.29,14,14,0,0,1,5-.77q5.1,0,7.34,2c1.5,1.3,2.25,3.46,2.25,6.45V28.66c0,3.06-.78,5.34-2.32,6.84s-4,2.24-7.32,2.24h-.77q-5.14,0-7.65-1.94c-1.66-1.29-2.5-3.35-2.5-6.17,0-3,.88-5.23,2.63-6.63S262.54,20.91,266.22,20.91Zm.3,3.37c-2.62,0-4.43.4-5.43,1.22a5,5,0,0,0-1.5,4.08A4.32,4.32,0,0,0,261,33.2c.95.75,2.59,1.12,4.9,1.12h.46a5.53,5.53,0,0,0,4.28-1.45c.89-1,1.33-2.52,1.33-4.67V24.73c-1-.13-2-.24-3-.33S267.13,24.28,266.52,24.28Z"/><path class="cls-1" d="M297.17,1.94V36.21a1.07,1.07,0,0,1-.23.82,1.32,1.32,0,0,1-.84.2h-1.89a1.36,1.36,0,0,1-.84-.2,1.11,1.11,0,0,1-.23-.82V1.94a1.11,1.11,0,0,1,.23-.82,1.36,1.36,0,0,1,.84-.2h1.89a1.32,1.32,0,0,1,.84.2A1.07,1.07,0,0,1,297.17,1.94Z"/><path class="cls-1" d="M314.21,37.94c-3.51,0-6.22-1-8.14-2.9s-2.88-4.68-2.88-8.21V21.42q0-5.51,2.88-8.57t8.14-3.06q5.25,0,8.13,2.91c1.92,1.94,2.88,4.67,2.88,8.21v5.41q0,5.5-2.88,8.56T314.21,37.94Zm0-3.46q7,0,7-8.47V21.73q0-8.48-7-8.47t-7,8.47V26Q307.22,34.47,314.21,34.48Z"/><path class="cls-1" d="M339.86,37.94c-3.71,0-6.44-.83-8.21-2.5a5.94,5.94,0,0,1-2-4.48,1,1,0,0,1,.23-.77,1.43,1.43,0,0,1,.89-.2h1.48a1.64,1.64,0,0,1,.84.15,1.09,1.09,0,0,1,.33.71,4.38,4.38,0,0,0,2,3,8.35,8.35,0,0,0,4.36.92q5.81,0,5.81-4.13a4.16,4.16,0,0,0-1.07-3,7.61,7.61,0,0,0-3.57-1.76l-4.54-1.18c-4.08-1.08-6.12-3.4-6.12-6.93v-.26a6.77,6.77,0,0,1,2.58-5.58,10.77,10.77,0,0,1,7-2.07q5.35,0,7.75,2.55a6,6,0,0,1,1.84,4.34,1,1,0,0,1-.23.76,1.39,1.39,0,0,1-.9.21h-1.48a1.68,1.68,0,0,1-.89-.16,1,1,0,0,1-.28-.71c-.41-2.55-2.46-3.83-6.17-3.83a6.15,6.15,0,0,0-3.95,1.13,3.79,3.79,0,0,0-1.4,3.16,3.2,3.2,0,0,0,1.09,2.6,11.08,11.08,0,0,0,4.11,1.68l4.18,1.07q6.12,1.53,6.12,7.45v.25Q349.6,37.94,339.86,37.94Z"/><path class="cls-1" d="M365.41,27.34V1.94a1.11,1.11,0,0,1,.23-.82,1.32,1.32,0,0,1,.84-.2h1.89a1.36,1.36,0,0,1,.84.2,1.11,1.11,0,0,1,.23.82V13c1.7-2.1,4.21-3.16,7.55-3.16s5.89,1,7.7,2.88,2.7,4.67,2.7,8.24v5.66c0,3.61-1,6.4-2.88,8.39s-4.62,3-8.09,3-6.21-.92-8.13-2.78S365.41,30.7,365.41,27.34Zm4-5.61V26q0,8.46,7,8.47T383.36,26V21.73q0-8.48-7-8.47a6.24,6.24,0,0,0-5.17,2.17C370,16.87,369.44,19,369.44,21.73Z"/><path class="cls-1" d="M412.58,25.09H396.42v1q0,8.42,6.83,8.42,4.33,0,5.76-3.32a1.69,1.69,0,0,1,.46-.74,1.53,1.53,0,0,1,.72-.13H412a1.77,1.77,0,0,1,.92.16c.14.1.2.32.2.66a4.29,4.29,0,0,1-.56,1.84,9.22,9.22,0,0,1-1.27,1.93,8.54,8.54,0,0,1-3.47,2.25,13.56,13.56,0,0,1-4.74.81q-5.16,0-7.93-3c-1.86-2-2.78-4.87-2.78-8.57V22.54q0-6.12,2.78-9.43t8-3.32q10.5,0,10.5,11.68v2.6a1.07,1.07,0,0,1-.23.82A1.32,1.32,0,0,1,412.58,25.09ZM403.15,13q-6.69,0-6.73,8.83h13.15c0-3-.52-5.26-1.58-6.68A5.62,5.62,0,0,0,403.15,13Z"/><path class="cls-1" d="M419.06,27.34V1.94a1.11,1.11,0,0,1,.23-.82,1.32,1.32,0,0,1,.84-.2H422a1.34,1.34,0,0,1,.84.2,1.11,1.11,0,0,1,.23.82V13c1.7-2.1,4.21-3.16,7.55-3.16s5.89,1,7.7,2.88,2.7,4.67,2.7,8.24v5.66c0,3.61-1,6.4-2.88,8.39s-4.62,3-8.08,3-6.22-.92-8.14-2.78S419.06,30.7,419.06,27.34Zm4-5.61V26q0,8.46,7,8.47T437,26V21.73q0-8.48-7-8.47a6.26,6.26,0,0,0-5.17,2.17C423.67,16.87,423.09,19,423.09,21.73Z"/><path class="cls-1" d="M466.23,25.09H450.07v1q0,8.42,6.83,8.42,4.34,0,5.76-3.32a1.78,1.78,0,0,1,.46-.74,1.53,1.53,0,0,1,.72-.13h1.83a1.77,1.77,0,0,1,.92.16c.14.1.2.32.2.66a4.29,4.29,0,0,1-.56,1.84A9.22,9.22,0,0,1,465,34.88a8.54,8.54,0,0,1-3.47,2.25,13.56,13.56,0,0,1-4.74.81q-5.16,0-7.93-3c-1.86-2-2.78-4.87-2.78-8.57V22.54q0-6.12,2.78-9.43t8-3.32q10.5,0,10.5,11.68v2.6a1.07,1.07,0,0,1-.23.82A1.32,1.32,0,0,1,466.23,25.09ZM456.8,13q-6.69,0-6.73,8.83h13.15c0-3-.52-5.26-1.58-6.68A5.62,5.62,0,0,0,456.8,13ZM459.4,0h2.24c.44,0,.67.14.67.41a1.26,1.26,0,0,1-.21.56L458.48,6a4.32,4.32,0,0,1-.81,1,1.86,1.86,0,0,1-.87.15h-1.74c-.44,0-.66-.14-.66-.41a1.26,1.26,0,0,1,.21-.56l3.11-5a2.94,2.94,0,0,1,.74-.94A1.8,1.8,0,0,1,459.4,0Z"/><path class="cls-1" d="M481.84,37.94c-3.71,0-6.44-.83-8.21-2.5a5.94,5.94,0,0,1-2-4.48,1,1,0,0,1,.23-.77,1.43,1.43,0,0,1,.89-.2h1.48a1.64,1.64,0,0,1,.84.15,1.09,1.09,0,0,1,.33.71,4.38,4.38,0,0,0,2,3,8.35,8.35,0,0,0,4.36.92q5.81,0,5.81-4.13a4.16,4.16,0,0,0-1.07-3,7.61,7.61,0,0,0-3.57-1.76l-4.54-1.18c-4.08-1.08-6.12-3.4-6.12-6.93v-.26a6.77,6.77,0,0,1,2.58-5.58,10.77,10.77,0,0,1,7-2.07q5.35,0,7.75,2.55a6,6,0,0,1,1.84,4.34,1,1,0,0,1-.23.76,1.39,1.39,0,0,1-.9.21h-1.47a1.7,1.7,0,0,1-.9-.16,1,1,0,0,1-.28-.71c-.41-2.55-2.46-3.83-6.17-3.83a6.15,6.15,0,0,0-3.95,1.13,3.79,3.79,0,0,0-1.4,3.16,3.2,3.2,0,0,0,1.09,2.6,11.08,11.08,0,0,0,4.11,1.68l4.18,1.07q6.12,1.53,6.12,7.45v.25Q491.58,37.94,481.84,37.94Z"/><path class="cls-1" d="M10.56,95.68c3.46,0,5.45-1.47,6-4.39a1,1,0,0,1,.28-.69,1.57,1.57,0,0,1,.9-.18h1.68a1.36,1.36,0,0,1,.89.21,1,1,0,0,1,.23.76A7.61,7.61,0,0,1,19,95.63q-2.34,3.51-8.56,3.51-5.12,0-7.78-2.83C.89,94.43,0,91.66,0,88V83q0-5.92,2.68-9t7.78-3c3.7,0,6.39.94,8.05,2.81a7.28,7.28,0,0,1,1.94,4.94,1,1,0,0,1-.23.77,1.37,1.37,0,0,1-.89.2H17.7a1.57,1.57,0,0,1-.9-.18,1,1,0,0,1-.28-.68,4.57,4.57,0,0,0-1.78-3.29,6.61,6.61,0,0,0-4.08-1.15c-2.31,0-4,.68-5,2S4,80,4,82.93v4.28c0,2.92.53,5.07,1.58,6.43A5.86,5.86,0,0,0,10.56,95.68Z"/><path class="cls-1" d="M36.26,99.14c-3.5,0-6.21-1-8.13-2.9S25.24,91.56,25.24,88V82.62c0-3.67,1-6.53,2.89-8.57S32.76,71,36.26,71s6.21,1,8.14,2.91,2.88,4.67,2.88,8.21v5.41q0,5.51-2.88,8.56T36.26,99.14Zm0-3.46q7,0,7-8.47V82.93q0-8.48-7-8.47t-7,8.47v4.28Q29.27,95.67,36.26,95.68Z"/><path class="cls-1" d="M65.08,71a8.75,8.75,0,0,1,6.5,2.3C73.09,74.82,73.85,77,73.85,80V97.41a1.11,1.11,0,0,1-.23.82,1.32,1.32,0,0,1-.84.2H70.89a1.32,1.32,0,0,1-.84-.2,1.11,1.11,0,0,1-.23-.82V80.84q0-3.27-1.4-4.77A5.77,5.77,0,0,0,64,74.56a6.32,6.32,0,0,0-4.84,2,7.34,7.34,0,0,0-1.84,5.22V97.41a1.07,1.07,0,0,1-.23.82,1.32,1.32,0,0,1-.84.2H54.37a1.37,1.37,0,0,1-.85-.2,1.11,1.11,0,0,1-.23-.82V72.73a1.11,1.11,0,0,1,.23-.82,1.31,1.31,0,0,1,.85-.2h1.78a1.26,1.26,0,0,1,.84.2,1.07,1.07,0,0,1,.23.82v1.78C59,72.17,61.61,71,65.08,71Z"/><path class="cls-1" d="M100.72,82.11c.65,0,1.51,0,2.58.1s2.13.17,3.19.31v-3a5.48,5.48,0,0,0-1.3-4.06,6,6,0,0,0-4.26-1.24,8,8,0,0,0-3.67.68,4.36,4.36,0,0,0-1.94,2.38,2.85,2.85,0,0,1-.41.71,1.22,1.22,0,0,1-.76.15H92.31a1.43,1.43,0,0,1-.89-.2,1,1,0,0,1-.23-.77,3.58,3.58,0,0,1,.41-1.53,7.11,7.11,0,0,1,1-1.58,8.12,8.12,0,0,1,3.31-2.29,14,14,0,0,1,5-.77q5.1,0,7.34,2t2.25,6.45V89.86c0,3.06-.78,5.34-2.32,6.84s-4,2.24-7.32,2.24h-.77Q95,98.94,92.46,97C90.8,95.71,90,93.65,90,90.83q0-4.53,2.63-6.63T100.72,82.11Zm.31,3.37c-2.62,0-4.43.4-5.43,1.22a5,5,0,0,0-1.51,4.08,4.33,4.33,0,0,0,1.43,3.62c1,.75,2.59,1.12,4.9,1.12h.46a5.53,5.53,0,0,0,4.28-1.45c.88-1,1.33-2.52,1.33-4.67V85.94c-1-.14-2-.25-3-.34S101.64,85.48,101,85.48Z"/><path class="cls-1" d="M126.58,95.68c3.47,0,5.46-1.47,6-4.39a1,1,0,0,1,.28-.69,1.53,1.53,0,0,1,.89-.18h1.68a1.39,1.39,0,0,1,.9.21,1,1,0,0,1,.23.76,7.69,7.69,0,0,1-1.48,4.24q-2.36,3.51-8.57,3.51-5.1,0-7.78-2.83C116.92,94.43,116,91.66,116,88V83c0-4,.9-6.93,2.68-9s4.38-3,7.78-3q5.55,0,8.06,2.81a7.28,7.28,0,0,1,1.94,4.94,1,1,0,0,1-.23.77,1.42,1.42,0,0,1-.9.2h-1.63a1.53,1.53,0,0,1-.89-.18.92.92,0,0,1-.28-.68,4.58,4.58,0,0,0-1.79-3.29,6.61,6.61,0,0,0-4.08-1.15q-3.47,0-5.05,2t-1.58,6.48v4.28c0,2.92.53,5.07,1.58,6.43A5.89,5.89,0,0,0,126.58,95.68Z"/><path class="cls-1" d="M151.83,95.68c3.46,0,5.45-1.47,6-4.39a1,1,0,0,1,.28-.69,1.57,1.57,0,0,1,.9-.18h1.68a1.36,1.36,0,0,1,.89.21,1,1,0,0,1,.23.76,7.61,7.61,0,0,1-1.48,4.24q-2.34,3.51-8.57,3.51-5.1,0-7.77-2.83c-1.79-1.88-2.68-4.65-2.68-8.28V83q0-5.92,2.68-9t7.77-3q5.57,0,8.06,2.81a7.28,7.28,0,0,1,1.94,4.94,1,1,0,0,1-.23.77,1.37,1.37,0,0,1-.89.2H159a1.57,1.57,0,0,1-.9-.18,1,1,0,0,1-.28-.68A4.57,4.57,0,0,0,156,75.56a6.61,6.61,0,0,0-4.08-1.15c-2.31,0-4,.68-5.05,2S145.3,80,145.3,82.93v4.28c0,2.92.52,5.07,1.58,6.43A5.86,5.86,0,0,0,151.83,95.68Z"/><path class="cls-1" d="M169.57,67a2.69,2.69,0,0,1-1.86-.61,2.14,2.14,0,0,1-.69-1.68v-.82a2.07,2.07,0,0,1,.69-1.63,2.69,2.69,0,0,1,1.86-.61,2.87,2.87,0,0,1,1.94.61,2,2,0,0,1,.72,1.63v.82a2.09,2.09,0,0,1-.72,1.68A2.87,2.87,0,0,1,169.57,67Zm2,5.77V97.41a1.07,1.07,0,0,1-.23.82,1.32,1.32,0,0,1-.84.2H168.6a1.36,1.36,0,0,1-.84-.2,1.11,1.11,0,0,1-.23-.82V72.73a1.11,1.11,0,0,1,.23-.82,1.29,1.29,0,0,1,.84-.2h1.89a1.26,1.26,0,0,1,.84.2A1.07,1.07,0,0,1,171.56,72.73Z"/><path class="cls-1" d="M188.6,99.14c-3.51,0-6.22-1-8.14-2.9s-2.88-4.68-2.88-8.21V82.62q0-5.5,2.88-8.57T188.6,71q5.25,0,8.13,2.91c1.92,1.94,2.88,4.67,2.88,8.21v5.41q0,5.51-2.88,8.56T188.6,99.14Zm0-3.46q7,0,7-8.47V82.93q0-8.48-7-8.47t-7,8.47v4.28Q181.61,95.67,188.6,95.68Z"/><path class="cls-1" d="M217.41,71a8.74,8.74,0,0,1,6.5,2.3c1.52,1.53,2.27,3.75,2.27,6.68V97.41a1.07,1.07,0,0,1-.23.82,1.32,1.32,0,0,1-.84.2h-1.88a1.37,1.37,0,0,1-.85-.2,1.11,1.11,0,0,1-.23-.82V80.84c0-2.18-.46-3.77-1.4-4.77a5.73,5.73,0,0,0-4.41-1.51,6.3,6.3,0,0,0-4.84,2,7.3,7.3,0,0,0-1.84,5.22V97.41a1.11,1.11,0,0,1-.23.82,1.32,1.32,0,0,1-.84.2H206.7a1.32,1.32,0,0,1-.84-.2,1.11,1.11,0,0,1-.23-.82V72.73a1.11,1.11,0,0,1,.23-.82,1.26,1.26,0,0,1,.84-.2h1.79a1.29,1.29,0,0,1,.84.2,1.11,1.11,0,0,1,.23.82v1.78C211.32,72.17,213.94,71,217.41,71Z"/><path class="cls-1" d="M252.14,86.29H236v1q0,8.42,6.84,8.42,4.33,0,5.76-3.32a1.69,1.69,0,0,1,.46-.74,1.48,1.48,0,0,1,.71-.13h1.84a1.77,1.77,0,0,1,.92.16.82.82,0,0,1,.2.66,4.29,4.29,0,0,1-.56,1.84,9.22,9.22,0,0,1-1.27,1.93,8.54,8.54,0,0,1-3.47,2.25,13.56,13.56,0,0,1-4.74.81q-5.16,0-7.93-3c-1.86-2-2.78-4.87-2.78-8.57V83.74q0-6.12,2.78-9.43t8-3.32q10.5,0,10.5,11.68v2.6a1.07,1.07,0,0,1-.23.82A1.32,1.32,0,0,1,252.14,86.29Zm-9.43-12.14Q236,74.15,236,83h13.16c0-3-.52-5.26-1.58-6.68A5.62,5.62,0,0,0,242.71,74.15Z"/><path class="cls-1" d="M267.75,99.14q-5.56,0-8.21-2.49a6,6,0,0,1-2-4.49,1,1,0,0,1,.23-.77,1.43,1.43,0,0,1,.89-.2h1.48a1.64,1.64,0,0,1,.84.15,1.09,1.09,0,0,1,.33.72,4.4,4.4,0,0,0,2,3,8.41,8.41,0,0,0,4.37.92q5.81,0,5.81-4.13a4.16,4.16,0,0,0-1.07-3A7.71,7.71,0,0,0,268.82,87l-4.54-1.18c-4.08-1.08-6.12-3.4-6.12-6.93v-.26a6.8,6.8,0,0,1,2.57-5.58,10.82,10.82,0,0,1,7-2.07q5.35,0,7.75,2.55a6,6,0,0,1,1.83,4.34,1,1,0,0,1-.23.76,1.36,1.36,0,0,1-.89.21h-1.48a1.66,1.66,0,0,1-.89-.16.93.93,0,0,1-.28-.71q-.61-3.83-6.17-3.83a6.15,6.15,0,0,0-3.95,1.13A3.8,3.8,0,0,0,262,78.44a3.21,3.21,0,0,0,1.1,2.6,11.08,11.08,0,0,0,4.11,1.68l4.18,1.07q6.12,1.53,6.12,7.45v.25Q277.49,99.14,267.75,99.14Z"/></g></g></g></g></svg>