<svg xmlns="http://www.w3.org/2000/svg" viewBox="0 0 322.79 15.67"><defs><style>.cls-1{fill:#fff;}</style></defs><g id="Capa_2" data-name="Capa 2"><g id="Capa_1-2" data-name="Capa 1"><path class="cls-1" d="M8.51,11.36a.38.38,0,0,1,.11-.29A.65.65,0,0,1,9,11h.73a.55.55,0,0,1,.37.09.41.41,0,0,1,.1.31A4.52,4.52,0,0,1,9.9,13a3.51,3.51,0,0,1-.79,1.26,5.41,5.41,0,0,1-4,1.39A5.85,5.85,0,0,1,2.24,15a4,4,0,0,1-1.8-2,6.55,6.55,0,0,1-.33-1.37A14.15,14.15,0,0,1,0,9.68V6.24a14.75,14.75,0,0,1,.11-2A6.11,6.11,0,0,1,.44,2.94C1.21,1,2.84,0,5.31,0A4.88,4.88,0,0,1,9.16,1.39a4.05,4.05,0,0,1,1,2.85.43.43,0,0,1-.1.32.63.63,0,0,1-.37.08H9a.62.62,0,0,1-.37-.07.46.46,0,0,1-.12-.29C8.32,2.45,7.24,1.53,5.21,1.53A3.19,3.19,0,0,0,2.55,2.59,5.56,5.56,0,0,0,1.72,6V9.72a5.49,5.49,0,0,0,.83,3.37,3.13,3.13,0,0,0,2.64,1.06Q8.25,14.15,8.51,11.36Z"/><path class="cls-1" d="M20.37,10.33H13.71v.4q0,3.46,2.82,3.47a2.32,2.32,0,0,0,2.37-1.37c.07-.17.13-.27.19-.3a.5.5,0,0,1,.29-.06h.76a.76.76,0,0,1,.38.07.35.35,0,0,1,.08.27,1.87,1.87,0,0,1-.23.76,3.34,3.34,0,0,1-1.95,1.72,5.72,5.72,0,0,1-2,.33,4.23,4.23,0,0,1-3.26-1.23,5,5,0,0,1-1.15-3.53V9.28A5.89,5.89,0,0,1,13.2,5.4,4,4,0,0,1,16.48,4c2.89,0,4.33,1.61,4.33,4.81V9.91a.48.48,0,0,1-.09.34A.6.6,0,0,1,20.37,10.33Zm-3.89-5c-1.83,0-2.75,1.22-2.77,3.64h5.42a4.66,4.66,0,0,0-.65-2.75A2.32,2.32,0,0,0,16.48,5.33Z"/><path class="cls-1" d="M24.91.8V14.91a.47.47,0,0,1-.1.34.58.58,0,0,1-.35.08h-.77a.58.58,0,0,1-.35-.08.48.48,0,0,1-.09-.34V.8a.48.48,0,0,1,.09-.34.58.58,0,0,1,.35-.08h.77a.58.58,0,0,1,.35.08A.47.47,0,0,1,24.91.8Z"/><path class="cls-1" d="M35.7,10.33H29v.4q0,3.46,2.82,3.47a2.32,2.32,0,0,0,2.37-1.37c.07-.17.13-.27.19-.3a.5.5,0,0,1,.29-.06h.76a.76.76,0,0,1,.38.07.35.35,0,0,1,.08.27,1.87,1.87,0,0,1-.23.76,3.34,3.34,0,0,1-2,1.72,5.72,5.72,0,0,1-2,.33,4.23,4.23,0,0,1-3.26-1.23,5,5,0,0,1-1.15-3.53V9.28A5.83,5.83,0,0,1,28.53,5.4,4,4,0,0,1,31.81,4c2.89,0,4.33,1.61,4.33,4.81V9.91a.48.48,0,0,1-.09.34A.6.6,0,0,1,35.7,10.33Zm-3.89-5C30,5.33,29.06,6.55,29,9h5.42a4.66,4.66,0,0,0-.65-2.75A2.32,2.32,0,0,0,31.81,5.33Z"/><path class="cls-1" d="M38.37,11.26V.8a.48.48,0,0,1,.09-.34.58.58,0,0,1,.35-.08h.77a.58.58,0,0,1,.35.08A.47.47,0,0,1,40,.8V5.33A3.76,3.76,0,0,1,43.13,4,4.12,4.12,0,0,1,46.3,5.22a4.73,4.73,0,0,1,1.12,3.39v2.33a4.78,4.78,0,0,1-1.19,3.46,4.44,4.44,0,0,1-3.33,1.22,4.64,4.64,0,0,1-3.35-1.14A4.27,4.27,0,0,1,38.37,11.26ZM40,9v1.76C40,13,41,14.2,42.9,14.2s2.86-1.17,2.86-3.49V9q0-3.49-2.88-3.49a2.59,2.59,0,0,0-2.13.89A4.07,4.07,0,0,0,40,9Z"/><path class="cls-1" d="M51.51,4.75V6.34a3.45,3.45,0,0,1,1.21-1.46,3.13,3.13,0,0,1,1.82-.55h.27c.15,0,.25,0,.29.08a.55.55,0,0,1,.07.34V5.5a.55.55,0,0,1-.07.34.38.38,0,0,1-.29.08h-.55a2.31,2.31,0,0,0-2,1,4.39,4.39,0,0,0-.74,2.6v5.35a.48.48,0,0,1-.09.34.58.58,0,0,1-.35.08h-.77a.58.58,0,0,1-.35-.08.48.48,0,0,1-.09-.34V4.75A.48.48,0,0,1,50,4.41a.51.51,0,0,1,.35-.08h.73a.53.53,0,0,1,.35.08A.48.48,0,0,1,51.51,4.75Z"/><path class="cls-1" d="M60.73,8.61c.27,0,.62,0,1.06,0s.88.07,1.31.13V7.54a2.22,2.22,0,0,0-.53-1.67,2.5,2.5,0,0,0-1.76-.52,3.24,3.24,0,0,0-1.51.29,1.82,1.82,0,0,0-.8,1,1.28,1.28,0,0,1-.16.29A.55.55,0,0,1,58,7h-.75a.61.61,0,0,1-.37-.08.43.43,0,0,1-.1-.32A1.57,1.57,0,0,1,57,5.94a3,3,0,0,1,.42-.65,3.4,3.4,0,0,1,1.37-.94A5.73,5.73,0,0,1,60.81,4a4.58,4.58,0,0,1,3,.81,3.36,3.36,0,0,1,.92,2.66v4.3a3.8,3.8,0,0,1-1,2.82,4.25,4.25,0,0,1-3,.92h-.31a5.1,5.1,0,0,1-3.15-.8,3,3,0,0,1-1-2.54,3.3,3.3,0,0,1,1.08-2.73A5.37,5.37,0,0,1,60.73,8.61ZM60.86,10a3.64,3.64,0,0,0-2.24.5A2.07,2.07,0,0,0,58,12.18a1.78,1.78,0,0,0,.59,1.49,3.3,3.3,0,0,0,2,.46h.19a2.29,2.29,0,0,0,1.77-.6,2.79,2.79,0,0,0,.54-1.92V10.19c-.42-.06-.83-.11-1.25-.14S61.11,10,60.86,10Z"/><path class="cls-1" d="M72.3,4A3.61,3.61,0,0,1,75,5a3.75,3.75,0,0,1,.93,2.75v7.18a.48.48,0,0,1-.09.34.58.58,0,0,1-.35.08H74.7a.58.58,0,0,1-.35-.08.47.47,0,0,1-.1-.34V8.08a2.83,2.83,0,0,0-.57-2,2.4,2.4,0,0,0-1.82-.62,2.58,2.58,0,0,0-2,.81,3,3,0,0,0-.76,2.15v6.45a.48.48,0,0,1-.09.34.6.6,0,0,1-.35.08h-.78a.54.54,0,0,1-.34-.08.43.43,0,0,1-.1-.34V4.75a.43.43,0,0,1,.1-.34.48.48,0,0,1,.34-.08h.74a.5.5,0,0,1,.34.08.43.43,0,0,1,.1.34v.73A3.8,3.8,0,0,1,72.3,4Z"/><path class="cls-1" d="M82.59,4a3.76,3.76,0,0,1,3.09,1.3V.8a.48.48,0,0,1,.09-.34.6.6,0,0,1,.35-.08h.78a.56.56,0,0,1,.34.08.43.43,0,0,1,.1.34v10a4.93,4.93,0,0,1-1.19,3.52,4.38,4.38,0,0,1-3.35,1.26,4.54,4.54,0,0,1-3.33-1.17,4.44,4.44,0,0,1-1.18-3.3V8.82a5.11,5.11,0,0,1,1.14-3.51A4,4,0,0,1,82.59,4ZM80,9v1.76c0,2.32,1,3.49,2.85,3.49s2.88-1.17,2.88-3.49V9q0-3.49-2.86-3.49C80.9,5.46,80,6.62,80,9Z"/><path class="cls-1" d="M94.14,15.62a4.5,4.5,0,0,1-3.35-1.19,4.61,4.61,0,0,1-1.18-3.38V8.82a5,5,0,0,1,1.18-3.53A4.38,4.38,0,0,1,94.14,4a4.5,4.5,0,0,1,3.35,1.2,4.6,4.6,0,0,1,1.19,3.38v2.23a4.93,4.93,0,0,1-1.19,3.52A4.38,4.38,0,0,1,94.14,15.62Zm0-1.42C96.06,14.2,97,13,97,10.71V9q0-3.49-2.88-3.49T91.26,9v1.76C91.26,13,92.22,14.2,94.14,14.2Z"/><path class="cls-1" d="M109.43,8.61c.26,0,.62,0,1.06,0s.88.07,1.31.13V7.54a2.26,2.26,0,0,0-.53-1.67,2.5,2.5,0,0,0-1.76-.52,3.21,3.21,0,0,0-1.51.29,1.78,1.78,0,0,0-.8,1,1.28,1.28,0,0,1-.16.29.55.55,0,0,1-.32.06H106a.59.59,0,0,1-.36-.08.4.4,0,0,1-.1-.32,1.57,1.57,0,0,1,.17-.63,3,3,0,0,1,.42-.65,3.33,3.33,0,0,1,1.37-.94A5.73,5.73,0,0,1,109.51,4a4.58,4.58,0,0,1,3,.81,3.4,3.4,0,0,1,.92,2.66v4.3a3.8,3.8,0,0,1-.95,2.82,4.26,4.26,0,0,1-3,.92h-.31a5.1,5.1,0,0,1-3.15-.8,3,3,0,0,1-1-2.54,3.3,3.3,0,0,1,1.08-2.73A5.37,5.37,0,0,1,109.43,8.61Zm.13,1.39a3.64,3.64,0,0,0-2.24.5,2.07,2.07,0,0,0-.62,1.68,1.78,1.78,0,0,0,.59,1.49,3.3,3.3,0,0,0,2,.46h.19a2.31,2.31,0,0,0,1.77-.6,2.79,2.79,0,0,0,.54-1.92V10.19c-.42-.06-.83-.11-1.25-.14S109.81,10,109.56,10Z"/><path class="cls-1" d="M122.18.8V14.91a.43.43,0,0,1-.1.34.56.56,0,0,1-.34.08H121a.58.58,0,0,1-.35-.08.48.48,0,0,1-.09-.34V.8a.48.48,0,0,1,.09-.34A.58.58,0,0,1,121,.38h.78a.56.56,0,0,1,.34.08A.43.43,0,0,1,122.18.8Z"/><path class="cls-1" d="M129.19,15.62a4.5,4.5,0,0,1-3.35-1.19,4.61,4.61,0,0,1-1.19-3.38V8.82a5,5,0,0,1,1.19-3.53A4.38,4.38,0,0,1,129.19,4a4.5,4.5,0,0,1,3.35,1.2,4.6,4.6,0,0,1,1.19,3.38v2.23a4.93,4.93,0,0,1-1.19,3.52A4.38,4.38,0,0,1,129.19,15.62Zm0-1.42c1.92,0,2.88-1.17,2.88-3.49V9q0-3.49-2.88-3.49T126.31,9v1.76C126.31,13,127.27,14.2,129.19,14.2Z"/><path class="cls-1" d="M139.75,15.62a4.83,4.83,0,0,1-3.38-1,2.5,2.5,0,0,1-.82-1.85.4.4,0,0,1,.1-.32.59.59,0,0,1,.36-.08h.61a.7.7,0,0,1,.35.06.46.46,0,0,1,.14.3,1.75,1.75,0,0,0,.81,1.21,3.38,3.38,0,0,0,1.79.38c1.6,0,2.39-.57,2.39-1.7a1.69,1.69,0,0,0-.44-1.25,3.14,3.14,0,0,0-1.47-.72l-1.87-.49c-1.67-.44-2.52-1.4-2.52-2.85V7.18a2.8,2.8,0,0,1,1.07-2.3A4.47,4.47,0,0,1,139.73,4a4.19,4.19,0,0,1,3.19,1,2.44,2.44,0,0,1,.76,1.79.41.41,0,0,1-.09.31.57.57,0,0,1-.37.09h-.61a.65.65,0,0,1-.37-.07.38.38,0,0,1-.11-.29c-.17-1-1-1.58-2.55-1.58A2.5,2.5,0,0,0,138,5.8a1.55,1.55,0,0,0-.58,1.3,1.32,1.32,0,0,0,.45,1.07,4.63,4.63,0,0,0,1.69.69l1.72.44a2.94,2.94,0,0,1,2.52,3.07v.1C143.76,14.57,142.43,15.62,139.75,15.62Z"/><path class="cls-1" d="M150.27,11.26V.8a.47.47,0,0,1,.1-.34.56.56,0,0,1,.34-.08h.78a.58.58,0,0,1,.35.08.48.48,0,0,1,.09.34V5.33A3.78,3.78,0,0,1,155,4a4.14,4.14,0,0,1,3.17,1.19,4.77,4.77,0,0,1,1.11,3.39v2.33a4.78,4.78,0,0,1-1.18,3.46,4.44,4.44,0,0,1-3.33,1.22,4.64,4.64,0,0,1-3.35-1.14A4.27,4.27,0,0,1,150.27,11.26ZM151.93,9v1.76c0,2.32,1,3.49,2.88,3.49s2.86-1.17,2.86-3.49V9q0-3.49-2.88-3.49a2.59,2.59,0,0,0-2.13.89A4,4,0,0,0,151.93,9Z"/><path class="cls-1" d="M169.7,10.33H163v.4q0,3.46,2.82,3.47a2.32,2.32,0,0,0,2.37-1.37c.07-.17.13-.27.19-.3a.5.5,0,0,1,.29-.06h.76a.76.76,0,0,1,.38.07.35.35,0,0,1,.08.27,1.87,1.87,0,0,1-.23.76,3.89,3.89,0,0,1-.53.79,3.48,3.48,0,0,1-1.42.93,5.72,5.72,0,0,1-2,.33,4.23,4.23,0,0,1-3.26-1.23,5,5,0,0,1-1.15-3.53V9.28a5.83,5.83,0,0,1,1.15-3.88A4,4,0,0,1,165.81,4c2.89,0,4.33,1.61,4.33,4.81V9.91a.43.43,0,0,1-.1.34A.54.54,0,0,1,169.7,10.33Zm-3.89-5C164,5.33,163.06,6.55,163,9h5.42a4.66,4.66,0,0,0-.65-2.75A2.33,2.33,0,0,0,165.81,5.33Z"/><path class="cls-1" d="M172.36,11.26V.8a.47.47,0,0,1,.1-.34.58.58,0,0,1,.35-.08h.77a.58.58,0,0,1,.35.08A.48.48,0,0,1,174,.8V5.33A3.78,3.78,0,0,1,177.13,4a4.14,4.14,0,0,1,3.17,1.19,4.78,4.78,0,0,1,1.12,3.39v2.33a4.78,4.78,0,0,1-1.19,3.46,4.44,4.44,0,0,1-3.33,1.22,4.64,4.64,0,0,1-3.35-1.14A4.27,4.27,0,0,1,172.36,11.26ZM174,9v1.76c0,2.32,1,3.49,2.88,3.49s2.86-1.17,2.86-3.49V9q0-3.49-2.88-3.49a2.59,2.59,0,0,0-2.13.89A4.07,4.07,0,0,0,174,9Z"/><path class="cls-1" d="M191.79,10.33h-6.66v.4q0,3.46,2.82,3.47a2.32,2.32,0,0,0,2.37-1.37c.07-.17.13-.27.19-.3a.5.5,0,0,1,.29-.06h.76a.76.76,0,0,1,.38.07.35.35,0,0,1,.08.27,1.87,1.87,0,0,1-.23.76,3.34,3.34,0,0,1-1.95,1.72,5.72,5.72,0,0,1-2,.33,4.23,4.23,0,0,1-3.26-1.23,5,5,0,0,1-1.15-3.53V9.28a5.83,5.83,0,0,1,1.15-3.88A4,4,0,0,1,187.9,4c2.89,0,4.33,1.61,4.33,4.81V9.91a.48.48,0,0,1-.09.34A.6.6,0,0,1,191.79,10.33Zm-3.89-5c-1.83,0-2.75,1.22-2.77,3.64h5.42a4.66,4.66,0,0,0-.65-2.75A2.32,2.32,0,0,0,187.9,5.33ZM189,0h.92c.18,0,.27.06.27.17a.62.62,0,0,1-.08.23L188.6,2.48a2.06,2.06,0,0,1-.34.4.78.78,0,0,1-.36.06h-.71c-.18,0-.27-.06-.27-.17a.62.62,0,0,1,.08-.23L188.28.46a1.31,1.31,0,0,1,.31-.39A.73.73,0,0,1,189,0Z"/><path class="cls-1" d="M198.22,15.62a4.84,4.84,0,0,1-3.39-1,2.49,2.49,0,0,1-.81-1.85.44.44,0,0,1,.09-.32.63.63,0,0,1,.37-.08h.61a.68.68,0,0,1,.34.06c.07,0,.11.14.14.3a1.78,1.78,0,0,0,.81,1.21,3.38,3.38,0,0,0,1.79.38c1.6,0,2.4-.57,2.4-1.7a1.73,1.73,0,0,0-.44-1.25,3.25,3.25,0,0,0-1.47-.72l-1.87-.49c-1.68-.44-2.52-1.4-2.52-2.85V7.18a2.8,2.8,0,0,1,1.06-2.3A4.47,4.47,0,0,1,198.19,4a4.24,4.24,0,0,1,3.2,1,2.47,2.47,0,0,1,.75,1.79.41.41,0,0,1-.09.31.57.57,0,0,1-.37.09h-.61a.67.67,0,0,1-.37-.07.38.38,0,0,1-.11-.29c-.17-1-1-1.58-2.54-1.58a2.53,2.53,0,0,0-1.63.47,1.55,1.55,0,0,0-.58,1.3,1.32,1.32,0,0,0,.45,1.07,4.63,4.63,0,0,0,1.69.69l1.73.44a2.94,2.94,0,0,1,2.52,3.07v.1Q202.23,15.62,198.22,15.62Z"/><path class="cls-1" d="M212.87,14.2c1.43,0,2.25-.61,2.46-1.81a.35.35,0,0,1,.12-.28.59.59,0,0,1,.36-.08h.7a.52.52,0,0,1,.36.09.37.37,0,0,1,.1.31,3.14,3.14,0,0,1-.61,1.75c-.65,1-1.82,1.44-3.53,1.44a4.17,4.17,0,0,1-3.2-1.16,4.78,4.78,0,0,1-1.1-3.41V9a5.39,5.39,0,0,1,1.1-3.69A4,4,0,0,1,212.83,4a4.25,4.25,0,0,1,3.32,1.16,3,3,0,0,1,.8,2,.4.4,0,0,1-.1.32.54.54,0,0,1-.37.08h-.67a.61.61,0,0,1-.36-.07.35.35,0,0,1-.12-.28,1.9,1.9,0,0,0-.73-1.36,2.79,2.79,0,0,0-1.68-.47,2.45,2.45,0,0,0-2.08.84A4.33,4.33,0,0,0,210.19,9v1.76a4.31,4.31,0,0,0,.65,2.65A2.4,2.4,0,0,0,212.87,14.2Z"/><path class="cls-1" d="M223.46,15.62a4.5,4.5,0,0,1-3.35-1.19,4.61,4.61,0,0,1-1.19-3.38V8.82a5,5,0,0,1,1.19-3.53A4.38,4.38,0,0,1,223.46,4a4.5,4.5,0,0,1,3.35,1.2A4.59,4.59,0,0,1,228,8.61v2.23a4.93,4.93,0,0,1-1.18,3.52A4.38,4.38,0,0,1,223.46,15.62Zm0-1.42c1.92,0,2.87-1.17,2.87-3.49V9c0-2.33-1-3.49-2.87-3.49S220.58,6.62,220.58,9v1.76C220.58,13,221.54,14.2,223.46,14.2Z"/><path class="cls-1" d="M235.32,4A3.61,3.61,0,0,1,238,5a3.75,3.75,0,0,1,.93,2.75v7.18a.48.48,0,0,1-.09.34.58.58,0,0,1-.35.08h-.77a.58.58,0,0,1-.35-.08.47.47,0,0,1-.1-.34V8.08a2.83,2.83,0,0,0-.57-2,2.4,2.4,0,0,0-1.82-.62,2.58,2.58,0,0,0-2,.81,3,3,0,0,0-.76,2.15v6.45a.48.48,0,0,1-.09.34.6.6,0,0,1-.35.08h-.78a.54.54,0,0,1-.34-.08.43.43,0,0,1-.1-.34V4.75a.43.43,0,0,1,.1-.34.48.48,0,0,1,.34-.08h.74a.5.5,0,0,1,.34.08.43.43,0,0,1,.1.34v.73A3.8,3.8,0,0,1,235.32,4Z"/><path class="cls-1" d="M250,8.61c.27,0,.62,0,1.06,0s.88.07,1.31.13V7.54a2.26,2.26,0,0,0-.53-1.67,2.5,2.5,0,0,0-1.76-.52,3.24,3.24,0,0,0-1.51.29,1.82,1.82,0,0,0-.8,1,1.28,1.28,0,0,1-.16.29.55.55,0,0,1-.32.06h-.75a.61.61,0,0,1-.37-.08.4.4,0,0,1-.1-.32,1.57,1.57,0,0,1,.17-.63,3,3,0,0,1,.42-.65A3.4,3.4,0,0,1,248,4.35,5.73,5.73,0,0,1,250.08,4a4.58,4.58,0,0,1,3,.81A3.4,3.4,0,0,1,254,7.5v4.3a3.8,3.8,0,0,1-.95,2.82,4.25,4.25,0,0,1-3,.92h-.31a5.1,5.1,0,0,1-3.15-.8,3,3,0,0,1-1-2.54,3.3,3.3,0,0,1,1.08-2.73A5.37,5.37,0,0,1,250,8.61Zm.13,1.39a3.64,3.64,0,0,0-2.24.5,2.07,2.07,0,0,0-.62,1.68,1.78,1.78,0,0,0,.59,1.49,3.3,3.3,0,0,0,2,.46h.19a2.29,2.29,0,0,0,1.77-.6,2.79,2.79,0,0,0,.54-1.92V10.19c-.42-.06-.83-.11-1.25-.14S250.38,10,250.13,10Z"/><path class="cls-1" d="M260.65,14.2c1.43,0,2.24-.61,2.45-1.81a.43.43,0,0,1,.12-.28.63.63,0,0,1,.37-.08h.69a.57.57,0,0,1,.37.09.41.41,0,0,1,.09.31,3.14,3.14,0,0,1-.61,1.75c-.64,1-1.82,1.44-3.52,1.44a4.21,4.21,0,0,1-3.21-1.16,4.82,4.82,0,0,1-1.1-3.41V9a5.44,5.44,0,0,1,1.1-3.69A4.08,4.08,0,0,1,260.61,4a4.22,4.22,0,0,1,3.31,1.16,3,3,0,0,1,.8,2,.44.44,0,0,1-.09.32.58.58,0,0,1-.37.08h-.67a.65.65,0,0,1-.37-.07.43.43,0,0,1-.12-.28,1.9,1.9,0,0,0-.73-1.36,2.77,2.77,0,0,0-1.68-.47,2.47,2.47,0,0,0-2.08.84A4.4,4.4,0,0,0,258,9v1.76a4.38,4.38,0,0,0,.65,2.65A2.41,2.41,0,0,0,260.65,14.2Z"/><path class="cls-1" d="M271,14.2c1.43,0,2.25-.61,2.46-1.81a.35.35,0,0,1,.12-.28A.59.59,0,0,1,274,12h.7a.52.52,0,0,1,.36.09.37.37,0,0,1,.1.31,3.22,3.22,0,0,1-.61,1.75c-.65,1-1.82,1.44-3.53,1.44a4.17,4.17,0,0,1-3.2-1.16,4.78,4.78,0,0,1-1.1-3.41V9a5.39,5.39,0,0,1,1.1-3.69A4,4,0,0,1,271,4a4.25,4.25,0,0,1,3.32,1.16,3,3,0,0,1,.8,2,.4.4,0,0,1-.1.32.54.54,0,0,1-.37.08H274a.61.61,0,0,1-.36-.07.35.35,0,0,1-.12-.28,1.91,1.91,0,0,0-.74-1.36,2.77,2.77,0,0,0-1.68-.47,2.45,2.45,0,0,0-2.07.84A4.33,4.33,0,0,0,268.35,9v1.76a4.3,4.3,0,0,0,.66,2.65A2.4,2.4,0,0,0,271,14.2Z"/><path class="cls-1" d="M278.35,2.37a1.12,1.12,0,0,1-.77-.25.91.91,0,0,1-.28-.69V1.09a.88.88,0,0,1,.28-.67,1.12,1.12,0,0,1,.77-.25,1.18,1.18,0,0,1,.8.25.86.86,0,0,1,.29.67v.34a.88.88,0,0,1-.29.69A1.18,1.18,0,0,1,278.35,2.37Zm.82,2.38V14.91a.48.48,0,0,1-.09.34.6.6,0,0,1-.35.08H278a.54.54,0,0,1-.34-.08.43.43,0,0,1-.1-.34V4.75a.43.43,0,0,1,.1-.34.48.48,0,0,1,.34-.08h.78a.53.53,0,0,1,.35.08A.48.48,0,0,1,279.17,4.75Z"/><path class="cls-1" d="M286.18,15.62a4.5,4.5,0,0,1-3.35-1.19,4.61,4.61,0,0,1-1.18-3.38V8.82a5,5,0,0,1,1.18-3.53A4.38,4.38,0,0,1,286.18,4a4.49,4.49,0,0,1,3.35,1.2,4.6,4.6,0,0,1,1.19,3.38v2.23a4.93,4.93,0,0,1-1.19,3.52A4.37,4.37,0,0,1,286.18,15.62Zm0-1.42c1.92,0,2.88-1.17,2.88-3.49V9q0-3.49-2.88-3.49c-1.92,0-2.87,1.16-2.87,3.49v1.76C283.31,13,284.26,14.2,286.18,14.2Z"/><path class="cls-1" d="M298.05,4a3.62,3.62,0,0,1,2.68,1,3.75,3.75,0,0,1,.93,2.75v7.18a.48.48,0,0,1-.09.34.6.6,0,0,1-.35.08h-.78a.54.54,0,0,1-.34-.08.43.43,0,0,1-.1-.34V8.08a2.78,2.78,0,0,0-.58-2,2.37,2.37,0,0,0-1.81-.62,2.61,2.61,0,0,0-2,.81,3,3,0,0,0-.75,2.15v6.45a.47.47,0,0,1-.1.34.56.56,0,0,1-.34.08h-.78a.58.58,0,0,1-.35-.08.48.48,0,0,1-.09-.34V4.75a.48.48,0,0,1,.09-.34.51.51,0,0,1,.35-.08h.73a.51.51,0,0,1,.35.08.48.48,0,0,1,.09.34v.73A3.82,3.82,0,0,1,298.05,4Z"/><path class="cls-1" d="M312.35,10.33h-6.66v.4q0,3.46,2.82,3.47a2.32,2.32,0,0,0,2.37-1.37c.07-.17.13-.27.19-.3a.5.5,0,0,1,.29-.06h.76a.76.76,0,0,1,.38.07.35.35,0,0,1,.08.27,1.87,1.87,0,0,1-.23.76,3.89,3.89,0,0,1-.53.79,3.48,3.48,0,0,1-1.42.93,5.72,5.72,0,0,1-2,.33,4.23,4.23,0,0,1-3.26-1.23A5,5,0,0,1,304,10.86V9.28a5.83,5.83,0,0,1,1.15-3.88A4,4,0,0,1,308.46,4c2.89,0,4.33,1.61,4.33,4.81V9.91a.48.48,0,0,1-.09.34A.6.6,0,0,1,312.35,10.33Zm-3.89-5c-1.83,0-2.75,1.22-2.77,3.64h5.42a4.66,4.66,0,0,0-.65-2.75A2.33,2.33,0,0,0,308.46,5.33Z"/><path class="cls-1" d="M318.77,15.62a4.83,4.83,0,0,1-3.38-1,2.5,2.5,0,0,1-.82-1.85.43.43,0,0,1,.1-.32.61.61,0,0,1,.37-.08h.61a.68.68,0,0,1,.34.06.46.46,0,0,1,.14.3,1.75,1.75,0,0,0,.81,1.21,3.38,3.38,0,0,0,1.79.38c1.6,0,2.4-.57,2.4-1.7a1.73,1.73,0,0,0-.44-1.25,3.25,3.25,0,0,0-1.47-.72l-1.87-.49c-1.68-.44-2.52-1.4-2.52-2.85V7.18a2.8,2.8,0,0,1,1.06-2.3A4.47,4.47,0,0,1,318.75,4a4.24,4.24,0,0,1,3.2,1,2.47,2.47,0,0,1,.75,1.79.41.41,0,0,1-.09.31.57.57,0,0,1-.37.09h-.61a.67.67,0,0,1-.37-.07.38.38,0,0,1-.11-.29c-.17-1-1-1.58-2.54-1.58A2.53,2.53,0,0,0,317,5.8a1.55,1.55,0,0,0-.58,1.3,1.32,1.32,0,0,0,.45,1.07,4.63,4.63,0,0,0,1.69.69l1.73.44a2.94,2.94,0,0,1,2.52,3.07v.1Q322.79,15.62,318.77,15.62Z"/></g></g></svg>