<svg xmlns="http://www.w3.org/2000/svg" viewBox="0 0 718.67 38.96"><defs><style>.cls-1{fill:#df5550;}</style></defs><g id="Capa_2" data-name="Capa 2"><g id="Layer_1" data-name="Layer 1"><path class="cls-1" d="M5.08,7.54H15.71a14.65,14.65,0,0,1,7.46,1.83,9.68,9.68,0,0,1,4.38,5,23.36,23.36,0,0,1,1.2,8v7.91a29.69,29.69,0,0,1-.29,4.43,14.44,14.44,0,0,1-.91,3.37,10.14,10.14,0,0,1-4.35,5A14,14,0,0,1,16,44.83H5.08a1.3,1.3,0,0,1-.86-.21A1.11,1.11,0,0,1,4,43.78V8.59a1.11,1.11,0,0,1,.24-.84A1.3,1.3,0,0,1,5.08,7.54ZM8.17,11.1V41.27h7.44c3,0,5.27-.88,6.7-2.65s2.15-4.51,2.15-8.24V22q0-5.61-2.15-8.25c-1.43-1.77-3.67-2.65-6.7-2.65Z" transform="translate(-3.98 -6.6)"/><path class="cls-1" d="M37.5,12.52a2.75,2.75,0,0,1-1.91-.63,2.18,2.18,0,0,1-.71-1.73V9.32a2.08,2.08,0,0,1,.71-1.67A2.75,2.75,0,0,1,37.5,7a3,3,0,0,1,2,.63,2.06,2.06,0,0,1,.73,1.67v.84a2.16,2.16,0,0,1-.73,1.73A3,3,0,0,1,37.5,12.52Zm2,5.91V43.78a1.11,1.11,0,0,1-.24.84,1.3,1.3,0,0,1-.86.21H36.5a1.3,1.3,0,0,1-.86-.21,1.11,1.11,0,0,1-.24-.84V18.43a1.1,1.1,0,0,1,.24-.83,1.3,1.3,0,0,1,.86-.21h1.94a1.3,1.3,0,0,1,.86.21A1.1,1.1,0,0,1,39.54,18.43Z" transform="translate(-3.98 -6.6)"/><path class="cls-1" d="M55.62,45.56q-5.71,0-8.43-2.56a6.12,6.12,0,0,1-2-4.61,1,1,0,0,1,.24-.79,1.42,1.42,0,0,1,.91-.21h1.52a1.64,1.64,0,0,1,.87.16,1.12,1.12,0,0,1,.34.73,4.5,4.5,0,0,0,2,3,8.69,8.69,0,0,0,4.48.94q6,0,6-4.24a4.26,4.26,0,0,0-1.1-3.12,7.89,7.89,0,0,0-3.66-1.8l-4.66-1.21q-6.29-1.66-6.29-7.12v-.26a7,7,0,0,1,2.65-5.74,11.1,11.1,0,0,1,7.14-2.12c3.67,0,6.32.88,8,2.62a6.08,6.08,0,0,1,1.89,4.45,1,1,0,0,1-.24.79,1.41,1.41,0,0,1-.91.21H62.74a1.79,1.79,0,0,1-.92-.16,1,1,0,0,1-.29-.73C61.12,21.21,59,19.9,55.2,19.9a6.39,6.39,0,0,0-4.06,1.15A3.93,3.93,0,0,0,49.7,24.3,3.27,3.27,0,0,0,50.83,27,11.21,11.21,0,0,0,55,28.7l4.3,1.1q6.27,1.57,6.28,7.64v.27Q65.62,45.55,55.62,45.56Z" transform="translate(-3.98 -6.6)"/><path class="cls-1" d="M81.59,7.54h1.89a.9.9,0,0,1,.7.21,1.29,1.29,0,0,1,.19.84V10a1.29,1.29,0,0,1-.19.84.9.9,0,0,1-.7.21H82a4.62,4.62,0,0,0-3.33,1,4.47,4.47,0,0,0-1,3.22v2.15h4.77a.94.94,0,0,1,.71.21,1.35,1.35,0,0,1,.18.83V19.8a1.35,1.35,0,0,1-.18.83.94.94,0,0,1-.71.21H77.66V43.78a1.11,1.11,0,0,1-.23.84,1.35,1.35,0,0,1-.87.21H74.63a1.35,1.35,0,0,1-.87-.21,1.16,1.16,0,0,1-.23-.84V20.84H70.18a.93.93,0,0,1-.71-.21,1.35,1.35,0,0,1-.18-.83V18.43a1.35,1.35,0,0,1,.18-.83.93.93,0,0,1,.71-.21h3.35V15a7.21,7.21,0,0,1,2.09-5.52A8.41,8.41,0,0,1,81.59,7.54Z" transform="translate(-3.98 -6.6)"/><path class="cls-1" d="M92.38,18.43v4a8.55,8.55,0,0,1,3-3.64,7.84,7.84,0,0,1,4.53-1.38h.68c.39,0,.63.07.74.21a1.57,1.57,0,0,1,.15.83v1.89a1.59,1.59,0,0,1-.15.84c-.11.14-.35.21-.74.21H99.24A5.72,5.72,0,0,0,94.32,24a10.94,10.94,0,0,0-1.84,6.47V43.78a1.11,1.11,0,0,1-.23.84,1.35,1.35,0,0,1-.87.21H89.45a1.35,1.35,0,0,1-.87-.21,1.16,1.16,0,0,1-.23-.84V18.43a1.14,1.14,0,0,1,.23-.83,1.35,1.35,0,0,1,.87-.21h1.83a1.3,1.3,0,0,1,.86.21A1.1,1.1,0,0,1,92.38,18.43Z" transform="translate(-3.98 -6.6)"/><path class="cls-1" d="M121.92,43.78V42a9.31,9.31,0,0,1-7.81,3.56,8.56,8.56,0,0,1-6.49-2.35c-1.5-1.58-2.25-3.86-2.25-6.86V18.43a1.14,1.14,0,0,1,.23-.83,1.35,1.35,0,0,1,.87-.21h1.94a1.33,1.33,0,0,1,.86.21,1.1,1.1,0,0,1,.23.83v17c0,2.24.47,3.87,1.39,4.9a5.54,5.54,0,0,0,4.32,1.55,6.16,6.16,0,0,0,4.8-2,7.75,7.75,0,0,0,1.8-5.37V18.43a1.1,1.1,0,0,1,.24-.83,1.32,1.32,0,0,1,.86-.21h1.94a1.3,1.3,0,0,1,.86.21,1.1,1.1,0,0,1,.24.83V43.78a1.11,1.11,0,0,1-.24.84,1.3,1.3,0,0,1-.86.21H123a1.35,1.35,0,0,1-.87-.21A1.16,1.16,0,0,1,121.92,43.78Z" transform="translate(-3.98 -6.6)"/><path class="cls-1" d="M144.59,44.83h-2.83c-2.34,0-4-.56-5.15-1.68S135,40.27,135,37.86v-17h-3.41a.9.9,0,0,1-.7-.21,1.28,1.28,0,0,1-.19-.83V18.43a1.28,1.28,0,0,1,.19-.83.9.9,0,0,1,.7-.21H135V10.74a1.11,1.11,0,0,1,.23-.84,1.35,1.35,0,0,1,.87-.21H138a1.35,1.35,0,0,1,.87.21,1.16,1.16,0,0,1,.23.84v6.65h5.4c.38,0,.63.07.73.21a1.46,1.46,0,0,1,.16.83V19.8a1.46,1.46,0,0,1-.16.83c-.1.14-.35.21-.73.21h-5.4V37.18a5.14,5.14,0,0,0,.71,3,2.72,2.72,0,0,0,2.33.94h2.46c.39,0,.63.07.74.21a1.59,1.59,0,0,1,.15.84v1.57a1.59,1.59,0,0,1-.15.84C145.22,44.76,145,44.83,144.59,44.83Z" transform="translate(-3.98 -6.6)"/><path class="cls-1" d="M160.72,28.07c.67,0,1.55,0,2.65.11s2.19.17,3.27.31V25.4a5.56,5.56,0,0,0-1.33-4.16c-.9-.86-2.35-1.29-4.38-1.29a8.09,8.09,0,0,0-3.77.71,4.47,4.47,0,0,0-2,2.44,2.72,2.72,0,0,1-.42.73A1.24,1.24,0,0,1,154,24h-1.89a1.41,1.41,0,0,1-.91-.21,1,1,0,0,1-.24-.79,3.77,3.77,0,0,1,.42-1.57,7.26,7.26,0,0,1,1.05-1.62,8.31,8.31,0,0,1,3.4-2.36,14.48,14.48,0,0,1,5.13-.79c3.49,0,6,.68,7.54,2s2.31,3.55,2.31,6.62V36c0,3.14-.8,5.48-2.38,7s-4.1,2.3-7.52,2.3h-.79q-5.28,0-7.85-2c-1.71-1.32-2.57-3.44-2.57-6.33q0-4.66,2.7-6.81T160.72,28.07Zm.32,3.46q-4,0-5.58,1.25c-1,.84-1.55,2.24-1.55,4.19a4.44,4.44,0,0,0,1.47,3.72c1,.77,2.65,1.15,5,1.15h.47c2,0,3.49-.49,4.4-1.49s1.36-2.59,1.36-4.79V32c-1-.14-2.09-.25-3.12-.34S161.67,31.53,161,31.53Z" transform="translate(-3.98 -6.6)"/><path class="cls-1" d="M198.11,28.07c.67,0,1.55,0,2.65.11s2.19.17,3.27.31V25.4a5.56,5.56,0,0,0-1.33-4.16Q201.37,20,198.32,20a8.12,8.12,0,0,0-3.77.71,4.51,4.51,0,0,0-2,2.44,2.72,2.72,0,0,1-.42.73,1.24,1.24,0,0,1-.78.16h-1.89a1.41,1.41,0,0,1-.91-.21,1,1,0,0,1-.24-.79,3.77,3.77,0,0,1,.42-1.57,7.26,7.26,0,0,1,1-1.62,8.31,8.31,0,0,1,3.4-2.36,14.48,14.48,0,0,1,5.13-.79c3.49,0,6,.68,7.55,2s2.3,3.55,2.3,6.62V36q0,4.71-2.38,7c-1.59,1.54-4.1,2.3-7.52,2.3h-.78q-5.3,0-7.86-2c-1.71-1.32-2.57-3.44-2.57-6.33q0-4.66,2.7-6.81T198.11,28.07Zm.32,3.46q-4,0-5.58,1.25c-1,.84-1.54,2.24-1.54,4.19a4.44,4.44,0,0,0,1.46,3.72q1.47,1.16,5,1.15h.47c2,0,3.49-.49,4.4-1.49S204,37.76,204,35.56V32c-1.05-.14-2.08-.25-3.11-.34S199.06,31.53,198.43,31.53Z" transform="translate(-3.98 -6.6)"/><path class="cls-1" d="M229.9,8.59V43.78a1.16,1.16,0,0,1-.23.84,1.35,1.35,0,0,1-.87.21h-1.93a1.35,1.35,0,0,1-.87-.21,1.11,1.11,0,0,1-.23-.84V8.59a1.11,1.11,0,0,1,.23-.84,1.35,1.35,0,0,1,.87-.21h1.93a1.35,1.35,0,0,1,.87.21A1.16,1.16,0,0,1,229.9,8.59Z" transform="translate(-3.98 -6.6)"/><path class="cls-1" d="M247.39,45.56c-3.59,0-6.38-1-8.35-3s-3-4.8-3-8.43V28.59q0-5.65,3-8.79c2-2.1,4.76-3.15,8.35-3.15s6.38,1,8.36,3,3,4.8,3,8.43v5.55c0,3.77-1,6.71-3,8.8S251,45.56,247.39,45.56Zm0-3.56q7.19,0,7.18-8.69v-4.4q0-8.7-7.18-8.7t-7.17,8.7v4.4Q240.22,42,247.39,42Z" transform="translate(-3.98 -6.6)"/><path class="cls-1" d="M273.74,45.56q-5.72,0-8.43-2.56a6.12,6.12,0,0,1-2.05-4.61,1,1,0,0,1,.24-.79,1.42,1.42,0,0,1,.91-.21h1.52a1.64,1.64,0,0,1,.87.16,1.12,1.12,0,0,1,.34.73,4.5,4.5,0,0,0,2,3,8.69,8.69,0,0,0,4.48.94q6,0,6-4.24a4.26,4.26,0,0,0-1.1-3.12,7.89,7.89,0,0,0-3.66-1.8l-4.66-1.21q-6.29-1.66-6.29-7.12v-.26a7,7,0,0,1,2.65-5.74,11.1,11.1,0,0,1,7.14-2.12c3.67,0,6.32.88,8,2.62a6.08,6.08,0,0,1,1.89,4.45,1,1,0,0,1-.24.79,1.41,1.41,0,0,1-.91.21h-1.52a1.76,1.76,0,0,1-.92-.16,1,1,0,0,1-.29-.73c-.41-2.62-2.53-3.93-6.33-3.93a6.39,6.39,0,0,0-4.06,1.15,3.93,3.93,0,0,0-1.44,3.25A3.29,3.29,0,0,0,268.94,27a11.35,11.35,0,0,0,4.22,1.73l4.3,1.1q6.27,1.57,6.28,7.64v.27Q283.74,45.55,273.74,45.56Z" transform="translate(-3.98 -6.6)"/><path class="cls-1" d="M300,34.67V8.59a1.11,1.11,0,0,1,.24-.84,1.32,1.32,0,0,1,.86-.21H303a1.35,1.35,0,0,1,.87.21,1.16,1.16,0,0,1,.23.84V19.9c1.75-2.16,4.33-3.25,7.75-3.25s6.06,1,7.91,3,2.77,4.79,2.77,8.46v5.81c0,3.7-1,6.58-3,8.62s-4.74,3.06-8.3,3.06-6.39-1-8.36-2.85S300,38.13,300,34.67Zm4.14-5.76v4.4q0,8.69,7.18,8.69t7.12-8.69v-4.4q0-8.7-7.18-8.7a6.44,6.44,0,0,0-5.31,2.23C304.71,23.93,304.11,26.08,304.11,28.91Z" transform="translate(-3.98 -6.6)"/><path class="cls-1" d="M348.42,32.36H331.81v1q0,8.64,7,8.64,4.46,0,5.92-3.4a1.72,1.72,0,0,1,.47-.76,1.43,1.43,0,0,1,.73-.13h1.89a1.86,1.86,0,0,1,.94.15.85.85,0,0,1,.21.68,4.55,4.55,0,0,1-.57,1.89,9.94,9.94,0,0,1-1.31,2,8.73,8.73,0,0,1-3.57,2.3,13.8,13.8,0,0,1-4.87.84c-3.52,0-6.24-1-8.14-3.09s-2.85-5-2.85-8.8V29.75q0-6.29,2.85-9.69c1.9-2.27,4.64-3.41,8.2-3.41q10.78,0,10.78,12v2.67a1.11,1.11,0,0,1-.23.84A1.34,1.34,0,0,1,348.42,32.36ZM338.73,19.9q-6.87,0-6.92,9.06h13.52c0-3.11-.55-5.39-1.63-6.86A5.76,5.76,0,0,0,338.73,19.9Z" transform="translate(-3.98 -6.6)"/><path class="cls-1" d="M355.07,34.67V8.59a1.11,1.11,0,0,1,.23-.84,1.35,1.35,0,0,1,.87-.21h1.93a1.35,1.35,0,0,1,.87.21,1.16,1.16,0,0,1,.23.84V19.9c1.75-2.16,4.33-3.25,7.75-3.25s6.06,1,7.91,3,2.78,4.79,2.78,8.46v5.81c0,3.7-1,6.58-3,8.62s-4.74,3.06-8.3,3.06-6.38-1-8.36-2.85S355.07,38.13,355.07,34.67Zm4.13-5.76v4.4q0,8.69,7.18,8.69t7.12-8.69v-4.4q0-8.7-7.17-8.7A6.46,6.46,0,0,0,361,22.44C359.81,23.93,359.2,26.08,359.2,28.91Z" transform="translate(-3.98 -6.6)"/><path class="cls-1" d="M403.51,32.36h-16.6v1q0,8.64,7,8.64,4.45,0,5.92-3.4a1.81,1.81,0,0,1,.47-.76,1.48,1.48,0,0,1,.74-.13h1.88a1.86,1.86,0,0,1,.94.15.85.85,0,0,1,.21.68,4.55,4.55,0,0,1-.57,1.89,9.53,9.53,0,0,1-1.31,2,8.63,8.63,0,0,1-3.56,2.3,13.88,13.88,0,0,1-4.87.84q-5.29,0-8.15-3.09t-2.85-8.8V29.75q0-6.29,2.85-9.69c1.9-2.27,4.64-3.41,8.2-3.41q10.79,0,10.79,12v2.67a1.11,1.11,0,0,1-.24.84A1.32,1.32,0,0,1,403.51,32.36ZM393.82,19.9q-6.87,0-6.91,9.06h13.51c0-3.11-.54-5.39-1.63-6.86A5.76,5.76,0,0,0,393.82,19.9Zm2.67-13.3h2.3c.46,0,.68.14.68.42a1.25,1.25,0,0,1-.21.57l-3.71,5.19a4,4,0,0,1-.84,1,1.78,1.78,0,0,1-.89.16H392c-.46,0-.68-.14-.68-.42a1.25,1.25,0,0,1,.21-.57l3.19-5.19a3.33,3.33,0,0,1,.76-1A1.93,1.93,0,0,1,396.49,6.6Z" transform="translate(-3.98 -6.6)"/><path class="cls-1" d="M419.53,45.56q-5.7,0-8.43-2.56a6.14,6.14,0,0,1-2-4.61,1.06,1.06,0,0,1,.23-.79,1.46,1.46,0,0,1,.92-.21h1.52a1.58,1.58,0,0,1,.86.16,1.08,1.08,0,0,1,.34.73,4.54,4.54,0,0,0,2,3,8.66,8.66,0,0,0,4.48.94q6,0,6-4.24a4.3,4.3,0,0,0-1.1-3.12,8,8,0,0,0-3.67-1.8L416,31.89q-6.29-1.66-6.28-7.12v-.26a7,7,0,0,1,2.64-5.74,11.13,11.13,0,0,1,7.15-2.12c3.67,0,6.32.88,8,2.62a6.08,6.08,0,0,1,1.89,4.45,1,1,0,0,1-.24.79,1.44,1.44,0,0,1-.92.21h-1.52a1.74,1.74,0,0,1-.91-.16.93.93,0,0,1-.29-.73q-.63-3.93-6.34-3.93a6.41,6.41,0,0,0-4.06,1.15,3.93,3.93,0,0,0-1.44,3.25A3.3,3.3,0,0,0,414.74,27,11.27,11.27,0,0,0,419,28.7l4.29,1.1q6.28,1.57,6.28,7.64v.27Q429.53,45.55,419.53,45.56Z" transform="translate(-3.98 -6.6)"/><path class="cls-1" d="M457.71,44.83h-2.83q-3.51,0-5.16-1.68c-1.1-1.11-1.65-2.88-1.65-5.29v-17h-3.4a.93.93,0,0,1-.71-.21,1.35,1.35,0,0,1-.18-.83V18.43a1.35,1.35,0,0,1,.18-.83.93.93,0,0,1,.71-.21h3.4V10.74a1.11,1.11,0,0,1,.24-.84,1.32,1.32,0,0,1,.86-.21h1.94a1.3,1.3,0,0,1,.86.21,1.11,1.11,0,0,1,.24.84v6.65h5.39c.39,0,.63.07.74.21a1.57,1.57,0,0,1,.15.83V19.8a1.57,1.57,0,0,1-.15.83c-.11.14-.35.21-.74.21h-5.39V37.18a5.14,5.14,0,0,0,.71,3,2.72,2.72,0,0,0,2.33.94h2.46c.38,0,.63.07.73.21a1.48,1.48,0,0,1,.16.84v1.57a1.48,1.48,0,0,1-.16.84C458.34,44.76,458.09,44.83,457.71,44.83Z" transform="translate(-3.98 -6.6)"/><path class="cls-1" d="M473.84,28.07c.66,0,1.54,0,2.64.11s2.19.17,3.28.31V25.4a5.56,5.56,0,0,0-1.34-4.16c-.89-.86-2.35-1.29-4.37-1.29a8.09,8.09,0,0,0-3.77.71,4.42,4.42,0,0,0-2,2.44,3.42,3.42,0,0,1-.42.73,1.3,1.3,0,0,1-.79.16H465.2a1.44,1.44,0,0,1-.92-.21,1,1,0,0,1-.23-.79,3.74,3.74,0,0,1,.41-1.57,7.26,7.26,0,0,1,1.05-1.62,8.35,8.35,0,0,1,3.41-2.36,14.48,14.48,0,0,1,5.13-.79c3.49,0,6,.68,7.54,2s2.3,3.55,2.3,6.62V36q0,4.71-2.38,7c-1.59,1.54-4.09,2.3-7.51,2.3h-.79c-3.53,0-6.14-.66-7.86-2s-2.56-3.44-2.56-6.33q0-4.66,2.7-6.81C467.28,28.79,470.07,28.07,473.84,28.07Zm.31,3.46c-2.69,0-4.54.42-5.57,1.25S467,35,467,37a4.44,4.44,0,0,0,1.47,3.72c1,.77,2.65,1.15,5,1.15H474c2,0,3.49-.49,4.4-1.49s1.36-2.59,1.36-4.79V32c-1.05-.14-2.09-.25-3.12-.34S474.78,31.53,474.15,31.53Z" transform="translate(-3.98 -6.6)"/><path class="cls-1" d="M494.73,8.59V43.78a1.11,1.11,0,0,1-.23.84,1.35,1.35,0,0,1-.87.21H491.7a1.35,1.35,0,0,1-.87-.21,1.16,1.16,0,0,1-.23-.84V8.59a1.16,1.16,0,0,1,.23-.84,1.35,1.35,0,0,1,.87-.21h1.93a1.35,1.35,0,0,1,.87.21A1.11,1.11,0,0,1,494.73,8.59Z" transform="translate(-3.98 -6.6)"/><path class="cls-1" d="M522.65,42q5.34,0,6.12-4.5a1,1,0,0,1,.29-.71,1.63,1.63,0,0,1,.92-.18h1.73a1.41,1.41,0,0,1,.91.21,1,1,0,0,1,.24.78A7.83,7.83,0,0,1,531.34,42q-2.42,3.61-8.8,3.61-5.24,0-8-2.9c-1.84-1.94-2.75-4.78-2.75-8.51V29c0-4.05.91-7.11,2.75-9.19s4.49-3.12,8-3.12q5.72,0,8.28,2.88a7.53,7.53,0,0,1,2,5.08,1,1,0,0,1-.24.79,1.42,1.42,0,0,1-.91.21H530a1.63,1.63,0,0,1-.92-.18,1.07,1.07,0,0,1-.29-.71,4.69,4.69,0,0,0-1.83-3.38,6.85,6.85,0,0,0-4.19-1.18q-3.56,0-5.18,2.1t-1.63,6.65v4.4q0,4.5,1.63,6.6A6,6,0,0,0,522.65,42Z" transform="translate(-3.98 -6.6)"/><path class="cls-1" d="M549,45.56c-3.59,0-6.38-1-8.35-3s-3-4.8-3-8.43V28.59c0-3.77,1-6.7,3-8.79s4.76-3.15,8.35-3.15,6.38,1,8.35,3,3,4.8,3,8.43v5.55c0,3.77-1,6.71-3,8.8S552.64,45.56,549,45.56ZM549,42q7.17,0,7.18-8.69v-4.4q0-8.7-7.18-8.7t-7.17,8.7v4.4Q541.87,42,549,42Z" transform="translate(-3.98 -6.6)"/><path class="cls-1" d="M594.76,16.65A8.5,8.5,0,0,1,601.2,19c1.5,1.57,2.26,3.86,2.26,6.86V43.78a1.11,1.11,0,0,1-.24.84,1.35,1.35,0,0,1-.87.21h-1.93a1.35,1.35,0,0,1-.87-.21,1.16,1.16,0,0,1-.23-.84v-17a7.37,7.37,0,0,0-1.36-4.9,5.48,5.48,0,0,0-4.3-1.54,6.14,6.14,0,0,0-4.79,2,7.76,7.76,0,0,0-1.81,5.39V43.78a1.16,1.16,0,0,1-.23.84,1.35,1.35,0,0,1-.87.21H584a1.35,1.35,0,0,1-.87-.21,1.11,1.11,0,0,1-.23-.84v-17a7.31,7.31,0,0,0-1.37-4.9,5.46,5.46,0,0,0-4.29-1.54,6.14,6.14,0,0,0-4.79,2,7.71,7.71,0,0,0-1.81,5.39V43.78a1.16,1.16,0,0,1-.23.84,1.35,1.35,0,0,1-.87.21h-1.94a1.32,1.32,0,0,1-.86-.21,1.11,1.11,0,0,1-.24-.84V18.43a1.1,1.1,0,0,1,.24-.83,1.32,1.32,0,0,1,.86-.21h1.84a1.33,1.33,0,0,1,.86.21,1.1,1.1,0,0,1,.24.83v1.84q2.61-3.61,7.8-3.62,5.7,0,7.75,4.3a9.7,9.7,0,0,1,3.67-3.3A11.32,11.32,0,0,1,594.76,16.65Z" transform="translate(-3.98 -6.6)"/><path class="cls-1" d="M620.68,45.56c-3.59,0-6.38-1-8.35-3s-3-4.8-3-8.43V28.59q0-5.65,3-8.79c2-2.1,4.76-3.15,8.35-3.15s6.38,1,8.36,3,3,4.8,3,8.43v5.55c0,3.77-1,6.71-3,8.8S624.28,45.56,620.68,45.56Zm0-3.56q7.19,0,7.18-8.69v-4.4q0-8.7-7.18-8.7t-7.17,8.7v4.4Q613.51,42,620.68,42Z" transform="translate(-3.98 -6.6)"/><path class="cls-1" d="M657.92,45.56q-5.71,0-8.43-2.56a6.14,6.14,0,0,1-2-4.61,1,1,0,0,1,.23-.79,1.44,1.44,0,0,1,.92-.21h1.52a1.6,1.6,0,0,1,.86.16,1.08,1.08,0,0,1,.34.73,4.51,4.51,0,0,0,2,3,8.65,8.65,0,0,0,4.47.94c4,0,6-1.41,6-4.24a4.27,4.27,0,0,0-1.11-3.12A7.89,7.89,0,0,0,659,33.1l-4.66-1.21q-6.29-1.66-6.29-7.12v-.26a7,7,0,0,1,2.65-5.74,11.11,11.11,0,0,1,7.15-2.12c3.66,0,6.32.88,8,2.62a6.11,6.11,0,0,1,1.88,4.45,1.06,1.06,0,0,1-.23.79,1.46,1.46,0,0,1-.92.21H665a1.72,1.72,0,0,1-.91-.16.93.93,0,0,1-.29-.73q-.63-3.93-6.34-3.93a6.39,6.39,0,0,0-4.06,1.15A3.93,3.93,0,0,0,652,24.3,3.3,3.3,0,0,0,653.13,27a11.21,11.21,0,0,0,4.21,1.73l4.3,1.1q6.29,1.57,6.28,7.64v.27Q667.92,45.55,657.92,45.56Z" transform="translate(-3.98 -6.6)"/><path class="cls-1" d="M684.05,45.56c-3.59,0-6.38-1-8.35-3s-3-4.8-3-8.43V28.59c0-3.77,1-6.7,3-8.79s4.76-3.15,8.35-3.15,6.38,1,8.35,3,3,4.8,3,8.43v5.55c0,3.77-1,6.71-3,8.8S687.65,45.56,684.05,45.56Zm0-3.56q7.17,0,7.18-8.69v-4.4q0-8.7-7.18-8.7t-7.17,8.7v4.4Q676.88,42,684.05,42Z" transform="translate(-3.98 -6.6)"/><path class="cls-1" d="M713.64,16.65A9,9,0,0,1,720.32,19q2.32,2.35,2.33,6.86V43.78a1.11,1.11,0,0,1-.24.84,1.3,1.3,0,0,1-.86.21h-1.94a1.3,1.3,0,0,1-.86-.21,1.11,1.11,0,0,1-.24-.84v-17q0-3.35-1.44-4.9a6,6,0,0,0-4.53-1.54,6.45,6.45,0,0,0-5,2,7.51,7.51,0,0,0-1.89,5.36V43.78a1.16,1.16,0,0,1-.23.84,1.35,1.35,0,0,1-.87.21h-1.94a1.32,1.32,0,0,1-.86-.21,1.11,1.11,0,0,1-.24-.84V18.43a1.1,1.1,0,0,1,.24-.83,1.32,1.32,0,0,1,.86-.21h1.84a1.33,1.33,0,0,1,.86.21,1.1,1.1,0,0,1,.24.83v1.84Q708.3,16.66,713.64,16.65Z" transform="translate(-3.98 -6.6)"/></g></g></svg>