<svg id="Capa_1" data-name="Capa 1" xmlns="http://www.w3.org/2000/svg" viewBox="0 0 591.12 699.45"><path d="M625,162.42H489.06V102.84A101.85,101.85,0,0,0,387.22,1H312.87A101.85,101.85,0,0,0,211,102.84v59.47h-136a20.37,20.37,0,0,0-20.36,23.43s40.12,267.84,61.1,410.42h0A121.38,121.38,0,0,0,237,700.44H463.29a122.9,122.9,0,0,0,121-104.28l61.11-410.42h0A20.37,20.37,0,0,0,625,162.42ZM251.76,102.84a61.1,61.1,0,0,1,61.11-61.1h74.24a61.08,61.08,0,0,1,61.1,61.1v59.47H251.77ZM543.54,590.15A81.48,81.48,0,0,1,463,659.6H237a80.85,80.85,0,0,1-80.45-69.35c-17.41-117.22-47.66-318.87-57.85-387H601.48Z" transform="translate(-54.47 -1)"/></svg>