<svg fill="#ffffff" id="Capa_1" data-name="Capa 1" xmlns="http://www.w3.org/2000/svg" viewBox="0 0 406.4 512"><path d="M235.45,2.35c-37.89,8.43-67.13,35.86-78,73.21-1.71,5.87-2.35,12-2.78,23.58l-.53,15.8H135.77c-22.3,0-29.77,1.17-40,5.87A51.4,51.4,0,0,0,68,156.56c-.64,3.2-4.27,74.27-8.22,157.84-6.73,144.49-6.94,152.28-5.34,158.79,4.59,18.57,17.08,32.34,34.47,37.68C95.75,513,98.63,513,256.79,513s161,0,167.87-2.13c12.91-3.95,24.76-14.09,30.52-25.94a66.82,66.82,0,0,0,3.95-11.63c1.71-6.72,1.49-13.13-5.34-158.9-3.94-83.57-7.57-154.64-8.21-157.84-3.42-17.72-16.44-32.34-34.15-38.53-6-2.13-9.5-2.45-29.35-2.88l-22.62-.43L358.92,99c-.32-11.53-1.07-17.61-2.77-23.48A104.31,104.31,0,0,0,284.43,3.84C274.08.86,246.12,0,235.45,2.35ZM266.93,36.5C289.55,39,311.64,57,320.29,80c2.45,6.72,4.69,21.13,4.8,30.84v4.06H188.49v-4.06c.11-9.71,2.35-24.12,4.8-30.84A68.93,68.93,0,0,1,233.74,39.7c7-2.67,19.74-4.8,25.19-4.16C260.42,35.75,264.05,36.18,266.93,36.5ZM401.82,151.76c4.27,2.13,8.43,7.47,9.18,11.52.32,1.92,3.74,70.33,7.47,152.18l6.94,148.77-2.14,4.59a18.15,18.15,0,0,1-6.19,7l-3.95,2.46H100.45l-4-2.46a18.23,18.23,0,0,1-6.19-7l-2.24-4.59,7-149.83c6.51-138.74,7.26-150.16,9.18-154.32a16,16,0,0,1,11.1-9c1.71-.43,66.27-.75,143.32-.86C379.84,150.16,399.26,150.37,401.82,151.76Z" transform="translate(-53.63 -1)"/><path d="M165,187.72c-6.61,3.31-10,9.82-9.17,17.4,1.17,10.13,8.32,27.74,15.9,38.95,4.8,7,17.39,19.85,24.76,25.08a111.91,111.91,0,0,0,41.62,17.71c8.85,1.82,31.37,1.5,40.55-.53,38.63-8.54,68.3-36.39,78.54-73.74,3.42-12.7.86-20.71-8-25-5.76-2.77-10.46-2.88-16.22-.1s-7.58,5.65-10.25,15.26c-6.08,22.09-23.26,40.55-44.6,47.81-9.5,3.2-25.62,3.95-35.76,1.6-12.91-3.1-22.3-8.43-32.55-18.78-9.81-9.82-14-16.87-18-30.63a42,42,0,0,0-5.12-11.1C181.13,185.16,173,183.67,165,187.72Z" transform="translate(-53.63 -1)"/></svg>