<?xml version="1.0" encoding="utf-8"?>
<!-- Generator: Adobe Illustrator 15.0.0, SVG Export Plug-In  -->
<!DOCTYPE svg PUBLIC "-//W3C//DTD SVG 1.1//EN" "http://www.w3.org/Graphics/SVG/1.1/DTD/svg11.dtd" [
	<!ENTITY ns_flows "http://ns.adobe.com/Flows/1.0/">
]>
<svg version="1.1"
	 xmlns="http://www.w3.org/2000/svg" xmlns:xlink="http://www.w3.org/1999/xlink" xmlns:a="http://ns.adobe.com/AdobeSVGViewerExtensions/3.0/"
	 x="0px" y="0px" width="698px" height="51px" viewBox="-0.537 -0.756 698 51" enable-background="new -0.537 -0.756 698 51"
	 xml:space="preserve">
<defs>
</defs>
<path fill="#6E6D5D" d="M423.134,11.659v3.122h3.27c0.656-0.554,1.311-1.058,1.915-1.611c0.856-0.705,1.007-0.855,1.609-1.51
	H423.134 M413.318,37.079v3.775c0,0.353,0.2,0.554,0.654,0.653h19.479c0.402-0.05,0.654-0.301,0.654-0.653v-3.775H413.318z
	 M413.972,28.119c-0.402,0.05-0.654,0.302-0.654,0.604v3.222h20.688v-3.222c0-0.353-0.202-0.555-0.604-0.604H413.972z M420.212,1.39
	c2.62,0.353,3.021,1.008,2.87,4.934h10.924c0.452,0,0.854,0.252,1.259,0.754c1.962-2.365,2.718-2.969,3.927-3.121h0.301
	c1.409,0.102,2.919,1.561,2.919,2.87c0,1.561-1.308,3.121-6.392,7.55h7.853c1.459,0,2.364,1.108,2.364,2.87
	c0,1.812-0.905,2.919-2.364,2.919H428.62c0,0-0.049,0-0.101,0.049c-0.05,0.101-0.2,0.202-0.402,0.353
	c-0.05,0.05-0.202,0.15-0.402,0.302c-0.807,0.604-2.114,1.459-3.423,2.264h11.678c2.064,0,3.775,1.712,3.775,3.776v16.46
	c0,2.113-1.56,3.674-3.775,3.776h-24.515c-2.214-0.151-3.775-1.712-3.775-3.776V31.743c-3.321,1.561-4.73,2.113-5.839,2.265h-0.301
	c-1.511-0.151-2.82-1.711-2.82-3.371c0-1.713,0.807-2.468,3.726-3.474c6.493-2.417,13.239-5.386,15.403-6.796H401.84
	c-1.458,0-2.366-1.107-2.366-2.919c0-1.509,1.007-2.618,2.366-2.618h15.354l-0.102-3.171h-12.03c-1.359,0-2.216-1.057-2.216-2.768
	c0-1.562,0.856-2.568,2.216-2.568h11.93V3.756c0-1.358,1.107-2.265,2.869-2.366H420.212z"/>
<path fill="#6E6D5D" d="M154.087,3.35c1.711,0.152,7.197,2.416,12.785,5.387c4.078,2.164,4.329,2.364,4.329,4.026
	c0,2.215-1.409,4.179-3.07,4.279h-0.403c-0.855-0.152-1.561-0.403-2.718-1.107c-3.02-1.611-6.746-3.424-9.613-4.582
	c-4.379-1.812-5.135-2.416-5.135-4.277c0-1.964,1.61-3.625,3.523-3.726H154.087 M190.731,8.736c2.166,0.151,3.525,1.359,3.525,3.07
	c0,2.617-3.273,10.27-6.595,15.454c-4.732,7.248-10.421,12.132-18.072,15.354c-4.832,2.015-11.527,3.674-16.51,4.025h-0.352
	c-2.214-0.201-3.171-1.459-3.171-4.076c0-2.416,0.856-3.071,4.429-3.574c17.165-1.761,26.88-9.665,32.871-26.679
	c0.956-2.769,1.61-3.422,3.524-3.573H190.731z"/>
<path fill="#6E6D5D" d="M584.619,1.538c2.566,0.151,3.425,1.208,3.373,4.177v0.1c0.052,0.505,0.052,1.059,0.052,1.663v4.529
	l5.737-0.151h0.856c2.112,0.051,3.119,1.108,3.119,3.373v0.303c0,1.811-1.007,3.322-2.214,3.322l-3.523,0.049l-3.877,0.101
	c0.252,13.087-1.66,18.472-8.556,23.81c-3.525,2.667-9.463,4.882-13.895,5.185h-0.402c-2.367-0.252-3.423-1.46-3.423-3.726
	c0-1.861,0.905-2.568,4.027-3.222c4.831-0.956,9.061-2.919,11.477-5.335c3.021-2.97,4.025-6.493,4.025-14.144
	c0-0.555,0-1.411-0.05-2.519c-5.335,0.051-10.621,0.101-15.806,0.101v9.916c0,1.511-1.206,2.518-3.22,2.618h-0.252
	c-1.913-0.101-3.171-1.107-3.171-2.618v-9.766l-2.922,0.052l-3.019,0.049h-0.907c-2.012-0.101-2.919-1.157-2.919-3.371v-0.251
	c0-1.863,0.907-3.171,2.215-3.273l0.704-0.049c0.454-0.051,1.51-0.1,2.971-0.1c0.504,0.049,2.114,0,3.877-0.052V4.507
	c0.049-1.56,1.258-2.566,3.221-2.617h0.202c2.615,0.151,3.22,0.906,3.22,4.077v6.292l6.091-0.05l4.33-0.1l5.234-0.051l-0.101-5.638
	l-0.05-0.907V5.061c0-2.567,0.705-3.323,3.271-3.523H584.619"/>
<path fill="#6E6D5D" d="M640.746,1.89c2.162,0.151,3.573,1.511,3.573,3.473c0,3.674-5.135,8.859-14.347,14.547v11.779l0.152,12.584
	v1.007c0,1.862-1.258,2.97-3.523,3.171h-0.454c-2.164-0.151-3.523-1.309-3.523-3.021v-2.214l0.15-12.584v-6.947
	c-6.744,2.919-14.295,5.184-18.977,5.637h-0.301c-1.813-0.15-2.972-1.609-2.972-3.725c0-2.668,0.856-3.322,5.538-4.229
	c13.843-2.466,24.262-8.255,30.857-17.114c1.407-1.762,2.012-2.164,3.522-2.365H640.746"/>
<path fill="#6E6D5D" d="M661.08,1.235c2.063,0.152,3.374,1.259,3.374,2.77v12.332c19.983,6.342,27.937,9.01,30.705,10.218
	c1.56,0.655,2.164,1.561,2.164,3.071c0,2.315-1.259,3.977-3.121,4.127H693.9c-0.402-0.05-1.458-0.402-3.171-1.057l-0.15-0.051
	c-0.706-0.302-3.775-1.409-5.939-2.214l-0.856-0.303c-1.813-0.654-5.286-1.862-5.991-2.064l-0.2-0.101
	c-1.009-0.302-2.014-0.654-3.021-1.006c-1.057-0.304-2.063-0.654-3.121-1.007l-0.605-0.15c-2.919-0.907-3.321-1.057-6.391-1.964
	v21.998c0,1.561-1.311,2.617-3.374,2.77h-0.353c-2.063-0.152-3.321-1.209-3.321-2.77V4.005c0-1.561,1.259-2.618,3.321-2.77H661.08"
	/>
<path fill="#6E6D5D" d="M239.056,41.106c-6.443-2.164-10.721-4.931-14.599-9.564c-2.416,3.978-6.846,6.996-13.892,9.564H239.056
	 M213.635,17.85c-1.661,2.165-3.021,3.574-3.875,4.078h11.326V17.85H213.635z M205.933,9.395c-0.604,0.049-0.956,0.453-0.956,0.956
	v29.801c0,0.503,0.352,0.905,0.956,0.955h2.166l-0.403-0.101c-1.007-0.704-1.51-1.711-1.51-3.021c0-1.56,0.907-2.416,3.423-3.371
	c5.135-1.813,8.205-3.827,10.269-6.646h-11.276c-1.46,0-2.516-1.157-2.516-2.717c0-1.561,0.352-2.519,1.208-3.071l0.402-0.201
	l-0.453-0.1c-1.057-0.454-1.863-1.512-1.863-2.569c0-1.056,0.353-1.661,1.914-3.27c2.517-2.669,3.573-4.229,4.429-6.645H205.933z
	 M241.019,3.354c1.56,0.101,2.467,1.158,2.467,2.919v0.251c0,1.661-1.007,2.87-2.467,2.87h-22.853
	c-0.453,1.258-0.554,1.409-1.058,2.617h21.796c1.41,0,2.316,1.106,2.316,2.87c0,1.813-0.856,2.919-2.316,2.919h-11.778v4.127h13.541
	c1.41,0,2.416,1.208,2.416,2.87v0.251c0,1.711-1.006,2.918-2.416,2.918h-11.778c2.264,2.518,6.846,5.336,11.325,6.897
	c1.51,0.604,2.215,1.459,2.215,2.77c0,1.66-1.057,3.119-2.517,3.422v0.05c2.467,0,2.517,0,3.122,0.504
	c0.654,0.503,1.006,1.409,1.006,2.416v0.15c0,1.762-0.905,2.82-2.466,2.921h-38.055c-2.567-0.101-4.379-1.964-4.379-4.43V7.783
	c0-2.468,1.812-4.278,4.379-4.43H241.019z"/>
<path fill="#6E6D5D" d="M90.104,0.127c1.106,0.152,1.308,0.302,2.567,2.064c1.811,2.618,2.366,3.725,2.366,4.581
	c0,1.308-0.908,2.164-2.416,2.315h-0.303c-0.906-0.099-1.056-0.301-2.618-2.769c-2.113-3.372-2.265-3.624-2.265-4.178V1.99
	c0-0.957,0.908-1.711,2.366-1.863H90.104 M84.264,1.436c0.706,0.051,0.957,0.353,2.114,1.963c1.762,2.517,2.668,4.228,2.668,5.034
	c0,1.058-1.057,1.862-2.618,2.064h-0.301c-0.854-0.151-1.007-0.302-2.214-2.316c-2.418-3.976-2.517-4.177-2.517-4.832
	c0-1.056,0.958-1.76,2.517-1.913H84.264z M55.723,3.349C58.089,3.5,62.771,4.76,68.157,6.772c2.87,1.056,3.573,1.711,3.573,3.321
	c0,2.367-1.256,4.078-3.171,4.179h-0.301c-0.856-0.101-0.956-0.152-3.324-1.008c-2.769-1.057-7.398-2.516-9.866-3.121
	C53.005,9.692,52.3,8.937,52.3,7.325c0-2.365,1.16-3.825,3.072-3.977H55.723z M90.204,10.295c2.216,0.252,3.373,1.259,3.373,2.87
	v0.15c0,2.064-2.213,8.306-4.53,12.686C82.502,38.534,70.07,45.783,53.711,46.639h-0.303c-2.265-0.101-3.321-1.359-3.321-3.926
	c0-1.41,0.452-2.315,1.308-2.87c0.807-0.402,0.905-0.452,4.681-0.854c16.511-1.561,25.269-8.658,30.002-24.313
	c1.006-3.675,1.458-4.178,3.825-4.38H90.204z M52.603,17.192c1.057,0.1,6.493,1.561,11.779,3.221
	c3.876,1.208,4.479,1.711,4.479,3.725c0,2.164-1.106,3.573-3.07,3.774H65.49c-0.654-0.05-1.863-0.301-2.367-0.503
	c-3.825-1.309-6.996-2.215-10.52-3.171c-2.618-0.604-3.422-1.358-3.422-3.121c0-2.365,1.056-3.674,3.119-3.926H52.603z"/>
<path fill="#6E6D5D" d="M135.96,11.655c2.618,0.1,4.43,1.913,4.43,4.43v23.86c0,2.517-1.812,4.328-4.43,4.379h-33.173
	c-1.609,0-2.616-1.157-2.616-3.071v-0.201c0-1.812,1.059-3.021,2.668-3.021h30.103c0.704,0,0.955-0.4,0.955-1.458V30.33h-28.642
	c-1.611,0-2.618-1.209-2.618-3.071v-0.15c0-1.813,1.007-3.021,2.618-3.021h28.642v-5.185c0-0.503-0.454-0.957-0.955-0.957h-29.449
	c-1.611,0-2.618-1.208-2.618-3.07v-0.201c0-1.863,0.906-2.92,2.618-3.021H135.96"/>
<path fill="#6E6D5D" d="M37.501,5.972c0,0.905,0.554,1.458,1.51,1.56c0.957-0.101,1.51-0.655,1.51-1.459
	c0-0.907-0.554-1.459-1.51-1.561C38.055,4.612,37.501,5.115,37.501,5.972 M44.297,6.021c0,2.97-2.165,5.134-5.286,5.286
	c-3.12-0.152-5.285-2.316-5.285-5.286c0-2.971,2.165-5.135,5.285-5.286C42.133,0.886,44.297,3.05,44.297,6.021z M0,6.223
	c0-1.611,1.41-2.77,3.574-2.921c2.014,0.051,3.473,1.258,3.524,2.921L7.047,18.555c9.565-1.863,16.964-4.38,23.71-8.153
	c1.157-0.604,1.357-0.655,2.163-0.755c2.065,0.1,3.876,1.962,3.675,3.825c-0.252,2.566-0.957,3.12-7.349,5.888
	c-6.394,2.769-13.591,4.782-22.25,6.243l-0.05,8.557c0.252,4.529,1.36,5.134,9.413,5.185h2.97c3.574-0.051,11.679-0.855,15.705-1.51
	c0.554-0.05,1.36-0.201,2.417-0.303c2.516,0.202,3.473,1.259,3.473,3.927c0,2.214-1.108,3.071-4.581,3.523
	c-4.28,0.604-12.735,1.157-18.02,1.259h-2.819C3.927,46.089,0.202,43.471,0.151,35.266L0,6.473V6.223z"/>
<path fill="#6E6D5D" d="M534.011,2.344c2.667,0.301,3.171,1.309,3.223,6.493c0,0.554,0.049,1.914,0.101,3.525l2.264-0.052
	l2.971-0.05h0.955c1.762,0.05,2.769,1.209,2.769,3.172v0.252c0,1.711-0.955,3.07-2.164,3.171l-0.604,0.049
	c-0.452,0.052-1.357,0.102-2.667,0.052c-0.452,0-1.81,0.05-3.271,0.1l0.15,8.659c0.25,12.08-6.292,19.229-18.776,20.588h-0.353
	c-2.063-0.151-3.119-1.461-3.119-3.776c0-1.863,0.955-2.718,3.521-3.07c8.457-1.258,12.435-5.486,12.435-13.237l-0.052-2.72
	l-0.05-6.343c-8.659,0.202-14.044,0.302-16.158,0.302h-1.107c-1.963,0.051-2.97-1.108-2.97-3.371c0-2.065,0.956-3.172,2.77-3.273
	h0.099c0.454,0,1.513,0,2.971-0.05c5.737-0.15,7.148-0.15,13.994-0.252c-0.101-1.358-0.15-2.567-0.202-3.019l-0.2-2.92V5.564
	c0-2.214,0.755-2.969,3.171-3.221H534.011 M506.578,3.199c2.364,0.302,3.021,0.905,3.021,2.567c0,0.654-0.05,1.207-0.202,2.516
	l-0.454,4.079c-0.099,1.056-0.4,3.674-0.4,4.026v0.15c-0.202,2.265-0.303,3.272-0.404,5.537v0.101l-0.049,4.027v0.151
	c0,1.812,0,1.812,0.101,5.034v0.1c0.101,2.566,0.452,6.242,0.856,8.457c0.099,0.805,0.2,1.51,0.2,1.912
	c0,1.862-1.057,2.77-3.322,2.869h-0.303c-2.969-0.453-3.07-0.755-3.675-11.527v-0.15c-0.099-1.511-0.15-4.076-0.15-6.141v-0.151
	c0-1.31,0-1.31,0.052-4.027v-0.101c0-0.15,0-0.352,0.15-3.322l0.05-0.151c0.049-1.71,0.251-4.631,0.402-6.141v-0.149
	c0.202-2.418,0.303-3.525,0.604-6.142V6.571c0.251-2.566,0.805-3.121,3.223-3.372H506.578z"/>
<path fill="#6E6D5D" d="M285.516,38.662c-1.485,0.103-2.561,1.383-2.561,3.073c0,0.87,0.666,1.689,2.561,3.072
	c0.973,0.717,1.638,1.178,1.945,1.383l1.946,1.587c1.69,1.383,1.895,1.536,2.766,1.588c1.741-0.153,3.073-1.689,3.073-3.534
	c0-0.46-0.103-0.716-0.41-1.178c-0.256-0.357-1.587-1.484-4.097-3.379c-2.816-2.254-3.329-2.51-4.966-2.612H285.516z M264.776,38.51
	c-1.024,0-1.331,0.152-2.765,1.33c-0.46,0.461-1.126,0.974-1.946,1.689c-0.256,0.206-0.973,0.666-1.741,1.127
	c-2.868,1.793-3.431,2.355-3.431,3.482c0,1.741,1.434,3.328,3.124,3.482c3.021-0.461,9.883-6.146,9.883-8.245
	C267.9,39.84,266.569,38.611,264.776,38.51z M285.516,31.391c0.05,0.257,0.05,0.512,0.05,0.666c0,0.461-0.102,0.614-0.459,0.666
	h-18.23c-0.307-0.104-0.41-0.205-0.41-0.718c0-0.152,0-0.409,0.051-0.614H285.516z M285.106,25.706
	c0.409,0.104,0.409,0.155,0.409,1.332h-18.999c-0.051-0.256-0.051-0.513-0.051-0.614c0-0.513,0.103-0.666,0.41-0.718H285.106z
	 M272.253,21.303c1.434-1.485,1.638-1.741,2.816-3.38c1.638,1.741,1.895,1.998,3.636,3.38H272.253z M260.73,15.875
	c-0.871,0.769-1.178,1.28-1.178,2.048c0,0.717,0.41,1.332,1.587,2.407c0.205,0.205,0.717,0.717,1.332,1.28
	c-1.382,0.769-1.946,0.973-3.84,1.69l0.103-7.425H260.73z M270.153,15.875l-0.103,0.154c-0.512,0.769-0.973,1.229-2.611,2.663
	c-0.563-0.564-1.075-1.076-1.229-1.28c-1.178-1.28-1.28-1.383-1.741-1.537H270.153z M288.281,15.875
	c-0.462,0.256-0.717,0.41-0.871,0.563c-0.512,0.614-0.871,0.973-1.023,1.075c-0.307,0.307-0.821,0.717-1.792,1.434
	c-1.997-1.024-2.919-1.69-4.354-3.073H288.281z M272.201,9.679c-0.102,0.666-0.102,0.768-0.205,1.331h-13.058V9.679H272.201z
	 M255.764,3.687c-1.434,0-2.561,1.178-2.561,2.561v0.256v0.666c0,0.41-0.051,1.229-0.103,2.765
	c-0.051,0.563-0.051,1.434-0.051,2.509V12.7v0.103h-0.051c-1.229-6.811-2.253-9.218-3.892-9.013
	c-2.048,0.154-2.919,0.717-2.919,1.946c0,0.512,0.103,1.024,0.512,2.202c0.41,1.332,0.461,1.434,1.024,3.892
	c1.024,4.916,1.024,4.916,2.97,5.326c1.178-0.103,1.69-0.358,2.253-1.229l0.051-0.102l0.051-0.154v3.533v0.103
	c0,0.871,0,1.639-0.051,3.277c-0.256,0.153-0.512,0.256-0.563,0.307c-0.102,0.051-0.358,0.205-0.819,0.41
	c-5.582,2.51-5.582,2.51-5.582,4.046c0,1.997,0.922,3.481,2.355,3.686h0.308c0.615-0.101,0.717-0.101,2.15-0.767
	c0.205-0.103,0.82-0.41,1.486-0.718c-0.717,5.377-2.049,9.064-4.814,13.059c-0.716,1.075-0.921,1.536-0.921,2.15
	c0,1.588,1.332,3.021,2.97,3.227h0.358c3.738,0.308,7.784-9.115,8.296-19.306l0.307,0.103l0.41,0.051h0.307
	c0.563-0.051,0.871-0.153,1.741-0.563v6.453c0,1.945,0.921,3.072,2.561,3.072h9.985v3.841c0,0.768-0.563,1.28-1.382,1.28h-0.359
	l-0.409-0.052l-0.615-0.205c0,0-0.154-0.051-0.308-0.051h-0.307c-1.587,0.051-2.611,1.229-2.611,2.919
	c0,1.178,0.717,2.355,1.638,2.766c0.82,0.357,1.844,0.512,4.814,0.666h0.563c2.971-0.104,4.814-1.845,4.814-4.507v-6.657h8.961
	c1.434,0,2.561-1.127,2.561-2.561v-7.783c1.023,0.358,1.331,0.409,1.997,0.512h0.307c1.691-0.256,2.714-1.588,2.714-3.636
	c0-1.178-0.512-1.588-2.663-2.15c-0.666-0.154-1.382-0.359-3.072-0.922c2.15-1.638,2.918-2.56,2.918-3.533
	c0-0.768-0.46-1.434-1.178-1.844c1.946,0,2.049,0,2.561-0.358c0.615-0.41,0.973-1.229,0.973-2.1c0-1.331-0.87-2.407-1.998-2.407
	h-15.413c0.103-0.614,0.103-0.717,0.153-1.331h14.852c1.484,0,2.509-1.229,2.509-2.919V6.606c0-1.741-1.024-2.919-2.509-2.919H276.4
	c0.052-0.307,0.052-0.512,0.052-0.666c0-1.946-1.075-2.919-3.328-3.021c-2.203,0.103-3.329,1.127-3.329,3.021
	c0,0.102,0,0.358,0.051,0.666H255.764z"/>
<path fill="#6E6D5D" d="M308.506,14.441c-1.075,0.256-1.587,0.717-2.611,2.611c-1.23,2.305-3.329,4.917-5.786,7.169
	c-3.073,2.765-3.073,2.816-3.073,3.943c0,1.895,1.382,3.737,2.868,3.84h0.307c0.819-0.103,1.178-0.308,2.407-1.383l-0.154,3.79
	c-0.051,1.382-0.051,2.202-0.051,2.714l-0.05,0.104l-0.052,3.226l-0.051,3.072v0.103l-0.052,1.178v1.023
	c0,1.64,1.025,2.561,2.971,2.663h0.256c1.741-0.103,2.919-1.075,2.919-2.406V26.885v-2.458c0-0.051,0.204-0.256,0.46-0.615
	c1.998-2.356,3.329-4.813,3.329-6.042c0-1.741-1.332-3.124-3.073-3.329H308.506z M308.506,1.332
	c-1.075,0.103-1.587,0.41-2.611,1.844c-1.946,2.816-3.79,4.916-6.555,7.425c-1.177,1.024-1.536,1.638-1.536,2.509
	c0,1.587,1.484,3.124,3.227,3.277h0.307c1.536-0.205,3.892-2.407,7.732-7.169c2.202-2.713,2.714-3.636,2.714-4.66
	c0-1.689-1.28-3.072-2.816-3.226H308.506z M320.233,1.28c-2.048,0.205-3.534,1.434-3.534,2.816c0,0.768,0.051,0.871,1.639,3.636
	c0.255,0.359,0.717,1.178,1.126,1.895h-5.734c-1.588,0-2.664,1.229-2.664,3.072c0,2.048,0.973,3.277,2.664,3.277h12.238v23.607
	c-1.741-1.074-2.868-1.945-3.686-2.867c-1.025-1.127-1.998-3.175-1.998-4.098c0-0.051,0.052-0.256,0.104-0.512
	c0.05-0.255,0.152-0.768,0.255-1.535l0.359-2.306v-0.153c0.101-0.614,0.204-1.178,0.255-1.793c0.154-0.818,0.256-1.689,0.359-2.508
	v-0.103c0.102-0.819,0.153-1.178,0.153-1.69c0-2.151-1.074-3.226-3.277-3.431h-0.46c-1.946,0.205-2.509,1.024-2.765,4.097
	c-0.41,7.066-2.049,13.416-4.711,18.69c-1.742,3.329-1.742,3.329-1.742,4.098c0,1.997,0.973,2.969,3.123,3.124h0.359
	c1.178,0.46,3.944-3.432,5.684-8.092c3.278,5.172,9.371,7.322,21.048,7.527l2.047,0.052h1.486c2.355,0,3.277-0.974,3.277-3.277
	c0-2.049-0.973-3.227-2.713-3.227l-3.585-0.103c-2.765-0.103-3.738-0.153-6.402-0.358l-0.818-0.051V29.599h9.422
	c1.69,0,2.664-1.229,2.664-3.328c0-1.998-1.024-3.227-2.664-3.227h-9.422v-7.066h10.958c1.639,0,2.664-1.229,2.664-3.124V12.7
	c0-1.844-1.024-3.072-2.664-3.072h-5.12c1.485-2.868,2.048-4.25,2.048-5.172c0-1.69-1.229-2.817-3.278-2.97h-0.307
	c-1.945,0.205-2.15,0.46-3.942,5.223c-0.512,1.383-0.666,1.69-1.383,2.919h-4.814c-3.635-7.425-4.25-8.296-5.94-8.347H320.233z"/>
<path fill="#6E6D5D" d="M386.19,33.439v0.768c0,0.769-0.104,0.871-0.666,1.076h-10.038v-1.844H386.19z M385.42,26.782
	c0.563,0.103,0.666,0.308,0.666,1.075c0,0.103,0,0.461-0.052,0.769h-10.549v-1.844H385.42z M369.65,14.748v1.946h-11.317
	c-0.563-0.051-0.665-0.256-0.665-1.024c0-0.614,0.152-0.819,0.665-0.922H369.65z M385.472,14.697
	c0.512,0.051,0.666,0.256,0.666,0.973c0,0.666-0.154,0.871-0.666,0.973h-9.986v-1.946H385.472z M372.415,0.256
	c-2.202,0.154-2.919,1.126-2.765,3.687h-19.665c-1.126,0-2.099,1.075-2.099,2.407v0.256c0,1.434,0.921,2.509,2.099,2.509h19.665
	v1.486h-14.851c-1.587,0-2.919,1.331-2.867,2.868v0.153v4.608c0,1.383,1.177,2.561,2.561,2.561h15.157v1.587h-17.463
	c-1.075,0-1.895,0.921-1.895,2.202c0,1.331,0.819,2.355,1.895,2.355h17.463v1.69h-19.665c-1.075,0-1.998,1.075-1.998,2.355
	c0,1.382,0.871,2.458,1.998,2.458h19.665v1.74h-16.848c-1.075,0-2.1,1.179-2.1,2.459v0.153c0,1.382,0.922,2.457,2.1,2.457h16.848
	c0.052,0.462,0.052,0.871,0.052,1.076c0,1.024-0.257,1.383-1.025,1.485h-1.587c-1.178-0.052-2.765-0.205-4.659-0.512l-0.564-0.052
	h-0.358c-1.179,0.103-1.895,1.229-1.895,2.919v0.051c0,2.51,2.048,3.381,8.501,3.585h1.74c3.944,0,5.632-1.434,5.632-4.865v-3.737
	h13.265c1.791,0,3.175-1.383,3.175-3.176v-3.584c0.767,0.051,1.382,0.051,1.74,0.051c2.049,0,2.919-0.717,2.919-2.355v-0.204
	c0-1.639-0.87-2.356-2.971-2.356c-0.358,0-0.973,0-1.74,0.052c0.052-3.021,0-3.534-0.206-4.148
	c-0.408-1.178-1.688-2.099-3.021-2.099h-13.161v-1.587h13.571c1.638,0,2.868-1.229,2.868-2.868v-4.455
	c0-1.587-1.28-2.868-2.868-2.868h-13.571V9.115h18.538c1.28,0,2.15-1.075,2.15-2.663c0-1.485-0.87-2.56-2.15-2.56h-18.538V3.073
	c0-1.844-0.869-2.714-2.815-2.816H372.415z"/>
<path fill="#6E6D5D" d="M478.924,21.969c0.41,0.103,0.614,0.307,0.614,0.666v0.102v6.3v3.635c0,0.358-0.204,0.614-0.614,0.666
	h-11.931c-0.41-0.103-0.614-0.308-0.614-0.666V22.634c0-0.358,0.204-0.563,0.614-0.666H478.924z M464.688,16.028
	c-2.354,0.051-4.096,1.844-4.147,4.148v0.154v6.247v6.452c0,3.585,0.103,3.994,1.332,5.173c0.769,0.665,1.587,1.023,2.815,1.074
	h16.645c2.457-0.103,4.148-1.792,4.148-4.147V22.276c0-3.431-0.052-3.738-1.025-4.865c-0.82-0.871-1.793-1.332-3.123-1.383H464.688z
	 M455.522,6.657c-2.253,0-4.147,1.895-4.147,4.148v0.153v6.248V46.6c0,1.383,1.127,2.305,2.971,2.407h0.256
	c1.741-0.103,2.919-1.024,2.919-2.407V14.594c0-1.638,0-1.638,0.666-1.741h29.956c0.41,0.103,0.614,0.308,0.614,0.615v0.153v6.247
	v19.204c0,2.509-0.256,2.919-1.791,2.97h-0.308c-0.563-0.051-0.87-0.102-1.177-0.153l-1.128-0.153
	c-0.153-0.051-0.46-0.103-0.818-0.154l-0.462-0.052h-0.308c-1.895,0.104-2.867,1.179-2.867,3.176c0,2.509,1.843,3.277,8.603,3.636
	c4.608-0.256,6.351-1.844,6.351-5.991V10.805c0-2.305-1.844-4.148-4.148-4.148h-15.976c0.614-1.895,0.767-2.611,0.767-3.329
	c0-1.639-1.177-2.509-3.482-2.611c-2.405,0.051-3.327,1.024-3.841,4.097c-0.052,0.256-0.256,1.024-0.563,1.843H455.522z"/>
</svg>
