<svg xmlns="http://www.w3.org/2000/svg" width="498.96px" height="146.43px" viewBox="0 0 498.96 146.43">
	<path d="M28.63,36.62a2.43,2.43,0,0,1,1.22-.21H32.3a1.89,1.89,0,0,1,1.22.28,1.37,1.37,0,0,1,.31,1.05,15.16,15.16,0,0,1-.94,5.37,11.51,11.51,0,0,1-2.62,4.18q-4.66,4.6-13.18,4.61a19.87,19.87,0,0,1-9.66-2.2,13.41,13.41,0,0,1-6-6.8A20.3,20.3,0,0,1,.35,38.4,47.78,47.78,0,0,1,0,32V20.58a49.29,49.29,0,0,1,.35-6.49A19,19,0,0,1,1.47,9.63a14.14,14.14,0,0,1,6-7.19A19.6,19.6,0,0,1,17.65,0Q26.5,0,30.41,4.46A13.44,13.44,0,0,1,33.83,14,1.39,1.39,0,0,1,33.52,15a2,2,0,0,1-1.22.28H29.71a2.43,2.43,0,0,1-1.22-.21,1.34,1.34,0,0,1-.38-1Q27.42,5,17.3,5,11.17,5,8.44,8.44T5.72,19.74V32.16q0,7.74,2.72,11.23t8.79,3.48q10.18,0,11-9.27C28.3,37.09,28.42,36.76,28.63,36.62Z" style="fill:#fff"/>
	<path d="M47.47,35.5Q47.47,47,56.82,47q5.93,0,7.88-4.53a2.57,2.57,0,0,1,.59-1,1.88,1.88,0,0,1,1-.18h2.51a2.75,2.75,0,0,1,1.26.18c.19.11.28.43.28.94a6,6,0,0,1-.77,2.51,12.41,12.41,0,0,1-1.74,2.65,11.63,11.63,0,0,1-4.71,3.07,18.48,18.48,0,0,1-6.52,1.12q-7.05,0-10.85-4.12T42,35.92V30.69q0-8.45,3.77-12.94t11-4.5q14.37,0,14.37,16v3.55a1.5,1.5,0,0,1-.32,1.12,1.74,1.74,0,0,1-1.15.28H47.47Zm0-5.86h18c0-4.13-.71-7.18-2.13-9.13s-3.64-2.93-6.66-2.93Q47.55,17.58,47.47,29.64Z" style="fill:#fff"/>
	<path d="M85,50.5a1.76,1.76,0,0,1-1.15.28H81.25a1.72,1.72,0,0,1-1.15-.28,1.48,1.48,0,0,1-.32-1.11V2.51A1.45,1.45,0,0,1,80.1,1.4a1.72,1.72,0,0,1,1.15-.28h2.58A1.76,1.76,0,0,1,85,1.4a1.46,1.46,0,0,1,.31,1.11V49.39A1.49,1.49,0,0,1,85,50.5Z" style="fill:#fff"/>
	<path d="M99.7,35.5Q99.7,47,109,47q5.94,0,7.89-4.53a2.57,2.57,0,0,1,.59-1,1.88,1.88,0,0,1,1-.18H121a2.78,2.78,0,0,1,1.26.18c.18.11.28.43.28.94a6,6,0,0,1-.77,2.51,12.41,12.41,0,0,1-1.74,2.65,11.77,11.77,0,0,1-4.71,3.07,18.48,18.48,0,0,1-6.52,1.12q-7.05,0-10.85-4.12t-3.8-11.72V30.69q0-8.45,3.76-12.94c2.51-3,6.17-4.5,11-4.5q14.37,0,14.37,16v3.55A1.5,1.5,0,0,1,123,33.9a1.74,1.74,0,0,1-1.15.28H99.7Zm0-5.86h18c0-4.13-.7-7.18-2.12-9.13s-3.64-2.93-6.67-2.93Q99.77,17.58,99.7,29.64Z" style="fill:#fff"/>
	<path d="M131.78,1.4a1.74,1.74,0,0,1,1.15-.28h2.58a1.74,1.74,0,0,1,1.15.28A1.45,1.45,0,0,1,137,2.51V17.58q3.48-4.32,10.32-4.33t10.57,3.91q3.66,3.9,3.66,11.3V36.2q0,7.39-3.91,11.48t-11.09,4.08q-7.18,0-11.12-3.77t-3.94-10.74V2.51A1.46,1.46,0,0,1,131.78,1.4ZM146.53,47Q156,47,156,35.43V29.58Q156,18,146.46,18c-3.11,0-5.47,1-7.08,3s-2.4,4.85-2.4,8.62v5.85Q137,47,146.53,47Z" style="fill:#fff"/>
	<path d="M180,16.08a10.41,10.41,0,0,1,6-1.85h.9c.51,0,.84.09,1,.28a2,2,0,0,1,.21,1.11v2.52a2,2,0,0,1-.21,1.11c-.14.19-.47.28-1,.28h-1.81a7.5,7.5,0,0,0-3.73.91A8.54,8.54,0,0,0,178.52,23a12.39,12.39,0,0,0-1.81,3.84,17.27,17.27,0,0,0-.63,4.78V49.39a1.49,1.49,0,0,1-.31,1.11,1.76,1.76,0,0,1-1.15.28H172a1.76,1.76,0,0,1-1.15-.28,1.49,1.49,0,0,1-.31-1.11V15.62a1.49,1.49,0,0,1,.31-1.11,1.76,1.76,0,0,1,1.15-.28h2.45a1.76,1.76,0,0,1,1.15.28,1.49,1.49,0,0,1,.31,1.11v5.31A11.3,11.3,0,0,1,180,16.08Z" style="fill:#fff"/>
	<path d="M210.47,28.6c1.45.09,2.89.23,4.33.42V24.9c0-2.56-.59-4.4-1.78-5.54s-3.13-1.71-5.82-1.71a10.53,10.53,0,0,0-5,.94,6.36,6.36,0,0,0-2.69,3.24,3.88,3.88,0,0,1-.55,1,1.66,1.66,0,0,1-1.05.21h-2.51a1.88,1.88,0,0,1-1.22-.28,1.39,1.39,0,0,1-.32-1,4.9,4.9,0,0,1,.56-2.12,9.68,9.68,0,0,1,1.4-2.13,11.21,11.21,0,0,1,4.53-3.14,19.13,19.13,0,0,1,6.84-1.05q7,0,10,2.69t3.07,8.82v14.3q0,6.34-3.14,9.38t-10,3h-1q-7.11,0-10.5-2.62c-2.25-1.74-3.38-4.57-3.38-8.47q0-6.21,3.56-9.07t11.16-2.86C207.85,28.46,209,28.51,210.47,28.6Zm-10.56,6.14c-1.38,1.11-2.06,3-2.06,5.58q0,3.42,1.92,5t6.73,1.53h.63q4.11,0,5.89-2t1.78-6.39V33.69c-1.4-.19-2.78-.34-4.15-.45s-2.48-.18-3.31-.18Q202,33.06,199.91,34.74Z" style="fill:#fff"/>
	<path d="M235.08,48.55q-2.16-2.23-2.16-7V18.83h-4.54c-.51,0-.84-.09-1-.28a2.09,2.09,0,0,1-.2-1.11V15.62a2.14,2.14,0,0,1,.2-1.11c.14-.19.47-.28,1-.28h4.54V5.37a1.5,1.5,0,0,1,.31-1.12A1.81,1.81,0,0,1,234.38,4H237a1.81,1.81,0,0,1,1.15.27,1.5,1.5,0,0,1,.32,1.12v8.86h7.18c.51,0,.84.09,1,.28a2,2,0,0,1,.21,1.11v1.82a2,2,0,0,1-.21,1.11c-.14.19-.47.28-1,.28h-7.18V40.6a6.81,6.81,0,0,0,.94,4.08,3.69,3.69,0,0,0,3.1,1.22h3.28c.51,0,.84.09,1,.28a2,2,0,0,1,.21,1.11v2.1a2,2,0,0,1-.21,1.11c-.14.19-.47.28-1,.28H242Q237.24,50.78,235.08,48.55Z" style="fill:#fff"/>
	<path d="M258.78,35.5q0,11.52,9.35,11.51,5.92,0,7.88-4.53a2.57,2.57,0,0,1,.59-1,1.88,1.88,0,0,1,1-.18h2.51a2.78,2.78,0,0,1,1.26.18c.19.11.28.43.28.94a6,6,0,0,1-.77,2.51,12.41,12.41,0,0,1-1.74,2.65,11.7,11.7,0,0,1-4.71,3.07,18.48,18.48,0,0,1-6.52,1.12q-7.05,0-10.85-4.12t-3.8-11.72V30.69q0-8.45,3.77-12.94T268,13.25q14.37,0,14.37,16v3.55A1.5,1.5,0,0,1,282,33.9a1.74,1.74,0,0,1-1.15.28H258.78Zm0-5.86h18c0-4.13-.71-7.18-2.13-9.13S271,17.58,268,17.58Q258.84,17.58,258.78,29.64Z" style="fill:#fff"/>
	<path d="M307.65,1.4a1.76,1.76,0,0,1,1.15-.28h2.58a1.77,1.77,0,0,1,1.16.28,1.46,1.46,0,0,1,.31,1.11V17.58q3.5-4.32,10.32-4.33t10.57,3.91q3.66,3.9,3.66,11.3V36.2q0,7.39-3.9,11.48t-11.09,4.08q-7.19,0-11.13-3.77t-3.94-10.74V2.51A1.46,1.46,0,0,1,307.65,1.4ZM322.41,47q9.48,0,9.48-11.58V29.58q0-11.58-9.55-11.58c-3.12,0-5.48,1-7.08,3s-2.41,4.85-2.41,8.62v5.85Q312.85,47,322.41,47Z" style="fill:#fff"/>
	<path d="M363.39,28.6c1.45.09,2.89.23,4.33.42V24.9c0-2.56-.59-4.4-1.78-5.54s-3.13-1.71-5.82-1.71a10.53,10.53,0,0,0-5,.94,6.36,6.36,0,0,0-2.69,3.24,3.81,3.81,0,0,1-.56,1,1.63,1.63,0,0,1-1,.21h-2.51a1.88,1.88,0,0,1-1.22-.28,1.39,1.39,0,0,1-.32-1,4.9,4.9,0,0,1,.56-2.12,9.68,9.68,0,0,1,1.4-2.13,11.14,11.14,0,0,1,4.53-3.14,19.13,19.13,0,0,1,6.84-1.05q7,0,10,2.69t3.07,8.82v14.3q0,6.34-3.14,9.38t-10,3H359q-7.11,0-10.5-2.62c-2.25-1.74-3.38-4.57-3.38-8.47q0-6.21,3.56-9.07t11.16-2.86C360.77,28.46,362,28.51,363.39,28.6Zm-10.56,6.14c-1.38,1.11-2.06,3-2.06,5.58q0,3.42,1.92,5t6.73,1.53h.63q4.11,0,5.89-2t1.78-6.39V33.69c-1.4-.19-2.78-.34-4.15-.45s-2.48-.18-3.32-.18Q354.88,33.06,352.83,34.74Z" style="fill:#fff"/>
	<path d="M382.65,1.4a1.76,1.76,0,0,1,1.15-.28h2.59a1.76,1.76,0,0,1,1.15.28,1.46,1.46,0,0,1,.31,1.11V17.58q3.5-4.32,10.32-4.33t10.57,3.91q3.66,3.9,3.66,11.3V36.2q0,7.39-3.9,11.48t-11.09,4.08q-7.19,0-11.13-3.77t-3.94-10.74V2.51A1.46,1.46,0,0,1,382.65,1.4ZM397.41,47q9.48,0,9.48-11.58V29.58q0-11.58-9.55-11.58c-3.12,0-5.48,1-7.08,3s-2.41,4.85-2.41,8.62v5.85Q387.85,47,397.41,47Z" style="fill:#fff"/>
	<path d="M421.49,6.91a2.93,2.93,0,0,1-.94-2.31V3.49a2.81,2.81,0,0,1,.94-2.23A3.65,3.65,0,0,1,424,.42a3.92,3.92,0,0,1,2.65.84,2.78,2.78,0,0,1,1,2.23V4.6a2.89,2.89,0,0,1-1,2.31,4,4,0,0,1-2.65.83A3.7,3.7,0,0,1,421.49,6.91Zm4.95,43.59a1.74,1.74,0,0,1-1.15.28h-2.58a1.74,1.74,0,0,1-1.15-.28,1.48,1.48,0,0,1-.32-1.11V15.62a1.48,1.48,0,0,1,.32-1.11,1.74,1.74,0,0,1,1.15-.28h2.58a1.74,1.74,0,0,1,1.15.28,1.49,1.49,0,0,1,.31,1.11V49.39A1.49,1.49,0,0,1,426.44,50.5Z" style="fill:#fff"/>
	<path d="M440.89,35.5q0,11.52,9.34,11.51,5.94,0,7.89-4.53a2.57,2.57,0,0,1,.59-1,1.88,1.88,0,0,1,1-.18h2.51a2.78,2.78,0,0,1,1.26.18c.18.11.28.43.28.94a6,6,0,0,1-.77,2.51,12.41,12.41,0,0,1-1.74,2.65,11.77,11.77,0,0,1-4.71,3.07A18.48,18.48,0,0,1,450,51.76q-7,0-10.85-4.12t-3.8-11.72V30.69q0-8.45,3.76-12.94t11-4.5q14.36,0,14.36,16v3.55a1.5,1.5,0,0,1-.31,1.12,1.74,1.74,0,0,1-1.15.28H440.89Zm0-5.86h18c0-4.13-.7-7.18-2.12-9.13s-3.64-2.93-6.66-2.93Q441,17.58,440.89,29.64Z" style="fill:#fff"/>
	<path d="M474.41,48.34a8.16,8.16,0,0,1-2.72-6.14,1.39,1.39,0,0,1,.31-1.05,2,2,0,0,1,1.22-.27h2a2.32,2.32,0,0,1,1.15.2,1.51,1.51,0,0,1,.46,1,6.08,6.08,0,0,0,2.65,4,11.62,11.62,0,0,0,6,1.25q8,0,7.95-5.65A5.79,5.79,0,0,0,492,37.56a10.32,10.32,0,0,0-4.92-2.4l-6.21-1.61a12.86,12.86,0,0,1-6.34-3.45,8.72,8.72,0,0,1-2-6v-.34A9.33,9.33,0,0,1,476,16.08q3.5-2.83,9.56-2.83,7.32,0,10.6,3.49a8.12,8.12,0,0,1,2.51,5.93,1.39,1.39,0,0,1-.31,1,2,2,0,0,1-1.22.27h-2a2.2,2.2,0,0,1-1.18-.2,1.57,1.57,0,0,1-.42-1q-.84-5.23-8.44-5.23a8.48,8.48,0,0,0-5.41,1.53,5.23,5.23,0,0,0-1.92,4.33,5.29,5.29,0,0,0,.35,2A4,4,0,0,0,479.29,27a8.22,8.22,0,0,0,2.2,1.26,24.16,24.16,0,0,0,3.38,1.05l5.72,1.46Q499,32.86,499,41v.34q0,10.47-13.32,10.47Q478,51.76,474.41,48.34Z" style="fill:#fff"/>
	<path d="M11.21,132.27c-1.44-1.49-2.16-3.83-2.16-7V102.56H4.51c-.51,0-.83-.1-1-.28a2,2,0,0,1-.21-1.12V99.35a2,2,0,0,1,.21-1.12c.14-.18.46-.28,1-.28H9.05V89.1A1.48,1.48,0,0,1,9.36,88a1.74,1.74,0,0,1,1.15-.28h2.58a1.72,1.72,0,0,1,1.15.28,1.48,1.48,0,0,1,.32,1.12V98h7.18a1.25,1.25,0,0,1,1,.28,2,2,0,0,1,.21,1.12v1.81a2,2,0,0,1-.21,1.12,1.25,1.25,0,0,1-1,.28H14.56v21.76a6.77,6.77,0,0,0,.94,4.08,3.66,3.66,0,0,0,3.1,1.22h3.28a1.25,1.25,0,0,1,1,.28,2,2,0,0,1,.21,1.12v2.09a2,2,0,0,1-.21,1.12c-.14.18-.47.27-1,.27H18.12Q13.36,134.5,11.21,132.27Z" style="fill:#fff"/>
	<path d="M41.23,98.2A14.56,14.56,0,0,1,47.3,97q5.87,0,8.93,3.14t3.07,9.13v23.86a1.5,1.5,0,0,1-.32,1.12,1.81,1.81,0,0,1-1.15.27H55.25a1.81,1.81,0,0,1-1.15-.27,1.5,1.5,0,0,1-.31-1.12V110.44q0-4.47-1.89-6.52c-1.25-1.37-3.28-2.06-6.07-2.06a8.59,8.59,0,0,0-6.66,2.69,10.13,10.13,0,0,0-2.47,7.15v21.41a1.5,1.5,0,0,1-.32,1.12,1.81,1.81,0,0,1-1.15.27H32.65a1.81,1.81,0,0,1-1.15-.27,1.5,1.5,0,0,1-.31-1.12V86.24a1.5,1.5,0,0,1,.31-1.12,1.74,1.74,0,0,1,1.15-.28h2.58a1.74,1.74,0,0,1,1.15.28,1.5,1.5,0,0,1,.32,1.12v15.41A12.12,12.12,0,0,1,41.23,98.2Z" style="fill:#fff"/>
	<path d="M73.53,119.23q0,11.51,9.35,11.51,5.93,0,7.88-4.54a2.75,2.75,0,0,1,.59-1,2,2,0,0,1,1-.17h2.51a3,3,0,0,1,1.26.17c.19.12.28.43.28.94a6,6,0,0,1-.77,2.52,12.67,12.67,0,0,1-1.74,2.65,11.88,11.88,0,0,1-4.71,3.07,18.47,18.47,0,0,1-6.52,1.11q-7,0-10.85-4.11T68,119.65v-5.23q0-8.44,3.76-12.94t11-4.5q14.37,0,14.37,16v3.56a1.45,1.45,0,0,1-.32,1.11,1.74,1.74,0,0,1-1.15.28H73.53Zm0-5.86h18q0-6.21-2.13-9.14t-6.66-2.93Q73.59,101.3,73.53,113.37Z" style="fill:#fff"/>
	<path d="M144.62,99.66a2.08,2.08,0,0,1,.63,1.22l7.53,28.74,7.74-30.2a2.63,2.63,0,0,1,.52-1.15,1.51,1.51,0,0,1,1.09-.32H165q1.11,0,1.11.84a4.31,4.31,0,0,1-.21.91L156.69,133a2.52,2.52,0,0,1-.67,1.22,1.77,1.77,0,0,1-1.15.31h-4.6a2,2,0,0,1-1.19-.31,2,2,0,0,1-.63-1.22l-6.76-26.72L134.92,133a2,2,0,0,1-.63,1.22,1.91,1.91,0,0,1-1.18.31H128.5a1.79,1.79,0,0,1-1.15-.31,2.61,2.61,0,0,1-.66-1.22L117.55,99.7a4.31,4.31,0,0,1-.21-.91c0-.56.38-.84,1.12-.84h2.93a1.52,1.52,0,0,1,1,.28,2.68,2.68,0,0,1,.59,1.19l8,30.2,7.25-28.74a2.08,2.08,0,0,1,.63-1.22,1.93,1.93,0,0,1,1.18-.31h3.35A2,2,0,0,1,144.62,99.66Z" style="fill:#fff"/>
	<path d="M188.16,112.32q2.16.15,4.32.42v-4.11q0-3.84-1.78-5.55c-1.18-1.14-3.13-1.71-5.82-1.71a10.65,10.65,0,0,0-5,.94,6.39,6.39,0,0,0-2.69,3.25,3.76,3.76,0,0,1-.55,1,1.66,1.66,0,0,1-1.05.21h-2.51a1.88,1.88,0,0,1-1.22-.28,1.34,1.34,0,0,1-.32-1,5,5,0,0,1,.56-2.13,9.68,9.68,0,0,1,1.4-2.13A11.31,11.31,0,0,1,178,98a19.42,19.42,0,0,1,6.84-1q7,0,10,2.68t3.07,8.83v14.3q0,6.34-3.14,9.38t-10,3h-1.05q-7.11,0-10.5-2.61c-2.25-1.75-3.38-4.57-3.38-8.48q0-6.21,3.56-9.07t11.16-2.86C185.53,112.18,186.71,112.23,188.16,112.32Zm-10.57,6.14q-2.06,1.68-2.06,5.58,0,3.42,1.92,5t6.73,1.54h.63c2.74,0,4.71-.66,5.89-2s1.78-3.45,1.78-6.38v-4.75c-1.39-.18-2.78-.33-4.15-.45s-2.48-.17-3.31-.17Q179.65,116.79,177.59,118.46Z" style="fill:#fff"/>
	<path d="M211.53,141.34a4.63,4.63,0,0,0,1.92-.84,5.91,5.91,0,0,0,1.5-1.74,17.09,17.09,0,0,0,1.29-2.86l.84-2.44L204.24,99.63a3.44,3.44,0,0,1-.21-.84c0-.56.38-.84,1.12-.84h3.07a1.37,1.37,0,0,1,1,.28,3.61,3.61,0,0,1,.63,1.19l10,26.92,9.27-26.92a4,4,0,0,1,.63-1.19,1.4,1.4,0,0,1,1-.28h2.93q1.11,0,1.11.84a3.26,3.26,0,0,1-.2.84L221.4,136.32a26.82,26.82,0,0,1-2.33,5.19,11.35,11.35,0,0,1-2.62,3.07,7.88,7.88,0,0,1-3,1.47,16.4,16.4,0,0,1-3.66.38h-1.6c-.51,0-.84-.09-1-.28A2,2,0,0,1,207,145v-2.1a2,2,0,0,1,.21-1.11c.14-.19.47-.28,1-.28H209A13.49,13.49,0,0,0,211.53,141.34Z" style="fill:#fff"/>
	<path d="M261,132.27c-1.44-1.49-2.16-3.83-2.16-7V102.56h-4.53c-.52,0-.84-.1-1-.28a2,2,0,0,1-.21-1.12V99.35a2,2,0,0,1,.21-1.12c.14-.18.46-.28,1-.28h4.53V89.1a1.48,1.48,0,0,1,.31-1.12,1.76,1.76,0,0,1,1.15-.28h2.59a1.76,1.76,0,0,1,1.15.28,1.48,1.48,0,0,1,.31,1.12V98h7.18c.52,0,.84.1,1,.28a2,2,0,0,1,.21,1.12v1.81a2,2,0,0,1-.21,1.12c-.14.18-.46.28-1,.28h-7.18v21.76a6.77,6.77,0,0,0,.94,4.08,3.67,3.67,0,0,0,3.11,1.22h3.27c.52,0,.84.1,1,.28a2,2,0,0,1,.21,1.12v2.09a2,2,0,0,1-.21,1.12c-.14.18-.46.27-1,.27h-3.76Q263.18,134.5,261,132.27Z" style="fill:#fff"/>
	<path d="M291.05,98.2A14.6,14.6,0,0,1,297.12,97q5.86,0,8.93,3.14t3.07,9.13v23.86a1.5,1.5,0,0,1-.32,1.12,1.81,1.81,0,0,1-1.15.27h-2.58a1.81,1.81,0,0,1-1.15-.27,1.5,1.5,0,0,1-.31-1.12V110.44q0-4.47-1.89-6.52t-6.06-2.06a8.61,8.61,0,0,0-6.67,2.69,10.13,10.13,0,0,0-2.47,7.15v21.41a1.5,1.5,0,0,1-.32,1.12,1.81,1.81,0,0,1-1.15.27h-2.58a1.81,1.81,0,0,1-1.15-.27,1.5,1.5,0,0,1-.31-1.12V86.24a1.5,1.5,0,0,1,.31-1.12,1.74,1.74,0,0,1,1.15-.28h2.58a1.74,1.74,0,0,1,1.15.28,1.5,1.5,0,0,1,.32,1.12v15.41A12.12,12.12,0,0,1,291.05,98.2Z" style="fill:#fff"/>
	<path d="M323.35,119.23q0,11.51,9.35,11.51,5.93,0,7.88-4.54a2.75,2.75,0,0,1,.59-1,2,2,0,0,1,1-.17h2.51a3,3,0,0,1,1.26.17c.19.12.28.43.28.94a6,6,0,0,1-.77,2.52,12.67,12.67,0,0,1-1.74,2.65,11.81,11.81,0,0,1-4.71,3.07,18.47,18.47,0,0,1-6.52,1.11q-7,0-10.85-4.11t-3.8-11.72v-5.23q0-8.44,3.77-12.94T332.56,97q14.37,0,14.37,16v3.56a1.45,1.45,0,0,1-.32,1.11,1.74,1.74,0,0,1-1.15.28H323.35Zm0-5.86h18q0-6.21-2.13-9.14t-6.66-2.93Q323.43,101.3,323.35,113.37Z" style="fill:#fff"/>
	<path d="M359.48,141.34a4.63,4.63,0,0,0,1.92-.84,5.91,5.91,0,0,0,1.5-1.74,17.09,17.09,0,0,0,1.29-2.86l.84-2.44L352.19,99.63a3.44,3.44,0,0,1-.21-.84c0-.56.38-.84,1.12-.84h3.07a1.4,1.4,0,0,1,1,.28,3.84,3.84,0,0,1,.62,1.19l10,26.92L377,99.42a3.84,3.84,0,0,1,.62-1.19,1.42,1.42,0,0,1,1-.28h2.93c.74,0,1.12.28,1.12.84a3.44,3.44,0,0,1-.21.84l-13.12,36.69a26.82,26.82,0,0,1-2.33,5.19,11.35,11.35,0,0,1-2.62,3.07,7.91,7.91,0,0,1-3,1.47,16.55,16.55,0,0,1-3.67.38h-1.6c-.51,0-.84-.09-1-.28a2,2,0,0,1-.2-1.11v-2.1a2,2,0,0,1,.2-1.11c.14-.19.47-.28,1-.28h.84A13.49,13.49,0,0,0,359.48,141.34Z" style="fill:#fff"/>
	<path d="M421,112.32q2.16.15,4.32.42v-4.11q0-3.84-1.77-5.55t-5.83-1.71a10.61,10.61,0,0,0-5,.94,6.35,6.35,0,0,0-2.69,3.25,3.7,3.7,0,0,1-.56,1,1.66,1.66,0,0,1-1.05.21h-2.51a1.89,1.89,0,0,1-1.22-.28,1.35,1.35,0,0,1-.31-1,5,5,0,0,1,.56-2.13,9.64,9.64,0,0,1,1.39-2.13A11.28,11.28,0,0,1,410.87,98a19.36,19.36,0,0,1,6.83-1q7,0,10.05,2.68c2,1.79,3.07,4.73,3.07,8.83v14.3q0,6.34-3.14,9.38c-2.1,2-5.44,3-10.05,3h-1q-7.12,0-10.5-2.61c-2.26-1.75-3.38-4.57-3.38-8.48q0-6.21,3.55-9.07t11.16-2.86C418.35,112.18,419.54,112.23,421,112.32Zm-10.57,6.14q-2.06,1.68-2.06,5.58,0,3.42,1.92,5c1.28,1,3.53,1.54,6.73,1.54h.63c2.75,0,4.71-.66,5.9-2s1.77-3.45,1.77-6.38v-4.75q-2.08-.27-4.14-.45c-1.38-.11-2.48-.17-3.32-.17Q412.47,116.79,410.41,118.46Z" style="fill:#fff"/>
	<path d="M449.77,99.8a10.41,10.41,0,0,1,6-1.85h.91a1.25,1.25,0,0,1,1,.28,2.06,2.06,0,0,1,.2,1.12v2.51a2.06,2.06,0,0,1-.2,1.12,1.25,1.25,0,0,1-1,.28H454.9a7.66,7.66,0,0,0-3.74.9,8.75,8.75,0,0,0-2.82,2.55,12.24,12.24,0,0,0-1.82,3.83,17.72,17.72,0,0,0-.62,4.78v17.79a1.5,1.5,0,0,1-.32,1.12,1.81,1.81,0,0,1-1.15.27h-2.58a1.81,1.81,0,0,1-1.15-.27,1.5,1.5,0,0,1-.31-1.12V99.35a1.5,1.5,0,0,1,.31-1.12,1.8,1.8,0,0,1,1.15-.28h2.44a1.8,1.8,0,0,1,1.15.28,1.5,1.5,0,0,1,.32,1.12v5.3A11.36,11.36,0,0,1,449.77,99.8Z" style="fill:#fff"/>
	<path d="M469.19,119.23q0,11.51,9.35,11.51,5.93,0,7.88-4.54a2.73,2.73,0,0,1,.6-1,2,2,0,0,1,1-.17h2.51a2.89,2.89,0,0,1,1.25.17c.19.12.28.43.28.94a6,6,0,0,1-.76,2.52,13.1,13.1,0,0,1-1.75,2.65,11.74,11.74,0,0,1-4.71,3.07,18.44,18.44,0,0,1-6.52,1.11q-7,0-10.84-4.11t-3.81-11.72v-5.23q0-8.44,3.77-12.94T478.4,97q14.37,0,14.37,16v3.56a1.46,1.46,0,0,1-.31,1.11,1.76,1.76,0,0,1-1.15.28H469.19Zm0-5.86h18q0-6.21-2.13-9.14t-6.66-2.93Q469.27,101.3,469.19,113.37Z" style="fill:#fff"/>
</svg>