<svg xmlns="http://www.w3.org/2000/svg" width="469.59px" height="29.76px" viewBox="0 0 469.59 29.76">
	<path d="M4.23,4.21a4.87,4.87,0,0,1,4-1.58c3.1,0,4.72,1.35,4.93,4.15a.73.73,0,0,0,.24.57,1.3,1.3,0,0,0,.67.12h1.2A1,1,0,0,0,16,7.3a.76.76,0,0,0,.2-.59,6.48,6.48,0,0,0-1.65-4.56C13.3.72,11.25,0,8.44,0A9.41,9.41,0,0,0,3.57,1.17,6.87,6.87,0,0,0,.7,4.62,9.48,9.48,0,0,0,.17,6.75,22.93,22.93,0,0,0,0,9.82v5.36a22.49,22.49,0,0,0,.17,3A10.31,10.31,0,0,0,.7,20.35a6.44,6.44,0,0,0,2.88,3.27,9.39,9.39,0,0,0,4.6,1.05,8.6,8.6,0,0,0,6.29-2.2,5.48,5.48,0,0,0,1.27-2,7.56,7.56,0,0,0,.45-2.58.77.77,0,0,0-.2-.6,1.09,1.09,0,0,0-.67-.16H14.18a1.42,1.42,0,0,0-.66.11.73.73,0,0,0-.24.58C13,20.64,11.37,22,8.24,22a4.82,4.82,0,0,1-4-1.59C3.4,19.37,3,17.63,3,15.25V9.42C3,7,3.4,5.27,4.23,4.21" style="fill:#fff"/>
	<path d="M26.51,6.23a6.52,6.52,0,0,0-5.26,2.16,9.47,9.47,0,0,0-1.81,6.18V17a8,8,0,0,0,1.83,5.59,6.72,6.72,0,0,0,5.2,2,8.7,8.7,0,0,0,3.12-.54,5.92,5.92,0,0,0,2.28-1.47,6.51,6.51,0,0,0,.83-1.29,2.91,2.91,0,0,0,.37-1.24c0-.3-.06-.48-.2-.57a1.48,1.48,0,0,0-.66-.1H31a1.13,1.13,0,0,0-.55.1c-.07.05-.17.16-.33.55a3.47,3.47,0,0,1-3.57,2c-2.85,0-4.25-1.73-4.25-5.26v-.48H32.57a.94.94,0,0,0,.64-.17.86.86,0,0,0,.19-.63V13.88c0-5.08-2.32-7.65-6.89-7.65m0,2.32a3.5,3.5,0,0,1,3,1.32,7.13,7.13,0,0,1,1,4.06H22.33c.06-3.62,1.43-5.38,4.18-5.38" style="fill:#fff"/>
	<path d="M39,.53H37.77a.94.94,0,0,0-.64.17.84.84,0,0,0-.19.63v22a.88.88,0,0,0,.19.63.94.94,0,0,0,.64.17H39a.91.91,0,0,0,.64-.17.8.8,0,0,0,.2-.63v-22a.77.77,0,0,0-.2-.63A.91.91,0,0,0,39,.53" style="fill:#fff"/>
	<path d="M50.5,6.23a6.52,6.52,0,0,0-5.26,2.16,9.47,9.47,0,0,0-1.8,6.18V17a8,8,0,0,0,1.82,5.59,6.72,6.72,0,0,0,5.2,2,8.66,8.66,0,0,0,3.12-.54,5.92,5.92,0,0,0,2.28-1.47,6.51,6.51,0,0,0,.83-1.29,2.91,2.91,0,0,0,.37-1.24c0-.3-.05-.48-.19-.57a1.51,1.51,0,0,0-.66-.1H55a1.18,1.18,0,0,0-.56.1c-.07.05-.17.16-.33.55a3.46,3.46,0,0,1-3.57,2c-2.85,0-4.24-1.73-4.24-5.26v-.48H56.56a.93.93,0,0,0,.64-.17.82.82,0,0,0,.2-.63V13.88c0-5.08-2.33-7.65-6.9-7.65m0,2.32a3.5,3.5,0,0,1,3,1.32,7.13,7.13,0,0,1,1,4.06H46.32c.06-3.62,1.43-5.38,4.18-5.38" style="fill:#fff"/>
	<path d="M68.27,6.22A6.19,6.19,0,0,0,63.56,8V1.32a.81.81,0,0,0-.19-.63,1,1,0,0,0-.64-.16H61.51a1,1,0,0,0-.63.16.85.85,0,0,0-.19.63V17.64a6.83,6.83,0,0,0,1.89,5.16,7.43,7.43,0,0,0,5.33,1.81,7,7,0,0,0,5.31-2,7.68,7.68,0,0,0,1.88-5.49V13.52a7.63,7.63,0,0,0-1.76-5.41,6.64,6.64,0,0,0-5.07-1.89m-.4,2.53c2.93,0,4.34,1.73,4.34,5.29V16.8c0,3.56-1.4,5.29-4.3,5.29s-4.35-1.73-4.35-5.29V14a6.18,6.18,0,0,1,1.1-3.95,3.93,3.93,0,0,1,3.21-1.34" style="fill:#fff"/>
	<path d="M86.61,6.69h-.44a5.12,5.12,0,0,0-2.91.88,5.52,5.52,0,0,0-1.65,1.79V7.49a.77.77,0,0,0-.2-.63.93.93,0,0,0-.64-.17H79.62a.88.88,0,0,0-.63.17.77.77,0,0,0-.2.63V23.35A.77.77,0,0,0,79,24a.88.88,0,0,0,.63.17h1.22a.93.93,0,0,0,.64-.17.8.8,0,0,0,.19-.63V15A8.2,8.2,0,0,1,82,12.78,5.9,5.9,0,0,1,82.79,11a4.06,4.06,0,0,1,1.27-1.15,3.61,3.61,0,0,1,1.69-.41h.86c.29,0,.48-.06.57-.19a1.08,1.08,0,0,0,.13-.61V7.49a1.14,1.14,0,0,0-.13-.62.69.69,0,0,0-.57-.18" style="fill:#fff"/>
	<path d="M96.14,6.22a9.39,9.39,0,0,0-3.27.51,5.38,5.38,0,0,0-2.18,1.52,4.38,4.38,0,0,0-.68,1,2.5,2.5,0,0,0-.28,1.06.77.77,0,0,0,.2.6,1,1,0,0,0,.67.17h1.18a.9.9,0,0,0,.6-.14,2,2,0,0,0,.29-.51A2.84,2.84,0,0,1,93.86,9a5,5,0,0,1,2.28-.42,3.77,3.77,0,0,1,2.63.76,3.36,3.36,0,0,1,.79,2.5v1.76c-.61-.08-1.24-.13-1.87-.17s-1.24-.07-1.69-.07c-2.4,0-4.2.46-5.32,1.38A5.26,5.26,0,0,0,89,19.11a4.84,4.84,0,0,0,1.65,4.1,8.08,8.08,0,0,0,5,1.27h.49c2.2,0,3.82-.5,4.83-1.47a6.08,6.08,0,0,0,1.52-4.51V11.78A5.35,5.35,0,0,0,101,7.53c-1-.87-2.6-1.31-4.81-1.31M96.1,22h-.29a5,5,0,0,1-3.06-.69,2.67,2.67,0,0,1-.85-2.22,3.07,3.07,0,0,1,.9-2.5,5.64,5.64,0,0,1,3.4-.75c.4,0,.91,0,1.55.08s1.21.11,1.81.2v2.1a4.3,4.3,0,0,1-.8,2.9A3.44,3.44,0,0,1,96.1,22" style="fill:#fff"/>
	<path d="M114,21.56h-1.54a1.59,1.59,0,0,1-1.34-.52,3,3,0,0,1-.42-1.82V9.14h3.23a.71.71,0,0,0,.59-.19,1.21,1.21,0,0,0,.11-.61V7.49a1.19,1.19,0,0,0-.11-.61.71.71,0,0,0-.59-.19h-3.23v-4A.86.86,0,0,0,110.5,2a1,1,0,0,0-.63-.15h-1.22A1,1,0,0,0,108,2a.86.86,0,0,0-.19.64v4h-2c-.3,0-.48.06-.57.19a1,1,0,0,0-.13.61v.85a1,1,0,0,0,.13.61c.09.13.27.19.57.19h2V19.65a4.8,4.8,0,0,0,1.05,3.41,4.53,4.53,0,0,0,3.35,1.09H114c.29,0,.48-.06.57-.19a1,1,0,0,0,.13-.61v-1a1.06,1.06,0,0,0-.13-.62.69.69,0,0,0-.57-.19" style="fill:#fff"/>
	<path d="M124.16,6.23a6.52,6.52,0,0,0-5.26,2.16,9.47,9.47,0,0,0-1.8,6.18V17a8,8,0,0,0,1.82,5.59,6.73,6.73,0,0,0,5.21,2,8.68,8.68,0,0,0,3.11-.54,5.73,5.73,0,0,0,2.27-1.47,5.74,5.74,0,0,0,.84-1.29,2.94,2.94,0,0,0,.38-1.24c0-.3-.07-.48-.2-.57a1.56,1.56,0,0,0-.67-.1h-1.18a1.15,1.15,0,0,0-.56.1c-.07.05-.17.16-.32.55a3.47,3.47,0,0,1-3.57,2c-2.86,0-4.25-1.73-4.25-5.26v-.48h10.24a.93.93,0,0,0,.64-.17.82.82,0,0,0,.19-.63V13.88c0-5.08-2.31-7.65-6.89-7.65m0,2.32a3.47,3.47,0,0,1,3,1.32,7,7,0,0,1,1,4.06H120c.06-3.62,1.42-5.38,4.18-5.38" style="fill:#fff"/>
	<path d="M150.07,6.22A6.19,6.19,0,0,0,145.37,8V1.32a.77.77,0,0,0-.2-.63.94.94,0,0,0-.63-.16h-1.22a1,1,0,0,0-.64.16.89.89,0,0,0-.19.63V17.64a6.87,6.87,0,0,0,1.89,5.16,7.47,7.47,0,0,0,5.34,1.81,7.06,7.06,0,0,0,5.31-2,7.68,7.68,0,0,0,1.88-5.49V13.52a7.58,7.58,0,0,0-1.77-5.41,6.62,6.62,0,0,0-5.07-1.89m-.39,2.53c2.93,0,4.34,1.73,4.34,5.29V16.8c0,3.56-1.4,5.29-4.3,5.29s-4.35-1.73-4.35-5.29V14a6.18,6.18,0,0,1,1.1-3.95,3.93,3.93,0,0,1,3.21-1.34" style="fill:#fff"/>
	<path d="M167.17,6.22a9.25,9.25,0,0,0-3.26.51,5.48,5.48,0,0,0-2.19,1.52,4.34,4.34,0,0,0-.67,1,2.39,2.39,0,0,0-.29,1.06.77.77,0,0,0,.2.6,1,1,0,0,0,.68.17h1.17a.9.9,0,0,0,.6-.14,1.91,1.91,0,0,0,.3-.51A2.84,2.84,0,0,1,164.9,9a4.88,4.88,0,0,1,2.27-.42,3.8,3.8,0,0,1,2.64.76,3.4,3.4,0,0,1,.79,2.5v1.76c-.62-.08-1.24-.13-1.88-.17s-1.24-.07-1.68-.07c-2.4,0-4.2.46-5.33,1.38A5.26,5.26,0,0,0,160,19.11a4.86,4.86,0,0,0,1.65,4.1,8.12,8.12,0,0,0,5,1.27h.49c2.19,0,3.82-.5,4.82-1.47a6.08,6.08,0,0,0,1.52-4.51V11.78A5.42,5.42,0,0,0,172,7.53c-1-.87-2.6-1.31-4.82-1.31m0,15.77h-.29a5.06,5.06,0,0,1-3.07-.69,2.67,2.67,0,0,1-.85-2.22,3.07,3.07,0,0,1,.91-2.5,5.64,5.64,0,0,1,3.4-.75c.39,0,.91,0,1.54.08s1.22.11,1.82.2v2.1a4.35,4.35,0,0,1-.8,2.9,3.49,3.49,0,0,1-2.66.88" style="fill:#fff"/>
	<path d="M184.79,6.22A6.19,6.19,0,0,0,180.08,8V1.32a.81.81,0,0,0-.19-.63,1,1,0,0,0-.64-.16H178a1,1,0,0,0-.63.16.89.89,0,0,0-.19.63V17.64a6.83,6.83,0,0,0,1.89,5.16,7.43,7.43,0,0,0,5.33,1.81,7.07,7.07,0,0,0,5.32-2,7.67,7.67,0,0,0,1.87-5.49V13.52a7.63,7.63,0,0,0-1.76-5.41,6.64,6.64,0,0,0-5.07-1.89m-.4,2.53c2.93,0,4.34,1.73,4.34,5.29V16.8c0,3.56-1.4,5.29-4.3,5.29s-4.35-1.73-4.35-5.29V14a6.18,6.18,0,0,1,1.1-3.95,3.93,3.93,0,0,1,3.21-1.34" style="fill:#fff"/>
	<path d="M197.26,6.69H196a.93.93,0,0,0-.64.17.8.8,0,0,0-.19.63V23.35a.8.8,0,0,0,.19.63.93.93,0,0,0,.64.17h1.22a.88.88,0,0,0,.63-.17.8.8,0,0,0,.2-.63V7.49a.8.8,0,0,0-.2-.63.88.88,0,0,0-.63-.17" style="fill:#fff"/>
	<path d="M196.66.2a1.93,1.93,0,0,0-1.29.43,1.5,1.5,0,0,0-.49,1.16v.52a1.54,1.54,0,0,0,.49,1.19,1.83,1.83,0,0,0,1.29.43A2,2,0,0,0,198,3.5a1.49,1.49,0,0,0,.51-1.19V1.79A1.45,1.45,0,0,0,198,.63,2.06,2.06,0,0,0,196.66.2" style="fill:#fff"/>
	<path d="M208.64,6.23a6.54,6.54,0,0,0-5.26,2.16,9.47,9.47,0,0,0-1.8,6.18V17a8,8,0,0,0,1.82,5.59,6.72,6.72,0,0,0,5.2,2,8.62,8.62,0,0,0,3.12-.54A5.81,5.81,0,0,0,214,22.6a5.74,5.74,0,0,0,.84-1.29,2.94,2.94,0,0,0,.38-1.24c0-.3-.07-.48-.2-.57a1.56,1.56,0,0,0-.67-.1h-1.18a1.15,1.15,0,0,0-.56.1,1.24,1.24,0,0,0-.32.55,3.48,3.48,0,0,1-3.58,2c-2.85,0-4.24-1.73-4.24-5.26v-.48H214.7a.93.93,0,0,0,.64-.17.82.82,0,0,0,.19-.63V13.88c0-5.08-2.31-7.65-6.89-7.65m0,2.32a3.47,3.47,0,0,1,3,1.32,7,7,0,0,1,1,4.06h-8.16c.06-3.62,1.43-5.38,4.18-5.38" style="fill:#fff"/>
	<path d="M227.43,14.45l-2.69-.68a13.55,13.55,0,0,1-1.57-.49,3.92,3.92,0,0,1-1-.56,1.76,1.76,0,0,1-.51-.67,2.39,2.39,0,0,1-.15-.9,2.25,2.25,0,0,1,.85-1.9,3.79,3.79,0,0,1,2.44-.7c2.31,0,3.56.77,3.82,2.34a.86.86,0,0,0,.25.56,1.3,1.3,0,0,0,.64.11h.95a1,1,0,0,0,.67-.16.74.74,0,0,0,.21-.6,4,4,0,0,0-1.23-2.89c-1.05-1.11-2.76-1.68-5.08-1.68a7,7,0,0,0-4.58,1.36,4.52,4.52,0,0,0-1.69,3.7v.16a4.26,4.26,0,0,0,1,2.94,6.31,6.31,0,0,0,3.05,1.66l2.92.75A4.8,4.8,0,0,1,228,17.9a2.6,2.6,0,0,1,.63,1.85c0,1.68-1.17,2.5-3.59,2.5a5.32,5.32,0,0,1-2.73-.57,2.73,2.73,0,0,1-1.19-1.8.82.82,0,0,0-.27-.56,1.21,1.21,0,0,0-.62-.12h-.95a1,1,0,0,0-.67.17.75.75,0,0,0-.2.6,4,4,0,0,0,1.32,3c1.16,1.09,3,1.65,5.38,1.65,4.25,0,6.4-1.71,6.4-5.06v-.16c0-2.61-1.36-4.26-4-4.94" style="fill:#fff"/>
	<path d="M250.4,21.56h-1.54a1.59,1.59,0,0,1-1.34-.52,3,3,0,0,1-.42-1.82V9.14h3.23a.72.72,0,0,0,.59-.19,1.21,1.21,0,0,0,.11-.61V7.49a1.19,1.19,0,0,0-.11-.61.72.72,0,0,0-.59-.19H247.1v-4a.86.86,0,0,0-.19-.64,1.08,1.08,0,0,0-.64-.15h-1.21a1.06,1.06,0,0,0-.64.15.86.86,0,0,0-.2.64v4h-2c-.3,0-.48.06-.57.19a.92.92,0,0,0-.13.61v.85a.93.93,0,0,0,.13.61c.09.13.27.19.57.19h2V19.65a4.8,4.8,0,0,0,1.06,3.41,4.52,4.52,0,0,0,3.34,1.09h1.78c.29,0,.48-.06.57-.19a1,1,0,0,0,.13-.61v-1a1.06,1.06,0,0,0-.13-.62.69.69,0,0,0-.57-.19" style="fill:#fff"/>
	<path d="M262.07,6.23a7.07,7.07,0,0,0-2.91.58,5.76,5.76,0,0,0-1.92,1.37V1.33a.82.82,0,0,0-.2-.64,1,1,0,0,0-.64-.16h-1.21a.94.94,0,0,0-.63.16.82.82,0,0,0-.21.64v22a.82.82,0,0,0,.2.63.93.93,0,0,0,.64.16h1.21A.91.91,0,0,0,257,24a.78.78,0,0,0,.2-.63V13.29A4.62,4.62,0,0,1,258.37,10a3.9,3.9,0,0,1,3-1.21,3.63,3.63,0,0,1,2.74.91,4.32,4.32,0,0,1,.85,3V23.35a.82.82,0,0,0,.19.63.9.9,0,0,0,.63.16H267a.93.93,0,0,0,.64-.16.82.82,0,0,0,.19-.63V12.14a6.07,6.07,0,0,0-1.47-4.39,5.79,5.79,0,0,0-4.31-1.52" style="fill:#fff"/>
	<path d="M278.45,6.23a6.54,6.54,0,0,0-5.26,2.16,9.47,9.47,0,0,0-1.81,6.18V17a8,8,0,0,0,1.83,5.59,6.73,6.73,0,0,0,5.21,2,8.68,8.68,0,0,0,3.11-.54,5.85,5.85,0,0,0,2.28-1.47,6.09,6.09,0,0,0,.83-1.29,2.94,2.94,0,0,0,.38-1.24c0-.3-.07-.48-.2-.57a1.56,1.56,0,0,0-.67-.1H283a1.15,1.15,0,0,0-.56.1c-.07.05-.17.16-.33.55a3.46,3.46,0,0,1-3.56,2c-2.86,0-4.25-1.73-4.25-5.26v-.48h10.25a.9.9,0,0,0,.63-.17.82.82,0,0,0,.19-.63V13.88c0-5.08-2.31-7.65-6.89-7.65m0,2.32a3.49,3.49,0,0,1,3,1.32,7.05,7.05,0,0,1,1,4.06h-8.15c.05-3.62,1.42-5.38,4.17-5.38" style="fill:#fff"/>
	<path d="M317.07,6.69h-1.34a.89.89,0,0,0-.61.18,1.63,1.63,0,0,0-.29.62l-3.48,13.63L308,8.18a1.09,1.09,0,0,0-.35-.66,1,1,0,0,0-.64-.18h-1.58a1,1,0,0,0-.64.18,1,1,0,0,0-.35.65l-3.27,13L297.49,7.48a1.22,1.22,0,0,0-.32-.62.78.78,0,0,0-.57-.17h-1.38c-.58,0-.66.33-.66.53a1.71,1.71,0,0,0,.1.47L299,23.32a1.34,1.34,0,0,0,.36.65,1,1,0,0,0,.63.18h2.17a1,1,0,0,0,.64-.18,1.06,1.06,0,0,0,.35-.65l3-12,3,12a1.11,1.11,0,0,0,.35.65,1,1,0,0,0,.65.18h2.16A1,1,0,0,0,313,24a1.42,1.42,0,0,0,.35-.65l4.32-15.63a1.54,1.54,0,0,0,.11-.47c0-.2-.09-.53-.68-.53" style="fill:#fff"/>
	<path d="M326.42,6.22a9.31,9.31,0,0,0-3.27.51A5.38,5.38,0,0,0,321,8.25a4.38,4.38,0,0,0-.68,1,2.5,2.5,0,0,0-.28,1.06.74.74,0,0,0,.2.6,1,1,0,0,0,.67.17h1.18a.92.92,0,0,0,.6-.14,2,2,0,0,0,.29-.51A2.84,2.84,0,0,1,324.14,9a4.92,4.92,0,0,1,2.28-.42,3.79,3.79,0,0,1,2.63.76,3.4,3.4,0,0,1,.79,2.5v1.76c-.62-.08-1.24-.13-1.87-.17s-1.25-.07-1.69-.07c-2.4,0-4.2.46-5.32,1.38a5.26,5.26,0,0,0-1.73,4.36,4.86,4.86,0,0,0,1.64,4.1,8.14,8.14,0,0,0,5,1.27h.49c2.19,0,3.82-.5,4.82-1.47a6,6,0,0,0,1.52-4.51V11.78a5.39,5.39,0,0,0-1.49-4.25c-1-.87-2.6-1.31-4.81-1.31m0,15.77h-.29A5.06,5.06,0,0,1,323,21.3a2.7,2.7,0,0,1-.85-2.22,3.07,3.07,0,0,1,.91-2.5,5.64,5.64,0,0,1,3.4-.75c.39,0,.91,0,1.54.08s1.22.11,1.82.2v2.1a4.35,4.35,0,0,1-.8,2.9,3.46,3.46,0,0,1-2.66.88" style="fill:#fff"/>
	<path d="M349.05,6.69h-1.38a.74.74,0,0,0-.56.18,1.92,1.92,0,0,0-.33.6l-4.22,12.25L338,7.47a1.75,1.75,0,0,0-.32-.6.78.78,0,0,0-.57-.18h-1.44c-.58,0-.67.33-.67.53a1.26,1.26,0,0,0,.1.45l6,15.85-.37,1.09a8.86,8.86,0,0,1-.6,1.32,2.69,2.69,0,0,1-.66.77,2.16,2.16,0,0,1-.85.37,6.54,6.54,0,0,1-1.17.1h-.39c-.29,0-.48,0-.58.18a1.06,1.06,0,0,0-.13.62v1a1,1,0,0,0,.13.61.7.7,0,0,0,.58.2h.75a8,8,0,0,0,1.76-.19,4,4,0,0,0,1.48-.72,5.26,5.26,0,0,0,1.26-1.48,12.49,12.49,0,0,0,1.12-2.46l6.15-17.24a1.42,1.42,0,0,0,.11-.45c0-.2-.09-.53-.67-.53" style="fill:#fff"/>
	<path d="M366.94,21.56h-1.55a1.63,1.63,0,0,1-1.34-.52,3.07,3.07,0,0,1-.41-1.82V9.14h3.23a.7.7,0,0,0,.58-.19,1.08,1.08,0,0,0,.13-.61V7.49a1.06,1.06,0,0,0-.13-.61.68.68,0,0,0-.58-.19h-3.23v-4a.82.82,0,0,0-.19-.64,1.06,1.06,0,0,0-.64-.15h-1.22A1,1,0,0,0,361,2a.86.86,0,0,0-.19.64v4h-2a.7.7,0,0,0-.58.19,1,1,0,0,0-.12.61v.85a1,1,0,0,0,.12.61.7.7,0,0,0,.58.19h2V19.65a4.76,4.76,0,0,0,1.06,3.41h0a4.53,4.53,0,0,0,3.35,1.09h1.77c.29,0,.49-.06.57-.19a1,1,0,0,0,.13-.61v-1a1.06,1.06,0,0,0-.13-.62.69.69,0,0,0-.57-.19" style="fill:#fff"/>
	<path d="M378.61,6.23a7.07,7.07,0,0,0-2.91.58,5.76,5.76,0,0,0-1.92,1.37V1.33a.86.86,0,0,0-.2-.64A1,1,0,0,0,373,.53h-1.21a1,1,0,0,0-.64.16.82.82,0,0,0-.2.64v22a.78.78,0,0,0,.2.63.9.9,0,0,0,.64.16H373a.9.9,0,0,0,.63-.16.82.82,0,0,0,.2-.63V13.29A4.66,4.66,0,0,1,374.9,10a3.92,3.92,0,0,1,3-1.21,3.6,3.6,0,0,1,2.74.91,4.32,4.32,0,0,1,.85,3V23.35a.82.82,0,0,0,.19.63,1,1,0,0,0,.65.16h1.21a.93.93,0,0,0,.64-.16.78.78,0,0,0,.2-.63V12.14a6,6,0,0,0-1.49-4.39,5.77,5.77,0,0,0-4.3-1.52" style="fill:#fff"/>
	<path d="M395,6.23a6.54,6.54,0,0,0-5.26,2.16,9.47,9.47,0,0,0-1.8,6.18V17a8,8,0,0,0,1.82,5.59,6.72,6.72,0,0,0,5.2,2,8.62,8.62,0,0,0,3.12-.54,5.81,5.81,0,0,0,2.27-1.47,5.74,5.74,0,0,0,.84-1.29,2.94,2.94,0,0,0,.38-1.24c0-.3-.07-.48-.2-.57a1.56,1.56,0,0,0-.67-.1h-1.18a1.18,1.18,0,0,0-.56.1,1.24,1.24,0,0,0-.32.55,3.48,3.48,0,0,1-3.58,2c-2.85,0-4.24-1.73-4.24-5.26v-.48h10.24a.93.93,0,0,0,.64-.17.82.82,0,0,0,.2-.63V13.88c0-5.08-2.32-7.65-6.9-7.65m0,2.32a3.47,3.47,0,0,1,3,1.32,7,7,0,0,1,1,4.06h-8.16c.06-3.62,1.43-5.38,4.18-5.38" style="fill:#fff"/>
	<path d="M417.74,6.69h-1.38a.73.73,0,0,0-.55.18,1.73,1.73,0,0,0-.33.6l-4.22,12.25L406.71,7.47a1.92,1.92,0,0,0-.33-.6.76.76,0,0,0-.57-.18h-1.44c-.58,0-.67.33-.67.53a1.42,1.42,0,0,0,.11.45l6,15.85-.37,1.09a8.93,8.93,0,0,1-.59,1.32,2.71,2.71,0,0,1-.67.77,2.12,2.12,0,0,1-.84.37,6.58,6.58,0,0,1-1.18.1h-.39c-.29,0-.47,0-.57.18a1.06,1.06,0,0,0-.13.62v1a1,1,0,0,0,.13.61.67.67,0,0,0,.57.2h.76a7.89,7.89,0,0,0,1.75-.19,3.85,3.85,0,0,0,1.48-.72A5.28,5.28,0,0,0,411,27.37a13.14,13.14,0,0,0,1.11-2.46l6.16-17.24a1.26,1.26,0,0,0,.1-.45c0-.2-.09-.53-.67-.53" style="fill:#fff"/>
	<path d="M434.72,6.22a9.31,9.31,0,0,0-3.27.51,5.38,5.38,0,0,0-2.18,1.52,4.38,4.38,0,0,0-.68,1,2.5,2.5,0,0,0-.28,1.06.74.74,0,0,0,.2.6,1,1,0,0,0,.67.17h1.18A.92.92,0,0,0,431,11a2,2,0,0,0,.29-.51A2.84,2.84,0,0,1,432.44,9a4.92,4.92,0,0,1,2.28-.42,3.79,3.79,0,0,1,2.63.76,3.4,3.4,0,0,1,.79,2.5v1.76c-.62-.08-1.24-.13-1.87-.17s-1.25-.07-1.69-.07c-2.4,0-4.2.46-5.32,1.38a5.27,5.27,0,0,0-1.74,4.36,4.86,4.86,0,0,0,1.65,4.1,8.14,8.14,0,0,0,5,1.27h.49A6.82,6.82,0,0,0,439.51,23,6.08,6.08,0,0,0,441,18.5V11.78a5.39,5.39,0,0,0-1.49-4.25c-1-.87-2.6-1.31-4.81-1.31m0,15.77h-.29a5.06,5.06,0,0,1-3.07-.69,2.7,2.7,0,0,1-.85-2.22,3.09,3.09,0,0,1,.91-2.5,5.64,5.64,0,0,1,3.4-.75c.39,0,.91,0,1.54.08s1.22.11,1.82.2v2.1a4.35,4.35,0,0,1-.8,2.9,3.46,3.46,0,0,1-2.66.88" style="fill:#fff"/>
	<path d="M452.77,6.69h-.43a5.15,5.15,0,0,0-2.92.88,5.75,5.75,0,0,0-1.65,1.79V7.49a.77.77,0,0,0-.2-.63.88.88,0,0,0-.63-.17h-1.15a.93.93,0,0,0-.64.17.8.8,0,0,0-.19.63V23.35a.8.8,0,0,0,.19.63.93.93,0,0,0,.64.17H447a.88.88,0,0,0,.63-.17.8.8,0,0,0,.19-.63V15a8.2,8.2,0,0,1,.29-2.21A5.92,5.92,0,0,1,449,11a4.06,4.06,0,0,1,1.27-1.15,3.55,3.55,0,0,1,1.69-.41h.85c.29,0,.48-.06.57-.19a1,1,0,0,0,.13-.61V7.49a1.06,1.06,0,0,0-.13-.62c-.09-.12-.27-.18-.57-.18" style="fill:#fff"/>
	<path d="M462.69,6.23a6.52,6.52,0,0,0-5.25,2.16,9.41,9.41,0,0,0-1.8,6.18V17a8,8,0,0,0,1.82,5.59,6.72,6.72,0,0,0,5.2,2,8.7,8.7,0,0,0,3.12-.54,5.81,5.81,0,0,0,2.27-1.47,6.11,6.11,0,0,0,.84-1.29,2.91,2.91,0,0,0,.37-1.24c0-.3-.06-.48-.19-.57a1.6,1.6,0,0,0-.67-.1h-1.18a1.15,1.15,0,0,0-.56.1,1.18,1.18,0,0,0-.32.55,3.49,3.49,0,0,1-3.58,2c-2.86,0-4.24-1.73-4.24-5.26v-.48h10.24a.88.88,0,0,0,.63-.17.8.8,0,0,0,.2-.63V13.88c0-5.08-2.31-7.65-6.9-7.65m0,2.32a3.48,3.48,0,0,1,3,1.32,7,7,0,0,1,1,4.06h-8.16c.06-3.62,1.42-5.38,4.17-5.38" style="fill:#fff"/>
</svg>