<svg xmlns="http://www.w3.org/2000/svg" viewBox="0 0 54.18 54.18"><defs><style>.cls-1{fill:none;stroke:#fff;stroke-miterlimit:10;stroke-width:1.96px;}.cls-2{fill:#fff;}</style></defs><g id="Capa_2" data-name="Capa 2"><g id="Layer_1" data-name="Layer 1"><circle class="cls-1" cx="27.09" cy="27.09" r="26.11"/><path class="cls-2" d="M27.09,16.08c3.76,0,4.21,0,5.69.09a7.78,7.78,0,0,1,2.61.48,4.62,4.62,0,0,1,2.67,2.67,7.53,7.53,0,0,1,.49,2.62c.07,1.48.08,1.93.08,5.68s0,4.21-.08,5.69a7.53,7.53,0,0,1-.49,2.62,4.7,4.7,0,0,1-2.67,2.67,7.78,7.78,0,0,1-2.61.48c-1.48.07-1.93.08-5.69.08s-4.2,0-5.69-.08a7.84,7.84,0,0,1-2.61-.48,4.7,4.7,0,0,1-2.67-2.67,8,8,0,0,1-.49-2.62c-.06-1.48-.08-1.93-.08-5.69s0-4.2.08-5.68a8,8,0,0,1,.49-2.62,4.62,4.62,0,0,1,2.67-2.67,7.84,7.84,0,0,1,2.61-.48c1.49-.07,1.93-.09,5.69-.09m0-2.53c-3.82,0-4.3,0-5.8.08a10.34,10.34,0,0,0-3.42.66,7.23,7.23,0,0,0-4.12,4.11,10.64,10.64,0,0,0-.65,3.42c-.07,1.5-.09,2-.09,5.8s0,4.31.09,5.81a10.64,10.64,0,0,0,.65,3.42A7.23,7.23,0,0,0,17.87,41a10.34,10.34,0,0,0,3.42.66c1.5.06,2,.08,5.8.08s4.3,0,5.81-.08A10.28,10.28,0,0,0,36.31,41a7.15,7.15,0,0,0,4.12-4.11,10.12,10.12,0,0,0,.65-3.42c.07-1.5.09-2,.09-5.81s0-4.3-.09-5.8a10.12,10.12,0,0,0-.65-3.42,7.15,7.15,0,0,0-4.12-4.11,10.28,10.28,0,0,0-3.41-.66c-1.51-.07-2-.08-5.81-.08"/><path class="cls-2" d="M27.09,20.4a7.23,7.23,0,1,0,7.23,7.22,7.23,7.23,0,0,0-7.23-7.22m0,11.92a4.7,4.7,0,1,1,4.69-4.7,4.69,4.69,0,0,1-4.69,4.7"/><path class="cls-2" d="M36.29,20.11a1.69,1.69,0,1,1-1.68-1.69,1.69,1.69,0,0,1,1.68,1.69"/></g></g></svg>