<svg xmlns="http://www.w3.org/2000/svg" viewBox="0 0 54.18 54.18"><defs><style>.cls-1{fill:none;stroke:#fff;stroke-miterlimit:10;stroke-width:1.96px;}.cls-2{fill:#fff;}</style></defs><g id="Capa_2" data-name="Capa 2"><g id="Layer_1" data-name="Layer 1"><circle class="cls-1" cx="27.09" cy="27.09" r="26.11"/><path class="cls-2" d="M43.22,18.89A4.13,4.13,0,0,0,40.32,16c-2.56-.69-12.82-.69-12.82-.69s-10.25,0-12.81.69a4.13,4.13,0,0,0-2.9,2.92,43,43,0,0,0-.69,8,42.87,42.87,0,0,0,.69,7.94,4.13,4.13,0,0,0,2.9,2.92c2.56.69,12.81.69,12.81.69s10.26,0,12.82-.69a4.13,4.13,0,0,0,2.9-2.92,43.49,43.49,0,0,0,.68-7.94A43.58,43.58,0,0,0,43.22,18.89ZM24.15,31.71V22l8.57,4.88Z"/></g></g></svg>